<mxfile host="Electron" agent="Mozilla/5.0 (Windows NT 10.0; Win64; x64) AppleWebKit/537.36 (KHTML, like Gecko) draw.io/26.2.2 Chrome/134.0.6998.178 Electron/35.1.2 Safari/537.36" version="26.2.2" pages="6">
  <diagram id="prtHgNgQTEPvFCAcTncT" name="系统总体架构">
    <mxGraphModel dx="827" dy="481" grid="1" gridSize="10" guides="1" tooltips="1" connect="1" arrows="1" fold="1" page="1" pageScale="1" pageWidth="827" pageHeight="1169" math="0" shadow="0">
      <root>
        <mxCell id="0" />
        <mxCell id="1" parent="0" />
        <mxCell id="2" value="工控系统点表管理平台架构" style="text;html=1;strokeColor=none;fillColor=none;align=center;verticalAlign=middle;whiteSpace=wrap;rounded=0;fontSize=24;fontStyle=1" parent="1" vertex="1">
          <mxGeometry x="240" y="40" width="360" height="30" as="geometry" />
        </mxCell>
        <mxCell id="3" value="用户" style="shape=umlActor;verticalLabelPosition=bottom;verticalAlign=top;html=1;outlineConnect=0;" parent="1" vertex="1">
          <mxGeometry x="160" y="130" width="30" height="60" as="geometry" />
        </mxCell>
        <mxCell id="4" value="AI系统" style="ellipse;shape=cloud;whiteSpace=wrap;html=1;fillColor=#f5f5f5;fontColor=#333333;strokeColor=#666666;" parent="1" vertex="1">
          <mxGeometry x="604" y="130" width="120" height="80" as="geometry" />
        </mxCell>
        <mxCell id="5" value="简道云API" style="ellipse;shape=cloud;whiteSpace=wrap;html=1;fillColor=#f5f5f5;fontColor=#333333;strokeColor=#666666;" parent="1" vertex="1">
          <mxGeometry x="450" y="120" width="120" height="80" as="geometry" />
        </mxCell>
        <mxCell id="10" value="前端 (Angular)" style="swimlane;whiteSpace=wrap;html=1;fillColor=#dae8fc;strokeColor=#6c8ebf;" parent="1" vertex="1">
          <mxGeometry x="90" y="240" width="280" height="260" as="geometry" />
        </mxCell>
        <mxCell id="11" value="核心模块" style="rounded=1;whiteSpace=wrap;html=1;fillColor=#d5e8d4;strokeColor=#82b366;" parent="10" vertex="1">
          <mxGeometry x="20" y="40" width="240" height="30" as="geometry" />
        </mxCell>
        <mxCell id="12" value="共享模块" style="rounded=1;whiteSpace=wrap;html=1;fillColor=#d5e8d4;strokeColor=#82b366;" parent="10" vertex="1">
          <mxGeometry x="20" y="80" width="240" height="30" as="geometry" />
        </mxCell>
        <mxCell id="13" value="功能模块" style="swimlane;whiteSpace=wrap;html=1;fillColor=#d5e8d4;strokeColor=#82b366;" parent="10" vertex="1">
          <mxGeometry x="20" y="120" width="240" height="100" as="geometry" />
        </mxCell>
        <mxCell id="14" value="项目管理" style="rounded=1;whiteSpace=wrap;html=1;" parent="13" vertex="1">
          <mxGeometry x="10" y="30" width="70" height="20" as="geometry" />
        </mxCell>
        <mxCell id="15" value="PLC配置" style="rounded=1;whiteSpace=wrap;html=1;" parent="13" vertex="1">
          <mxGeometry x="90" y="30" width="70" height="20" as="geometry" />
        </mxCell>
        <mxCell id="16" value="&lt;font style=&quot;font-size: 11px;&quot;&gt;第三方设备&lt;/font&gt;" style="rounded=1;whiteSpace=wrap;html=1;" parent="13" vertex="1">
          <mxGeometry x="170" y="30" width="60" height="20" as="geometry" />
        </mxCell>
        <mxCell id="17" value="点表处理" style="rounded=1;whiteSpace=wrap;html=1;" parent="13" vertex="1">
          <mxGeometry x="50" y="60" width="70" height="20" as="geometry" />
        </mxCell>
        <mxCell id="18" value="设备管理" style="rounded=1;whiteSpace=wrap;html=1;" parent="13" vertex="1">
          <mxGeometry x="130" y="60" width="70" height="20" as="geometry" />
        </mxCell>
        <mxCell id="19" value="布局组件" style="rounded=1;whiteSpace=wrap;html=1;fillColor=#d5e8d4;strokeColor=#82b366;" parent="10" vertex="1">
          <mxGeometry x="20" y="230" width="240" height="20" as="geometry" />
        </mxCell>
        <mxCell id="20" value="后端 (Rust)" style="swimlane;whiteSpace=wrap;html=1;fillColor=#ffe6cc;strokeColor=#d79b00;" parent="1" vertex="1">
          <mxGeometry x="430" y="240" width="280" height="260" as="geometry" />
        </mxCell>
        <mxCell id="21" value="API层" style="rounded=1;whiteSpace=wrap;html=1;fillColor=#fff2cc;strokeColor=#d6b656;" parent="20" vertex="1">
          <mxGeometry x="20" y="40" width="240" height="30" as="geometry" />
        </mxCell>
        <mxCell id="22" value="服务层" style="rounded=1;whiteSpace=wrap;html=1;fillColor=#fff2cc;strokeColor=#d6b656;" parent="20" vertex="1">
          <mxGeometry x="20" y="80" width="240" height="30" as="geometry" />
        </mxCell>
        <mxCell id="23" value="插件系统" style="swimlane;whiteSpace=wrap;html=1;fillColor=#fff2cc;strokeColor=#d6b656;" parent="20" vertex="1">
          <mxGeometry x="20" y="120" width="240" height="70" as="geometry" />
        </mxCell>
        <mxCell id="24" value="PLC插件" style="rounded=1;whiteSpace=wrap;html=1;" parent="23" vertex="1">
          <mxGeometry x="10" y="30" width="70" height="20" as="geometry" />
        </mxCell>
        <mxCell id="25" value="HMI插件" style="rounded=1;whiteSpace=wrap;html=1;" parent="23" vertex="1">
          <mxGeometry x="90" y="30" width="70" height="20" as="geometry" />
        </mxCell>
        <mxCell id="26" value="&lt;font style=&quot;font-size: 11px;&quot;&gt;数据源插件&lt;/font&gt;" style="rounded=1;whiteSpace=wrap;html=1;" parent="23" vertex="1">
          <mxGeometry x="170" y="30" width="60" height="20" as="geometry" />
        </mxCell>
        <mxCell id="27" value="数据访问层" style="rounded=1;whiteSpace=wrap;html=1;fillColor=#fff2cc;strokeColor=#d6b656;" parent="20" vertex="1">
          <mxGeometry x="20" y="195" width="240" height="30" as="geometry" />
        </mxCell>
        <mxCell id="28" value="工具函数" style="rounded=1;whiteSpace=wrap;html=1;fillColor=#fff2cc;strokeColor=#d6b656;" parent="20" vertex="1">
          <mxGeometry x="20" y="230" width="240" height="20" as="geometry" />
        </mxCell>
        <mxCell id="30" value="数据库 &amp; 缓存" style="swimlane;whiteSpace=wrap;html=1;fillColor=#f8cecc;strokeColor=#b85450;" parent="1" vertex="1">
          <mxGeometry x="90" y="530" width="620" height="110" as="geometry" />
        </mxCell>
        <mxCell id="31" value="PostgreSQL" style="shape=cylinder3;whiteSpace=wrap;html=1;boundedLbl=1;backgroundOutline=1;size=15;fillColor=#e1d5e7;strokeColor=#9673a6;" parent="30" vertex="1">
          <mxGeometry x="40" y="40" width="100" height="60" as="geometry" />
        </mxCell>
        <mxCell id="32" value="Redis" style="shape=cylinder3;whiteSpace=wrap;html=1;boundedLbl=1;backgroundOutline=1;size=15;fillColor=#e1d5e7;strokeColor=#9673a6;" parent="30" vertex="1">
          <mxGeometry x="180" y="40" width="100" height="60" as="geometry" />
        </mxCell>
        <mxCell id="33" value="文件存储" style="shape=cylinder3;whiteSpace=wrap;html=1;boundedLbl=1;backgroundOutline=1;size=15;fillColor=#e1d5e7;strokeColor=#9673a6;" parent="30" vertex="1">
          <mxGeometry x="320" y="40" width="100" height="60" as="geometry" />
        </mxCell>
        <mxCell id="34" value="配置文件" style="shape=document;whiteSpace=wrap;html=1;boundedLbl=1;fillColor=#e1d5e7;strokeColor=#9673a6;" parent="30" vertex="1">
          <mxGeometry x="460" y="40" width="100" height="60" as="geometry" />
        </mxCell>
        <mxCell id="40" value="" style="endArrow=classic;startArrow=classic;html=1;rounded=0;entryX=0;entryY=0.5;entryDx=0;entryDy=0;" parent="1" source="3" target="10" edge="1">
          <mxGeometry width="50" height="50" relative="1" as="geometry">
            <mxPoint x="130" y="230" as="sourcePoint" />
            <mxPoint x="180" y="180" as="targetPoint" />
            <Array as="points">
              <mxPoint x="90" y="160" />
              <mxPoint x="60" y="200" />
              <mxPoint x="60" y="370" />
            </Array>
          </mxGeometry>
        </mxCell>
        <mxCell id="41" value="" style="endArrow=classic;startArrow=classic;html=1;rounded=0;exitX=1;exitY=0.5;exitDx=0;exitDy=0;entryX=0;entryY=0.5;entryDx=0;entryDy=0;" parent="1" source="10" target="20" edge="1">
          <mxGeometry width="50" height="50" relative="1" as="geometry">
            <mxPoint x="380" y="440" as="sourcePoint" />
            <mxPoint x="430" y="390" as="targetPoint" />
          </mxGeometry>
        </mxCell>
        <mxCell id="42" value="RESTful API" style="edgeLabel;html=1;align=center;verticalAlign=middle;resizable=0;points=[];" parent="41" vertex="1" connectable="0">
          <mxGeometry x="0.0333" y="1" relative="1" as="geometry">
            <mxPoint as="offset" />
          </mxGeometry>
        </mxCell>
        <mxCell id="43" value="" style="endArrow=classic;startArrow=classic;html=1;rounded=0;exitX=0.5;exitY=1;exitDx=0;exitDy=0;entryX=0.25;entryY=0;entryDx=0;entryDy=0;" parent="1" source="10" target="30" edge="1">
          <mxGeometry width="50" height="50" relative="1" as="geometry">
            <mxPoint x="380" y="440" as="sourcePoint" />
            <mxPoint x="430" y="390" as="targetPoint" />
          </mxGeometry>
        </mxCell>
        <mxCell id="44" value="" style="endArrow=classic;startArrow=classic;html=1;rounded=0;exitX=0.5;exitY=1;exitDx=0;exitDy=0;entryX=0.75;entryY=0;entryDx=0;entryDy=0;" parent="1" source="20" target="30" edge="1">
          <mxGeometry width="50" height="50" relative="1" as="geometry">
            <mxPoint x="380" y="440" as="sourcePoint" />
            <mxPoint x="430" y="390" as="targetPoint" />
          </mxGeometry>
        </mxCell>
        <mxCell id="45" value="" style="endArrow=classic;startArrow=classic;html=1;rounded=0;entryX=0.55;entryY=0.95;entryDx=0;entryDy=0;entryPerimeter=0;exitX=0.75;exitY=0;exitDx=0;exitDy=0;" parent="1" source="20" target="4" edge="1">
          <mxGeometry width="50" height="50" relative="1" as="geometry">
            <mxPoint x="380" y="440" as="sourcePoint" />
            <mxPoint x="430" y="390" as="targetPoint" />
          </mxGeometry>
        </mxCell>
        <mxCell id="46" value="" style="endArrow=classic;startArrow=classic;html=1;rounded=0;entryX=0.5;entryY=1;entryDx=0;entryDy=0;entryPerimeter=0;exitX=0.5;exitY=0;exitDx=0;exitDy=0;" parent="1" source="20" target="5" edge="1">
          <mxGeometry width="50" height="50" relative="1" as="geometry">
            <mxPoint x="380" y="440" as="sourcePoint" />
            <mxPoint x="430" y="390" as="targetPoint" />
          </mxGeometry>
        </mxCell>
        <mxCell id="50" value="插件系统架构" style="text;html=1;strokeColor=none;fillColor=none;align=center;verticalAlign=middle;whiteSpace=wrap;rounded=0;fontSize=16;fontStyle=1" parent="1" vertex="1">
          <mxGeometry x="320" y="670" width="160" height="30" as="geometry" />
        </mxCell>
        <mxCell id="51" value="PLC插件系统" style="swimlane;whiteSpace=wrap;html=1;fillColor=#ffe6cc;strokeColor=#d79b00;" parent="1" vertex="1">
          <mxGeometry x="90" y="710" width="190" height="180" as="geometry" />
        </mxCell>
        <mxCell id="52" value="PlcPlugin接口" style="rounded=1;whiteSpace=wrap;html=1;fillColor=#fff2cc;strokeColor=#d6b656;" parent="51" vertex="1">
          <mxGeometry x="20" y="30" width="150" height="30" as="geometry" />
        </mxCell>
        <mxCell id="53" value="和利时PLC插件" style="rounded=1;whiteSpace=wrap;html=1;" parent="51" vertex="1">
          <mxGeometry x="20" y="70" width="150" height="30" as="geometry" />
        </mxCell>
        <mxCell id="54" value="西门子PLC插件" style="rounded=1;whiteSpace=wrap;html=1;" parent="51" vertex="1">
          <mxGeometry x="20" y="110" width="150" height="30" as="geometry" />
        </mxCell>
        <mxCell id="55" value="AB PLC插件" style="rounded=1;whiteSpace=wrap;html=1;" parent="51" vertex="1">
          <mxGeometry x="20" y="150" width="150" height="20" as="geometry" />
        </mxCell>
        <mxCell id="56" value="HMI插件系统" style="swimlane;whiteSpace=wrap;html=1;fillColor=#ffe6cc;strokeColor=#d79b00;" parent="1" vertex="1">
          <mxGeometry x="300" y="710" width="190" height="180" as="geometry" />
        </mxCell>
        <mxCell id="57" value="HmiPlugin接口" style="rounded=1;whiteSpace=wrap;html=1;fillColor=#fff2cc;strokeColor=#d6b656;" parent="56" vertex="1">
          <mxGeometry x="20" y="30" width="150" height="30" as="geometry" />
        </mxCell>
        <mxCell id="58" value="亚控HMI插件" style="rounded=1;whiteSpace=wrap;html=1;" parent="56" vertex="1">
          <mxGeometry x="20" y="70" width="150" height="30" as="geometry" />
        </mxCell>
        <mxCell id="59" value="力控HMI插件" style="rounded=1;whiteSpace=wrap;html=1;" parent="56" vertex="1">
          <mxGeometry x="20" y="110" width="150" height="30" as="geometry" />
        </mxCell>
        <mxCell id="60" value="其他HMI插件" style="rounded=1;whiteSpace=wrap;html=1;dashed=1;" parent="56" vertex="1">
          <mxGeometry x="20" y="150" width="150" height="20" as="geometry" />
        </mxCell>
        <mxCell id="61" value="数据源插件系统" style="swimlane;whiteSpace=wrap;html=1;fillColor=#ffe6cc;strokeColor=#d79b00;" parent="1" vertex="1">
          <mxGeometry x="510" y="710" width="190" height="180" as="geometry" />
        </mxCell>
        <mxCell id="62" value="DataSourcePlugin接口" style="rounded=1;whiteSpace=wrap;html=1;fillColor=#fff2cc;strokeColor=#d6b656;" parent="61" vertex="1">
          <mxGeometry x="20" y="30" width="150" height="30" as="geometry" />
        </mxCell>
        <mxCell id="63" value="简道云数据源插件" style="rounded=1;whiteSpace=wrap;html=1;" parent="61" vertex="1">
          <mxGeometry x="20" y="70" width="150" height="30" as="geometry" />
        </mxCell>
        <mxCell id="64" value="AI解析器插件" style="rounded=1;whiteSpace=wrap;html=1;" parent="61" vertex="1">
          <mxGeometry x="20" y="110" width="150" height="30" as="geometry" />
        </mxCell>
        <mxCell id="65" value="自定义API插件" style="rounded=1;whiteSpace=wrap;html=1;" parent="61" vertex="1">
          <mxGeometry x="20" y="150" width="150" height="20" as="geometry" />
        </mxCell>
        <mxCell id="70" value="数据流图" style="text;html=1;strokeColor=none;fillColor=none;align=center;verticalAlign=middle;whiteSpace=wrap;rounded=0;fontSize=16;fontStyle=1" parent="1" vertex="1">
          <mxGeometry x="320" y="920" width="160" height="30" as="geometry" />
        </mxCell>
        <mxCell id="71" value="数据源" style="rounded=0;whiteSpace=wrap;html=1;fillColor=#dae8fc;strokeColor=#6c8ebf;" parent="1" vertex="1">
          <mxGeometry x="90" y="970" width="120" height="60" as="geometry" />
        </mxCell>
        <mxCell id="72" value="数据加载与处理" style="rounded=0;whiteSpace=wrap;html=1;fillColor=#d5e8d4;strokeColor=#82b366;" parent="1" vertex="1">
          <mxGeometry x="290" y="970" width="120" height="60" as="geometry" />
        </mxCell>
        <mxCell id="73" value="PLC配置管理" style="rounded=0;whiteSpace=wrap;html=1;fillColor=#ffe6cc;strokeColor=#d79b00;" parent="1" vertex="1">
          <mxGeometry x="490" y="970" width="120" height="60" as="geometry" />
        </mxCell>
        <mxCell id="74" value="第三方设备管理" style="rounded=0;whiteSpace=wrap;html=1;fillColor=#fff2cc;strokeColor=#d6b656;" parent="1" vertex="1">
          <mxGeometry x="90" y="1060" width="120" height="60" as="geometry" />
        </mxCell>
        <mxCell id="75" value="IO点表处理" style="rounded=0;whiteSpace=wrap;html=1;fillColor=#f8cecc;strokeColor=#b85450;" parent="1" vertex="1">
          <mxGeometry x="290" y="1060" width="120" height="60" as="geometry" />
        </mxCell>
        <mxCell id="76" value="点表生成与导出" style="rounded=0;whiteSpace=wrap;html=1;fillColor=#e1d5e7;strokeColor=#9673a6;" parent="1" vertex="1">
          <mxGeometry x="490" y="1060" width="120" height="60" as="geometry" />
        </mxCell>
        <mxCell id="77" value="" style="endArrow=classic;html=1;rounded=0;exitX=1;exitY=0.5;exitDx=0;exitDy=0;entryX=0;entryY=0.5;entryDx=0;entryDy=0;" parent="1" source="71" target="72" edge="1">
          <mxGeometry width="50" height="50" relative="1" as="geometry">
            <mxPoint x="390" y="1030" as="sourcePoint" />
            <mxPoint x="440" y="980" as="targetPoint" />
          </mxGeometry>
        </mxCell>
        <mxCell id="78" value="" style="endArrow=classic;html=1;rounded=0;exitX=0.5;exitY=1;exitDx=0;exitDy=0;entryX=0.5;entryY=0;entryDx=0;entryDy=0;" parent="1" source="72" target="75" edge="1">
          <mxGeometry width="50" height="50" relative="1" as="geometry">
            <mxPoint x="390" y="1030" as="sourcePoint" />
            <mxPoint x="440" y="980" as="targetPoint" />
          </mxGeometry>
        </mxCell>
        <mxCell id="79" value="" style="endArrow=classic;html=1;rounded=0;exitX=1;exitY=0.5;exitDx=0;exitDy=0;entryX=0;entryY=0.5;entryDx=0;entryDy=0;" parent="1" source="72" target="73" edge="1">
          <mxGeometry width="50" height="50" relative="1" as="geometry">
            <mxPoint x="390" y="1030" as="sourcePoint" />
            <mxPoint x="440" y="980" as="targetPoint" />
          </mxGeometry>
        </mxCell>
        <mxCell id="80" value="" style="endArrow=classic;html=1;rounded=0;exitX=0.5;exitY=1;exitDx=0;exitDy=0;entryX=0.5;entryY=0;entryDx=0;entryDy=0;" parent="1" source="73" target="76" edge="1">
          <mxGeometry width="50" height="50" relative="1" as="geometry">
            <mxPoint x="390" y="1030" as="sourcePoint" />
            <mxPoint x="440" y="980" as="targetPoint" />
          </mxGeometry>
        </mxCell>
        <mxCell id="81" value="" style="endArrow=classic;html=1;rounded=0;exitX=0;exitY=0.5;exitDx=0;exitDy=0;entryX=1;entryY=0.5;entryDx=0;entryDy=0;" parent="1" source="75" target="74" edge="1">
          <mxGeometry width="50" height="50" relative="1" as="geometry">
            <mxPoint x="390" y="1030" as="sourcePoint" />
            <mxPoint x="440" y="980" as="targetPoint" />
          </mxGeometry>
        </mxCell>
        <mxCell id="82" value="" style="endArrow=classic;html=1;rounded=0;exitX=1;exitY=0.5;exitDx=0;exitDy=0;entryX=0;entryY=0.5;entryDx=0;entryDy=0;" parent="1" source="75" target="76" edge="1">
          <mxGeometry width="50" height="50" relative="1" as="geometry">
            <mxPoint x="390" y="1030" as="sourcePoint" />
            <mxPoint x="440" y="980" as="targetPoint" />
          </mxGeometry>
        </mxCell>
      </root>
    </mxGraphModel>
  </diagram>
  <diagram id="J2cGiFF_RQFTk422KgUl" name="前端架构">
    <mxGraphModel dx="1182" dy="687" grid="1" gridSize="10" guides="1" tooltips="1" connect="1" arrows="1" fold="1" page="1" pageScale="1" pageWidth="827" pageHeight="1169" math="0" shadow="0">
      <root>
        <mxCell id="0" />
        <mxCell id="1" parent="0" />
        <mxCell id="2" value="Angular前端架构" style="text;html=1;strokeColor=none;fillColor=none;align=center;verticalAlign=middle;whiteSpace=wrap;rounded=0;fontSize=24;fontStyle=1" parent="1" vertex="1">
          <mxGeometry x="270" y="40" width="240" height="30" as="geometry" />
        </mxCell>
        <mxCell id="3" value="Angular应用" style="swimlane;whiteSpace=wrap;html=1;fillColor=#dae8fc;strokeColor=#6c8ebf;" parent="1" vertex="1">
          <mxGeometry x="80" y="90" width="650" height="590" as="geometry" />
        </mxCell>
        <mxCell id="4" value="核心模块 (Core)" style="swimlane;whiteSpace=wrap;html=1;fillColor=#d5e8d4;strokeColor=#82b366;" parent="3" vertex="1">
          <mxGeometry x="20" y="40" width="280" height="150" as="geometry" />
        </mxCell>
        <mxCell id="5" value="认证服务" style="rounded=1;whiteSpace=wrap;html=1;" parent="4" vertex="1">
          <mxGeometry x="20" y="40" width="120" height="30" as="geometry" />
        </mxCell>
        <mxCell id="6" value="HTTP拦截器" style="rounded=1;whiteSpace=wrap;html=1;" parent="4" vertex="1">
          <mxGeometry x="150" y="40" width="120" height="30" as="geometry" />
        </mxCell>
        <mxCell id="7" value="国际化服务" style="rounded=1;whiteSpace=wrap;html=1;" parent="4" vertex="1">
          <mxGeometry x="20" y="80" width="120" height="30" as="geometry" />
        </mxCell>
        <mxCell id="8" value="路由守卫" style="rounded=1;whiteSpace=wrap;html=1;" parent="4" vertex="1">
          <mxGeometry x="150" y="80" width="120" height="30" as="geometry" />
        </mxCell>
        <mxCell id="9" value="API服务" style="rounded=1;whiteSpace=wrap;html=1;" parent="4" vertex="1">
          <mxGeometry x="20" y="110" width="250" height="30" as="geometry" />
        </mxCell>
        <mxCell id="10" value="共享模块 (Shared)" style="swimlane;whiteSpace=wrap;html=1;fillColor=#d5e8d4;strokeColor=#82b366;" parent="3" vertex="1">
          <mxGeometry x="310" y="40" width="320" height="150" as="geometry" />
        </mxCell>
        <mxCell id="11" value="共享组件" style="swimlane;whiteSpace=wrap;html=1;" parent="10" vertex="1">
          <mxGeometry x="10" y="30" width="150" height="110" as="geometry" />
        </mxCell>
        <mxCell id="12" value="穿梭框" style="rounded=1;whiteSpace=wrap;html=1;" parent="11" vertex="1">
          <mxGeometry x="10" y="30" width="130" height="20" as="geometry" />
        </mxCell>
        <mxCell id="13" value="文件上传" style="rounded=1;whiteSpace=wrap;html=1;" parent="11" vertex="1">
          <mxGeometry x="10" y="55" width="130" height="20" as="geometry" />
        </mxCell>
        <mxCell id="14" value="状态栏" style="rounded=1;whiteSpace=wrap;html=1;" parent="11" vertex="1">
          <mxGeometry x="10" y="80" width="130" height="20" as="geometry" />
        </mxCell>
        <mxCell id="15" value="共享管道 &amp; 指令" style="swimlane;whiteSpace=wrap;html=1;" parent="10" vertex="1">
          <mxGeometry x="170" y="30" width="140" height="60" as="geometry" />
        </mxCell>
        <mxCell id="16" value="格式化管道" style="rounded=1;whiteSpace=wrap;html=1;" parent="15" vertex="1">
          <mxGeometry x="10" y="30" width="120" height="20" as="geometry" />
        </mxCell>
        <mxCell id="17" value="共享模型" style="swimlane;whiteSpace=wrap;html=1;" parent="10" vertex="1">
          <mxGeometry x="170" y="90" width="140" height="50" as="geometry" />
        </mxCell>
        <mxCell id="18" value="数据接口定义" style="rounded=1;whiteSpace=wrap;html=1;" parent="17" vertex="1">
          <mxGeometry x="10" y="26" width="120" height="20" as="geometry" />
        </mxCell>
        <mxCell id="19" value="功能模块 (Features)" style="swimlane;whiteSpace=wrap;html=1;fillColor=#fff2cc;strokeColor=#d6b656;" parent="3" vertex="1">
          <mxGeometry x="20" y="200" width="610" height="300" as="geometry" />
        </mxCell>
        <mxCell id="20" value="管理模块" style="swimlane;whiteSpace=wrap;html=1;" parent="19" vertex="1">
          <mxGeometry x="10" y="30" width="130" height="110" as="geometry" />
        </mxCell>
        <mxCell id="21" value="用户管理" style="rounded=1;whiteSpace=wrap;html=1;" parent="20" vertex="1">
          <mxGeometry x="10" y="30" width="110" height="30" as="geometry" />
        </mxCell>
        <mxCell id="22" value="角色管理" style="rounded=1;whiteSpace=wrap;html=1;" parent="20" vertex="1">
          <mxGeometry x="10" y="70" width="110" height="30" as="geometry" />
        </mxCell>
        <mxCell id="23" value="项目管理模块" style="swimlane;whiteSpace=wrap;html=1;" parent="19" vertex="1">
          <mxGeometry x="150" y="30" width="130" height="110" as="geometry" />
        </mxCell>
        <mxCell id="24" value="项目列表" style="rounded=1;whiteSpace=wrap;html=1;" parent="23" vertex="1">
          <mxGeometry x="10" y="30" width="110" height="30" as="geometry" />
        </mxCell>
        <mxCell id="25" value="项目详情" style="rounded=1;whiteSpace=wrap;html=1;" parent="23" vertex="1">
          <mxGeometry x="10" y="70" width="110" height="30" as="geometry" />
        </mxCell>
        <mxCell id="26" value="场站管理模块" style="swimlane;whiteSpace=wrap;html=1;" parent="19" vertex="1">
          <mxGeometry x="290" y="30" width="130" height="110" as="geometry" />
        </mxCell>
        <mxCell id="27" value="场站列表" style="rounded=1;whiteSpace=wrap;html=1;" parent="26" vertex="1">
          <mxGeometry x="10" y="30" width="110" height="30" as="geometry" />
        </mxCell>
        <mxCell id="28" value="场站详情" style="rounded=1;whiteSpace=wrap;html=1;" parent="26" vertex="1">
          <mxGeometry x="10" y="70" width="110" height="30" as="geometry" />
        </mxCell>
        <mxCell id="29" value="设备管理模块" style="swimlane;whiteSpace=wrap;html=1;" parent="19" vertex="1">
          <mxGeometry x="430" y="30" width="130" height="110" as="geometry" />
        </mxCell>
        <mxCell id="30" value="设备列表" style="rounded=1;whiteSpace=wrap;html=1;" parent="29" vertex="1">
          <mxGeometry x="10" y="30" width="110" height="30" as="geometry" />
        </mxCell>
        <mxCell id="31" value="设备详情" style="rounded=1;whiteSpace=wrap;html=1;" parent="29" vertex="1">
          <mxGeometry x="10" y="70" width="110" height="30" as="geometry" />
        </mxCell>
        <mxCell id="32" value="PLC配置模块" style="swimlane;whiteSpace=wrap;html=1;" parent="19" vertex="1">
          <mxGeometry x="10" y="150" width="190" height="140" as="geometry" />
        </mxCell>
        <mxCell id="33" value="模块选择" style="rounded=1;whiteSpace=wrap;html=1;" parent="32" vertex="1">
          <mxGeometry x="10" y="30" width="80" height="30" as="geometry" />
        </mxCell>
        <mxCell id="34" value="机架配置" style="rounded=1;whiteSpace=wrap;html=1;" parent="32" vertex="1">
          <mxGeometry x="100" y="30" width="80" height="30" as="geometry" />
        </mxCell>
        <mxCell id="35" value="IO通道映射" style="rounded=1;whiteSpace=wrap;html=1;" parent="32" vertex="1">
          <mxGeometry x="10" y="70" width="80" height="30" as="geometry" />
        </mxCell>
        <mxCell id="36" value="配置验证" style="rounded=1;whiteSpace=wrap;html=1;" parent="32" vertex="1">
          <mxGeometry x="100" y="70" width="80" height="30" as="geometry" />
        </mxCell>
        <mxCell id="37" value="配置管理" style="rounded=1;whiteSpace=wrap;html=1;" parent="32" vertex="1">
          <mxGeometry x="55" y="110" width="80" height="20" as="geometry" />
        </mxCell>
        <mxCell id="38" value="第三方设备模块" style="swimlane;whiteSpace=wrap;html=1;" parent="19" vertex="1">
          <mxGeometry x="210" y="150" width="190" height="140" as="geometry" />
        </mxCell>
        <mxCell id="39" value="模板管理" style="rounded=1;whiteSpace=wrap;html=1;" parent="38" vertex="1">
          <mxGeometry x="10" y="30" width="170" height="30" as="geometry" />
        </mxCell>
        <mxCell id="40" value="设备实例配置" style="rounded=1;whiteSpace=wrap;html=1;" parent="38" vertex="1">
          <mxGeometry x="10" y="70" width="170" height="30" as="geometry" />
        </mxCell>
        <mxCell id="41" value="点位属性配置" style="rounded=1;whiteSpace=wrap;html=1;" parent="38" vertex="1">
          <mxGeometry x="10" y="110" width="170" height="20" as="geometry" />
        </mxCell>
        <mxCell id="42" value="IO点表处理模块" style="swimlane;whiteSpace=wrap;html=1;" parent="19" vertex="1">
          <mxGeometry x="410" y="150" width="190" height="140" as="geometry" />
        </mxCell>
        <mxCell id="43" value="上传处理" style="rounded=1;whiteSpace=wrap;html=1;" parent="42" vertex="1">
          <mxGeometry x="10" y="30" width="80" height="30" as="geometry" />
        </mxCell>
        <mxCell id="44" value="验证处理" style="rounded=1;whiteSpace=wrap;html=1;" parent="42" vertex="1">
          <mxGeometry x="100" y="30" width="80" height="30" as="geometry" />
        </mxCell>
        <mxCell id="45" value="点表生成" style="swimlane;whiteSpace=wrap;html=1;" parent="42" vertex="1">
          <mxGeometry x="10" y="70" width="170" height="60" as="geometry" />
        </mxCell>
        <mxCell id="46" value="PLC" style="rounded=1;whiteSpace=wrap;html=1;" parent="45" vertex="1">
          <mxGeometry x="10" y="30" width="40" height="20" as="geometry" />
        </mxCell>
        <mxCell id="47" value="HMI" style="rounded=1;whiteSpace=wrap;html=1;" parent="45" vertex="1">
          <mxGeometry x="60" y="30" width="40" height="20" as="geometry" />
        </mxCell>
        <mxCell id="48" value="其他" style="rounded=1;whiteSpace=wrap;html=1;" parent="45" vertex="1">
          <mxGeometry x="110" y="30" width="50" height="20" as="geometry" />
        </mxCell>
        <mxCell id="49" value="布局组件 (Layouts)" style="swimlane;whiteSpace=wrap;html=1;fillColor=#f8cecc;strokeColor=#b85450;" parent="3" vertex="1">
          <mxGeometry x="20" y="510" width="610" height="70" as="geometry" />
        </mxCell>
        <mxCell id="50" value="主布局" style="rounded=1;whiteSpace=wrap;html=1;" parent="49" vertex="1">
          <mxGeometry x="74" y="34" width="80" height="20" as="geometry" />
        </mxCell>
        <mxCell id="51" value="页头" style="rounded=1;whiteSpace=wrap;html=1;" parent="49" vertex="1">
          <mxGeometry x="164" y="34" width="80" height="20" as="geometry" />
        </mxCell>
        <mxCell id="52" value="侧边栏" style="rounded=1;whiteSpace=wrap;html=1;" parent="49" vertex="1">
          <mxGeometry x="254" y="34" width="80" height="20" as="geometry" />
        </mxCell>
        <mxCell id="53" value="页脚" style="rounded=1;whiteSpace=wrap;html=1;" parent="49" vertex="1">
          <mxGeometry x="344" y="34" width="80" height="20" as="geometry" />
        </mxCell>
        <mxCell id="54" value="语言选择器" style="rounded=1;whiteSpace=wrap;html=1;" parent="49" vertex="1">
          <mxGeometry x="434" y="34" width="80" height="20" as="geometry" />
        </mxCell>
        <mxCell id="55" value="状态管理 (NgRx)" style="swimlane;whiteSpace=wrap;html=1;fillColor=#e1d5e7;strokeColor=#9673a6;" parent="1" vertex="1">
          <mxGeometry x="200" y="707" width="400" height="140" as="geometry" />
        </mxCell>
        <mxCell id="56" value="Actions" style="rounded=1;whiteSpace=wrap;html=1;" parent="55" vertex="1">
          <mxGeometry x="20" y="40" width="80" height="30" as="geometry" />
        </mxCell>
        <mxCell id="57" value="Reducers" style="rounded=1;whiteSpace=wrap;html=1;" parent="55" vertex="1">
          <mxGeometry x="110" y="40" width="80" height="30" as="geometry" />
        </mxCell>
        <mxCell id="58" value="Selectors" style="rounded=1;whiteSpace=wrap;html=1;" parent="55" vertex="1">
          <mxGeometry x="200" y="40" width="80" height="30" as="geometry" />
        </mxCell>
        <mxCell id="59" value="Effects" style="rounded=1;whiteSpace=wrap;html=1;" parent="55" vertex="1">
          <mxGeometry x="290" y="40" width="80" height="30" as="geometry" />
        </mxCell>
        <mxCell id="60" value="Store" style="rounded=1;whiteSpace=wrap;html=1;fillColor=#d5e8d4;strokeColor=#82b366;" parent="55" vertex="1">
          <mxGeometry x="20" y="90" width="350" height="30" as="geometry" />
        </mxCell>
        <mxCell id="61" value="前端服务架构" style="swimlane;whiteSpace=wrap;html=1;fillColor=#ffe6cc;strokeColor=#d79b00;" parent="1" vertex="1">
          <mxGeometry x="200" y="867" width="400" height="180" as="geometry" />
        </mxCell>
        <mxCell id="62" value="HTTP服务" style="rounded=1;whiteSpace=wrap;html=1;" parent="61" vertex="1">
          <mxGeometry x="20" y="40" width="170" height="30" as="geometry" />
        </mxCell>
        <mxCell id="63" value="认证服务" style="rounded=1;whiteSpace=wrap;html=1;" parent="61" vertex="1">
          <mxGeometry x="200" y="40" width="170" height="30" as="geometry" />
        </mxCell>
        <mxCell id="64" value="项目服务" style="rounded=1;whiteSpace=wrap;html=1;" parent="61" vertex="1">
          <mxGeometry x="20" y="80" width="80" height="30" as="geometry" />
        </mxCell>
        <mxCell id="65" value="设备服务" style="rounded=1;whiteSpace=wrap;html=1;" parent="61" vertex="1">
          <mxGeometry x="110" y="80" width="80" height="30" as="geometry" />
        </mxCell>
        <mxCell id="66" value="PLC配置服务" style="rounded=1;whiteSpace=wrap;html=1;" parent="61" vertex="1">
          <mxGeometry x="200" y="80" width="80" height="30" as="geometry" />
        </mxCell>
        <mxCell id="67" value="第三方设备服务" style="rounded=1;whiteSpace=wrap;html=1;" parent="61" vertex="1">
          <mxGeometry x="290" y="80" width="80" height="30" as="geometry" />
        </mxCell>
        <mxCell id="68" value="IO点表服务" style="rounded=1;whiteSpace=wrap;html=1;" parent="61" vertex="1">
          <mxGeometry x="20" y="120" width="80" height="30" as="geometry" />
        </mxCell>
        <mxCell id="69" value="文件服务" style="rounded=1;whiteSpace=wrap;html=1;" parent="61" vertex="1">
          <mxGeometry x="110" y="120" width="80" height="30" as="geometry" />
        </mxCell>
        <mxCell id="70" value="国际化服务" style="rounded=1;whiteSpace=wrap;html=1;" parent="61" vertex="1">
          <mxGeometry x="200" y="120" width="80" height="30" as="geometry" />
        </mxCell>
        <mxCell id="71" value="通知服务" style="rounded=1;whiteSpace=wrap;html=1;" parent="61" vertex="1">
          <mxGeometry x="290" y="120" width="80" height="30" as="geometry" />
        </mxCell>
        <mxCell id="fxyB1T5OMlwtAJBfFUpX-71" value="" style="shape=image;verticalLabelPosition=bottom;labelBackgroundColor=default;verticalAlign=top;aspect=fixed;imageAspect=0;image=data:image/png,iVBORw0KGgoAAAANSUhEUgAAA3wAAAEyCAIAAAAuu0VAAAAgAElEQVR4Aey934db2xs//vmf9lUuhmEYSudq4ktDadRxopxQGuVEL96jjJSKoTEXlTLi0ChH5uLIUHMYUkZ6MVJKSqWUfVE2w2Y+bML+fp7nWb/32vkxnTknM+cZ1ewfa6+91mutvdZrPb/W/0n5jxFgBBgBRoARYAQYAUaAEbhmBP7PNefP2TMCjAAjwAgwAowAI8AIMAIpk07uBIwAI8AIMAKMACPACDAC144Ak85rh5hfwAgwAowAI8AIMAKMACPApJP7ACPACDACjAAjwAgwAozAtSPApPPaIeYXMAKMACPACDACjAAjwAgw6eQ+wAgwAowAI8AIMAKMACNw7Qgw6bx2iPkFjAAjwAgwAowAI8AIMAJMOrkPMAKMACPACDACjAAjwAhcOwJMOq8dYn4BI8AIMAKMACPACDACjACTTu4DjAAjwAgwAowAI8AIMALXjgCTzmuHmF/ACDACjAAjwAgwAowAI8Ckk/sAI8AIMAKMACPACDACjMC1I8Ck89oh5hcwAowAI8AIMAKMACPACDDp5D7ACDACjAAjwAgwAowAI3DtCDDpvHaI+QWMACPACDACjAAjwAgwAkw6uQ8wAowAI8AIMAKMACPACFw7Akw6rx1ifgEjwAgwAowAI8AIMAKMAJNO7gOMwGURSOL4PE6ml33cee6q8nGy5VNGgBFgBBgBRmA1EGDSuRrtcJNKEfV+C4Kg2vuxQKHjQeNJo/shTFTaL53yvVLt7VhfUbeu6yDsPa42D0eR8cro/U7pfmnnfSTeeSnCFx1WgyBonv1suZMfw/aj9eLeyCjgz+b5M8+P9oLl6pVF70t7a6NYejmIdTmS8dEgzKbUCfKPzppQoL1RfgrPndHrUm23Ozr33EpOm6VH9ebfoefeApew3Rfr/2ZuX3uN/d7we04jR8c790ulg+XqaGbPx4wAI8AIrD4CTDpXv41WrYREOhuDnNnTLG78vh4Ewdbrsbo4eVsKgqD+3mAj6t41HXzrwit/60mCCa8hvlg9xGvTsPd4vfS8vywluirSmV6MmttBEBQaHxbANE3js25rv3WJf92zhWBflnSO32wFG8XWR1140e5vdLvHHxrrQRBsVDqf5pXhS6f2rNU7M9YIlyCdybCxFgRrjaEulO5eo71CEAQz0E7OQYad92/8thIEle6X3ATwYOy+GFAKAtHlqCwmBf/RgxXMksRaV4mPGAFGgBG4CQgw6bziVgr/qm/CbLdZ/+uScpQrLtAS2Y1QoARCpeyfMVkS6WwuIJOJj38Hztn+rAoxbsPMWz+eRzzUAz9/MH4Nr6wdWa90SGf/f0UgffdaQytVmn4/nsHtGo8h5/KzGfyvO3IyzKlP8qkFJbjXmeQkMC9T4bNtNPeK0Yhmfu7xcqRzSm1qLUKIYDlLi+hDs7QGMJdeDiKTb9nv97TX8qQzOW0U7NWOfslMPorJZn0Ic0EWCexFTpoSSrW+kryGvUpQ2Hx+LNZCTDp1C/ERI8AI3FoE/huk87xfM+aKwjWKE2hqwZdttbWcZ1X7T3LWLAZB9U/ix6PO/VIp55/WRKcLk06C3cThM3LOZ/0wX4xE4qVkmsbv64WgUD38Oe5ODGOr6aiuLdKZpuk0Hu6XQPy1Uet9N1qL6I7ReZY8NJWw0fHzXHhL94vrQbC+nZvAwF+IaRsnGUnbl24lCIJfu+MsvCcNV8xm1NI5XIp0Er0rvDBFirTYKHW/ORmnaTRo3gOYS29y7CvOj+tZCeXSpDPuP4XlQNdsSlkWKnCwexxlUTon8WQ8OR0O8//1X5aCoNQ8mpVm+MkwKUnTlHr+075ag5AwuPRWrjKYdMoG4l9GgBG4xQj8J0hnfGRyzlyl2+LNHB7WgJwpKYV+kmY7ZCbGBKPvr9QRTfAPupN8sZOvvIuSToK9/E6xxvj4dyAcC/wRV6P0ZQ938RXLe43IpVEGkSr5kCVhyfhNuRAEhad9rYifJnk61vg8RjVr4CF/Bpsx3IwItwVq70tiCimpUh5bUiIurowNq4y8zczECxddXIZ0Snpn8ctRCySazaG3X03D3utcS4bJ27JjjwFFWpx0zlgkiKWm8YV6cLbl9zmtP0u9ntGqE6QkvjUU+slgF5UAX2Q7MOmUSPAvI8AI3GIE/gukU032hQLMhWg8d+paXC3TxlKc6Z3dL8IRyEjGMxSIy7zr+tImo70tsCNcEIoZ07mcvG0aFHYfgFpb6xO/dYFQbNea+63WM+QWjxs5ymuplcZHCr9fVhufjJqoWtdlUHD6ecxyzi655E+9xTqgfmjKPq3bi5/kvncZ0jk6yJWqFjegRRcSu0Z9sETcrDRMG9MXVUB9q2pdNBOYx+8MA4SLARhiXuJP6S6wWbecfkXloTTfsRM+qGc6Xh16ZGCTTsJzqfJ4x4SsQj8ZwKInqHWUPPWoCZbHTzuOhHWi1PGL9w9OyQgwAozAqiLwHyCdNM3AEN/ovoUpEv52F3GDyWk00pRlfFNyUq/qZdJ9P+gqOeScgn7qKM07GK0G60VTEX8HRJgm6RRKTD2Lk9hSclwkBwsI3kguVWwrgdCcUlq3iZy5TIKSfGpBiRVZoYsXcXweTc6Gw9P+SGpmZ3jtzLPplNRZFGoe6fTKBa0KyYzyvOaXIp3gol7YvOehnrNIJza0brhL0DLxBcofzdKS0T7YtXrI7jb4IAUbRdUD3QPl9O3tV1RIaOtk+AJk2b6FFtlxekhn5e3YkXbnSDrH3V9dfzVqMKFp0TUF0xFZ/zm/5jfl6wt8jRFgBBiBm4TAKpLOV69e3b17NwiCu3fvvnr16ifhDN+hCCMIgt+PY01A831Zfgy7u7USzXNBULhTqoAvbUh60ui0XUE5kDNXyGlYSVV90880Gr5r1O5tCh3zRrHyrDP4pqy8REVJuRkEaBI3jYYH9YoozHrxUb1zqnW/4oFpPD5q1R+VkAsSHazU93vDTM4mkgSLLLZ5Z+4x1dGanjOyN6XEFMmSjyhzVPOulxz43kx6cNP/PT0/3tkA48v+7JhNWmxmFTWJ4/g8HJNg6UG9tYuWEsilzDZVyEjmat5c8NgRas4gnZPuo82CafxKUHztNw887UhFqv2RsSmkSt1v9pX8TB38ARYmqlJpmmI3c0ooGmCGep1ebeaTabSM4jiTwn/hSxso51pjcJG5j73FXSFkUsEFb79SpJNk7f6FVi7pzFYWQchCh+2rergqnnC0MgcEYZPQ+WxY5ZI97ouBQ3AN8wyVIx8wAowAI3BTEVg50vnLL784U/ovv/zyE+hOuvdFfuhLq08dd2Z8RTJ5V0OhilOEIMCJKvpLCkoz9+XMlE86v/dqPrYaBIWy7VQhSWdQ/XPYe5w1grR9ayDcTzYNli8nXgzWlMppunrMcZ4Yng6lpo+sCywmR1xESWWSM6SYUApMloxaEBLIEFh6yYG3mUkRaRIyoiBBUP0rw791DkJshkBAGUYHJRLgZZpOCfxqoA4+6A1Oh8PPYY5tnn6Birukam3d85xo0hmdtmrbJcOpn4ia2RzwPIWX2jICD1GuhLavInOuyV4K2VwX6VTttbDgFkojg0Y5Du9U32VtOs1qQg6CdPaPn60HwVbzzGtak0s652Dq3M6QTvSHw0TqVsapyCjkAjEhBCj8wwgwAozAzUNgtUjnq1evnDGcTi8v7/yC7tKQi5BM0EQOFzKOPskHCLOi/zaKJSkAI08U0rTWwVQR/wyrNRkBMYd0XgwVC4Mn1zaVJBUzsnikIp30EtKB2oRJG0oaerrC5sN6c7/VeCJEnpZ00OmZ8THGzzT96+eHiZHsyjM9j/ZBa9n6hK+ZTtCakyxogfCFh+BUvfXScHBG4lh62Xcs2PB0ZPv9Zvjxj34VHJwrlpu5U0ESm20XQXiGxDf8swr2AI8Aota7/vC0C17SQcPv7OLklnPqUO2cVOqyJp3ZgD6Ulc2WyAe8IGFX+VyN9/o1kc5s1XS5847kwinXeJeWGY4thDc372JGSTqn8fhskkzDwVHWd97Tq4mt/pR6nayK1wowsAjSaduZqFqoQqorfMAIMAKMwK1DYLVIJ2nVJdnSv3fv3r0c8uQ0ChkpMUOGhsqcyfEFX7pW7X6RWu8kmpz0zX1NNClUecosUhFOCDMx7moVf7DV+FvK5+JxVwkpDamkzj8ICo+7YyrINB7uIYPCvJUb7ORAXTSchadJeNYfzdA+k0Wj5aBjSDr/biFJbPSUchYPpKQTp2ejdo7YjEQ7hd1uBzYuQknnNB4edEam2lRKK7E2zn+u4hIZrR3KO8nG3tZtkArB6lbz4wAjj2IZjPt4qCmge0efh8emy0vmeJ5NJ8bv1I4yxhuVOFC9i7qlaWosfE2s+JeUPJfsEnGxm0a8IcPGrod0ksjWaVDvqdHKtIrYblo9RCEjleZXoF6HPJPR3nrgCcWV6dVg4Ov/l2PTKRKbCnFyxi+/7UI/pHaJMCZUNmQEk06zxfmYEWAEbikCq0U6vbMTXbwM/sqaKgh0PDwRpRlytSLp0L41+DLreubFmhR6ZnciFpiLvqt1+pr7UrbKJ8nYH0Xnb4VVT1OIJi3+lEjM1PivP2pnLUQzxYcLJB8t7Pt1eSSsygWBHJYfG3GFTF1tfLwDYsj68TlB4SV8wvYuK0Oiad6ctpUWuyKCiXorZF2M/94BXT7sKukTX8m0xGWzckR5H7j0jGj5sinm/epuYJDOVIbNVw5SRDHXWrpJzpogHrMWBqJoq0s6yTsNBXubj/JCE5CfuGVUnZz1jmd4tC0p6Zzlva5V+UVbz+6STuMznNfE9n3do4hHbrdGiZ15NOhnVfxMOo0Pjw8ZAUbgtiKwWqTziiWdNG3DlGBZy2nxp+lSoGVvUk2c0+Z6NtJ8QiX1kk7NXVyeJ6RZWEQZJlrnH9hSLiOxIp0pxdo0pr3CHdxnfKZFnU+Zq6pAXg5ag69uiAOSydm6Tiwzya7C7gOyFphPOnUt3HdY5+RLtJCgi55Lho17JDYj5P3El/j64lzWKlPYAxX/xvq6s3SxEjknJukUKnJjLRT2fg2CoNKT3Mu7qQ/lmEuXl5Z0+vdyHLyA/uSNP0qhSfMabvwG5O7VwyHYV5gfl4EELWnsYPLidm4Upzne6x2TqRufgn1o9ljhtFRVaIsFhvlFX0LSiRH4NekEV7atJuwOapNOAw19yKRTY8FHjAAjcGsRWC3SeaU2nRQexZ543DNNRkk8hvcNxZ+v3TUpNKcokdJHOiO9H1JmttZ8VJEqnb+ON0S568RWPtGw/Vh6xKsKblQ6n70OE5DVLNKJwirBCc7Hvb1KjTYol1AQV3OceAzSmcafR7iJ+ZWRziX8SEQhk0So8meRzpRk2z5Roqxrzi8xzrVqL4xg55usw3U87j0v19y9lATpFCLizI7w1O7ScIKk437qjymLjb9+3ntddZflDqzup0CicAFoKIImFj6Xnem4DS5l/oD/Rs9fqjzGoiJjRQCl8/G58E90ClRqbpLfe75oVT19gJ+Pb5TAt2vSmSajD7QTlkE6jdBjVuAnCmrhCQtlUGpdBD5iBBgBRuBGIrBapDNN0yvzXqeAzPMmL+0a/K9IOsmhBwuphF7G1GvMptC7ckgndrwkHPX2qjJqEuZo2Ik6fXMG6UTzU+lmTm4QW+2xlpt6A+KQstiZhq+OdH5ELbcpqXLqk3s6k3ROR030JVoqZGvyuV0G+4Fymzg9ysxQlY+FmMbjwx3cYTwo3NmR+2pT+cQ+PVIsR0EAtJaZGkV0yAwlNas4fDmvW+fcN8kidrOt6gvPxvHkKufdU57MWM18VMFIzFkmgT05k7lmmskI7ZKLGX98lYn/gL7NRTrAwqQznYY9sDkOKrQ2MIXEdJyD4cKXzY+XSae/YfkqI8AI/NcQWDnSmabplcTpFDrZuVOEYlTawci29cz0CE0KPXIRn6TT9C5ydI5zbDrNeWsO6RTFTMLBC+VaZEVrN+tB0kpNuNU9YuqGXz9yUCOYtthbpTnSNBQkpzh/O6X1XpRvQnKQ470+dN3XMRa6IuUyi0V+Z5LOlAi0xz08J+tkcriD4JZan5QUmYhUoXo4iT73dnBj8WCj0j6ZxBZEaUoLjF+1Rpe4oxRtys0e0Vh2xqpAol3rfc+4uSyz9zrqsh1aLOpNPdyQ2Gk8ovc7pfslcyN4cS/sgeTQEPomn1pF8ITrodgbUoWHVbBSVcJFneu8o+sgnWmafut3TqRXHxFNEnsntKlYRpAs/epy917HYKgyfupEuiLKL9czXBgV94ljjdt8yAgwAozAbUBgFUnnVeBKsjeknGsOQ4LsjUhDWyJcopB70SOG9zp4gnd3/pDyKeE0Q8l0IOtEkBAv6UwN7/VCVTnExGP076asdtRWj5rULqBej8+OXechwyPKyxug/uS9bvpKI+jIdWytKLmGSBoqDPJcmZOXX3ovyrYlGoFVz/7nCNLIhNGK4Djbe12+RMqGHTasb9PKJGNfGI2ORqHpaw8q2mH7kQrhast0RYxJrIeXbtILaVXzcqheL9y5FJjRcWu30/sYJoLE229Rj6UoMTVdjtQtU1ynLtKBVwTopJGnM0inTGL/iphHBauNJMss/g92Wg/fI1/fbgwkzbOzmHl2TaTTfOcynA8/E1/rYDl9H50h6TRfah4vVoDkPJ4ZuMHMkY8ZAUaAEVg5BG4p6SSqhDQgQymwDcwEctan+CaaA20UdXRMmUYZRIpka5ul+xgXUyTwk04ZxEfm7cbpDIRSEou2FOkkkRgE/qQIlC/rZRWCPl+9npIFmxlxPU3T7+gco+QxCQjSom/HTYiuX+7CtpAUVUrSdN2ZyQnG4XbzSWee97odmD3qP4Yon3onzEXidIqyzZZ0wraIuNm3TSDIYUuBE08GryvINwvl/WEfVNt2egAGoQsK1bdjV8ApUfIIL8Ne9U65/oex+TglnsEdlYWiHT1AvGTGg9dJOsk+0hRqykono/0SRHDdWAcZ5/bOLBd1+Yzn9x8gnRn3uFyvpvslDN/r20EUHZ6ui3RGgybJ0YNC6eUgcuToHtT4EiPACDACK4fA7SSdYrNj5HhafWmBb7BDRc6m4fH/tG5aMkT8NUhn1mEcUswmncBLjnfAhSL7VyjtD02mchnSmc01WK/9JR2hrYrTCfmpEJWkKyJMaeFO0TIMlTlvvR7HFDxfsVKdLXI7V/Y2n3Q6Ek2dn3kkYgkZ4mqiIHN2JKIs5pFO2PUHdkktmEJf5WAUj/t7RDeDwr2dHoZuxdaxSec0Cb+FiWzf9QeN3mdDsyrqQmhoxzWzis4xycXzwKG+7Tc2+DdIZ3LWhG8G3KqcesBp/KVb2xR96PJU6R8gnZlXhH97rF1bGKsVDVt95rDPoC9dD+nEz3OtVH/Zaj4BvH0bqnnw50uMACPACKwUAreSdBqE0ok6ZGAvZIQwIRo2i2kanfWaT/SWievbpdpef3xuPEnKVrnxD0kZWx9Ia2i8OkvOptHosFm7XxRqWth7vdVXUejlG5YinWk06u3XKyrPIIAC73aH9q4+Mm/9SzszmcwG2QzJb3BDyP0ubuE9Ds8HzTvl+n4DggSZW1mqzEhs7Nb3akinRwN+jiKfuXuvQ/Hmk04phNabQpHWG1kd2mtulBuHWn5pks4kmgwOULRMdY/H3aeibdcf1FuHw0kkTT9n7fqtcKQDYv9+v3UtbFYBPs2n/3HSmXztUq+wY16mKRil9JrCIGG9stcS1q5rpfrBQO4yYBZ95nGGEeamlgsSuVYyfs11Y+Z5Ivp+Kp9JnKteR8/0Du3LZT2F/dD9QKwUXhd7nQJVE8IIezoEx7qZ1dEP8hEjwAgwAquEwK0knasE8MqW5XsXxDKOY1NeaeVGhcpNO/ybKOlweNonY8fMrptXQjopaGhWoZ9XUOf6AqQzTYWsLlivvRtH55MuODXLWK3TxIlUj94/pcabZo2CR+KmpuVXQyXbjE7bVbl7KpD0/VECoeBBvYzSKSqSQYYWPESSITa1z2s1m3RKO2OggOM/oLXNNYaDlHlKyx6fxM5MlaZRvwbrEM3XgWt+7nd3VRSFQul5V+yMNY3HR82KsP2ALVuBlP9AUk7FXhCHvGRE6ZB0Fu6UPNGINEuLxh+Gw9NxKDYciiYnLYhIEOS7lFm67GSwW/CYWNjY2Gc/TTpJ3v9bF7yyvnerQeBG/LXfx2eMACPACKwmAkw6V7Nd/oFSURxT223I/9qo/xQ4U2BEwAn/VLsjIQtYq/bdXTevgnSSgHC2iMhfZrq6EOkEO90PDcuuQsU0cDKPB7DfkvhbLz5p9s5Ch5XSE/G3QedZpfgAYtTHJzto0UiRp0ad+zYlWvD0YJSmkw5YaLj+OrqMFumkkEyysPC7KHdflHTClpKl8hvcxzwatp5IET4S8WpWP5Cm6TQavWtos2Owgp0k0fHOgiDMSPYc41Mh6XS5NcGiSafhZWjA47NJldDKfRkKd6QOZNuMIyaT5f7+NOlMU4pIJcqbY8yQ+36+wQgwAozAaiDApHM12uFfKQXtZrRACBuQBW7U+qbR3vmk/04YvXWPRmZ4GFmVnyedJCD0BxKXb5n9uyjphD25v/abFGN/Vlz9ZPhyi/Z8mme/YBQM5MQlVwFt3F/8EKIOzWgvYm9Ev9J48MJkt7Xm0UQq++e8cGHSmaaGCBAjIs0i4vqtpHx/vFl8OVywSPrZ2Ueo4HYjOsWj7n6r9bfuvoa9ZrP+DLbr7GZDXFkvCntPDDCfNAfgV7f43xWQzjRNwpNu4wkaz7gLvMVLwikZAUaAEfg3EWDS+W+i/6+/O0HfIB3FaUaBDHoxI9UV3sKyGarbS2UNIWbOr5TYZBTuC5XrytBLYqXIX+jFl0qEO0B6Jbhzsruyas55D99mBBgBRoARuIkIMOm8ia3GZWYEGAFGgBFgBBgBRuCGIcCk84Y1GBeXEWAEGAFGgBFgBBiBm4gAk86b2GpcZkaAEWAEGAFGgBFgBG4YAkw6b1iDcXEZAUaAEWAEGAFGgBG4iQgw6byJrcZlZgQYAUaAEWAEGAFG4IYhwKTzhjUYF5cRYAQYAUaAEWAEGIGbiACTzpvYalxmRoARYAQYAUaAEWAEbhgCTDpvWINxcRkBRoARYAQYAUaAEbiJCDDpvImtxmVmBBgBRoARYAQYAUbghiHApPOGNRgXlxFgBBgBRoARYAQYgZuIAJPOm9hqXGZGgBFgBBgBRoARYARuGAJMOm9Yg3FxGQFGgBFgBBgBRoARuIkIMOm8ia3GZWYEGAFGgBFgBBgBRuCGIcCk84Y1GBeXEWAEGAFGgBFgBBiBm4gAk86b2GpcZkaAEWAEGAFGgBFgBG4YAkw6b1iDcXEZAUaAEWAEGAFGgBG4iQgw6byJrcZlZgQYAUaAEWAEGAFG4IYhwKTzhjUYF5cRYAQYAUaAEWAEGIGbiACTzpvYalxmRoARYAQYAUaAEWAEbhgCTDpvWINxcRkBRoARYAQYAUaAEbiJCDDpvImtxmVmBBgBRoARYAQYAUbghiHApPOGNRgXlxFgBBgBRoARYAQYgZuIAJPOm9hqXGZGgBFgBBgBRoARYARuGAJMOm9Yg3FxGQFGgBFgBBgBRoARuIkIMOm8ia3GZWYEGAFGgBFgBBgBRuCGIcCk84Y1GBeXEWAEGAFGgBFgBBiBm4gAk86b2Go3o8zR+53S/dLO++jyxf3erdypNv8OEzuL5LSxuV1r/B3al1f5LOw+KtcPhpFTE1Hk6Ph5qXS/M/qHa/D9uLXf6p7FvteGvSelyrP+PwMxdpWd45/oKVgFhPH5T2fjgyNN08v352k0fF0p7428jZ98aGw+ag9/5LxVX456vwVB0PR0kuh4536pdOC5o5+ecXTWhHzPZqSYfyu5mJ9m+RRU5WpvPjhpGg8aTxrdD8ZY8aVTvleqvR17YV+iMEvhMw3HX+e+kL73BTr8dNzeDoK1xsAPb3z8eyEIyt1v82uTfO83HpSaZ3PLNjerle6Hc0vPCf51BJh0/utNcGsLEB1WgyCoHl6eSoxfbwVBofHBGSiT4YsCXD91rmeRjEfvWq19zz/JtMJj393Wfuv4eza3n7jyuQ012R3klDh/HLffOToole4v8a/zyX4+TcOjneq+ZD84m6oGCg9r5ef9cIqPxMf1IAh+P/YSUjfTnz7HrmJzi0+deTXNztkI42892eFyG9ftEu9GVjWn0fBwIHAwqpbbn6fh8eEwJtyM9PpwGvYeQ4+tHmY4/MWwuRUEQXEBNpDfSX704EvbQ9IZ9uq/dyd+jqJLZB4lHxpLk85pEp+H49NB76BZf1TaXAuCB91M3cyXXO6YqtzI+2zMTOP30GG3Xo/VxcnbUhAE9fdW26q7SxwsTjqTSedhYYHWpHrZHd5XoPDPKnSbv2SPdtJ8aRdnjSp26mQEPe1Bd5LfUZPzOD6PJmfDwWGntVsrbe/4vv9V6od2FfnsRiDApPPqmgnHpgD/flJscHVl+mdzikfd/VZLCiD1JE2TIkGT+39GhHPerwW+yYyub7XH+aOnrDaOj2ubFn25t1nQVHgEQp6NopVge33pOVi+L+c37j8NQCCRS2Tzx3E7x9FeLnzeG5l+mIz2YJ4S7McgnclZE2487gmyddYsBEHlz2sgEnaN6MxDOrFs69s5DPsOtGFGAIYwatKJjevFxbmoH4HiTN6WgyBYfyr5tyyw7s/yCv4SpMH67mAWuwl71bVsH0gGuzlk1HoFneR3Ek06k9GrUiEIgu2dfm5nc7PGem21v7jXM+fJ+G2tdL9U3LDh2yiWnjRa7/Kk+Jls4MKsplGroDTNr7Kba3z8O3DO9md1YwzrvKDuo00qzWIHi5PONKXvKFgrtWbJFKle2Q5sl+dbFzqi/685IiGo/24QUJdO4hh4pPg3eVcNthvH3/WVGBbBM9qisHOS7dT5jfIP9UMbJT67aQjcYtJJ3wt1F4EAACAASURBVIbzUa4X79caB73RIvqaZdvyv0c6aYStKmqiBx3ATk/SpP7LF9GBpMTVGyajva0gKGbnwvAdDMXFNyM1mLoHWpyIfcCmFCkWUk5sOOCSiEg1tzPHnB/X1ww2ppItfoACiS2tXc1K4BpVmCDL9YzYVUpkF37ZNB4fNStACwql5z2PxEvMVTjhYU0BCpK3bTdHUkI2frMVBKVF1HYLl2xWwjzSmSHNIhNPerjjNDc2rtP6bimcR/D2NOw/hYWHwzt1fzYyCQ+rQPI2aoYhQjw5HQ4z//ovipuP28fm9Q/99uPN4GHLuigSTMRsr1dWNKBl1mZpSl1aSDrTZPIWi7RWbn+SjAHtKFz5ruxs9QdA16ovPAoB9QgJ/uP3dVgGPKo39zsN0PVX3HWUMQY6Iy+eKpo16uSPBoZBTn6VjSaAQ7UQVddRtxA864eScrmjhLyeIMLxWVdV1j14BgNO+Vk+PnKZTS8XXWKt2svl/VQvhYYqtHEQDRqgWK+2T4aDw0Zps979YHaqUZ9Wj28Gw9NB/3V182Gzbyb4BGYG1GN9DSGu4TCIn8mDOtT6oDc4HQ7PJtF5HMuhQJRplfqhARMf3jwE/mukU32A67V3E01OrqThjAE3b7K8kvesSibIxix9TR7pnFNi39SCq3ytj05kW01JgKHa0XMgCWWWhWA5liWdaRq/r4Pl1NvJnHr4b6Pd1Vr9+FzdniFacKtj1EU9nnsQnbarIAIM1mfbCH7rt49QhKlJ56T3fKenxZqT7v0gCGodkyE5ZCi3FJe54SGRWLa878hOn4SfaD7uN+8Hwf1mH4s6Ob8s6UzTVCjEg6JeKhiLKFlFTS80dLNFR2775p8DuYxOGqW1Lal5930mVBL7u0vTNHy/UzRV9sbQlP/GWXeyDYFC9wxtohcRg5GkFjkcLasy6SWSOb/5VbYfiI9AKVJ+p5qBjB1n1UjeE0Way89ket+vs2pNhfC7+HIoWb9dXCHBzUdDMk76JJPP7fJaUPzfsTL5iP6CdYXSS8QfQU1hJhDvQ0ln9H08Dg3p5nkcR5PRWQjMUkk63SpYBV7lfmgVlE9uAgL/WdIJi3s5ml9RQxkje3aMvqJ3rE42JIm0DSvtyY/G8QVoU3ZqifqPC8FatS8E0pBg/UFjEKU0uxSfNF1pBM5wjccgMDTeiDk7sq7lSWc6nXQfBIFFHBdtiOQMLKkkYU2Gr+ud06yFVhaBGfkncWYqiz/3du4B3Szc2+l9ztyWmcVfTWHJcPgHTNWll31DLIcCNpIS+abXjEBaZn2Z31zyDZ/PEqST0HOL2zz7CdKZpunFqLkNeSre6fTn8K8aiEPXqt2M4wjaxtnTvJSr5cnbMtdxlfUdFayiA+d3Evu7o6aIfmS7maeRaEFVWCvke6t4ngJmDZYeGdpEY6CHwVDhM+m9eRsDqduo8tweYEP4PINaX63rSDG9XWvut1oop9x63PCOGK39rm3Pm6ZapCcL5+2K04wsUCaH32k4PJkh1JiJRjJu3wuCtXL7s1xpo9a+9LA9VtLHi0n3eUvpJdI0jT82y099trzJsLnhWpMjZy3IQQk/E0+TGfVZ4X5olJIPbwYC/w3SqWjHRTh6g7onGryu1k/iUwumffyzx8Sb0RWWK6XX4NKe/JxJOj9/dzaliVBp7ZMPDVjW/34cky18PvnLvJFylq1i/EpiOpP3GCUWZPeNdlMwbuYfElvdagrPHdSzo2w4AZKhppCs7RqKKEjxR7mrOR6ka2ul5olJKbAWa+XWyUS4s0zD/v/Ktb9CoXiV/R8zMVDwHDZHKflplTufDdp0Ar4mlbfj+FxPhPnVXvCOMjMgMZjW8IIydz7zUAxmpqTTU8fMJYmPW240xCw87JD/s9W7vvcqa37G6Way1Lnb7tQWZKooP5Mpdh6TxWLrBC8GGeZq9jFfOcisYq0x+AImp0py5kvqXlMd0rpxJaTT8CFDw5v1oqmLR1m+OcAmpzA+GMshEnPK9TAWSX7vVmE9J9Ggea+glhkigY90guHvRi273vDk6bk0k3SCpHo4BNV87vCV6cHqgsf6AuXx0owbjDH6YF6sbWkWIJ1iTFjFfuhBly+tNgKrSDpfvXp19+7dIAju3r376tWrywJofLHWpEJeHfiVrrXcKCPxZHBQr6CvCciN7pRqe34D0PhLv/mkCKKOoLD5EMVXRLkwY2NMNIrhrCaNadVIj9UFy7yWcAuFDNEU9d1gopbymCo66zWfKLv+9eKjekfRDoma5BkV0tREHzv1h+BJIyzNKZ/TbkPnU9i8V6rtdvufTVojs5O/ZFjpDuVXQjpJa/+b9GgRQUOqvVB4eMgFuiyK8WvRAriO4Et9q5DnHTVLQSAZLQ64TzvD0+Peuz7YM50K+Z/bIskAaJfpvXR+vLOBxnz59sHokqK876knoJWqDZScXfSEQRUxy6Dm+ORrbwckcIWS8jQnVwDVyeNRG1xog/Wnvck39GtWty40jwxPGkXsq5W3oyhS1xPBU20hFjk453rRGk1wmcPpqAlGvYpEYh74deQZ0qFI206vmltVlmDZqjYsPa9jmYd8Vz/iFj/5Pomk6MvtXd+JGbiPiPPziSE/tgXMp8Mhmtxln8y2e0pxD14ME7UyMcYZbMCZ/zljjvnKi1ELpOMF8u+O/95ZB42tT1omnrIMMdGdCMYK5YQHtpg0pnleSp0/22RmgbLH9JT+LuCTxpgYxqehxnORLPmI8QBUm2KR3JEq+yq6ouIMKDv11CN0l95CMChd6m9BNDCZM3x5LF5E7+qAt6KFlSxb1H+8Kc3JhBLJKPkipDNdpX4oq8W/NxOBlSOdv/zyizOI/vLLL5fClj5szEwNQJiR5GHuJ5p87dYcx0xRlOLOe2t0EYOOVdBC6UUDtJX4Z4yJRjGcsTiPdOJqW+Zk/sq1O6hvosFLdFM17+NxwdTCCC0Y3Gh8SIQJGj0iMBHmR5lssp62ZiNQpTKOJjaXcidpMwPrmHITw+XoNTD5wh0xmaGoAzliiPxJSQ2tHMRJZkJCGZgzwZOg6Gu3Aor4EDShF2kINlLgeTOO0xQTmFJGzD0Z7CLrVE6+svlyqVgyBJ4KCwaoC1WkSOGKbKCWIp1QmItJFz1dpJMyThvYoLIPF8pvRiD1pBfZ/R8kKUc7YAS2DbRza7tY2N7pCR0x+VPbNU3T8M8KfC0/F8rR12J4TWjzbUaC8Oa9ERvaTg85YUfSldWwGK920qRJHJNpm0hjO/yassPxWwABxb2Ko1sHVp+R3cP3ZRlLPkymKFGmA6epMGKu9c/lZ0IxIkwmjRrkwGNJqUNJGAjg4fe+WLqo+FlpKsaHXM93k3TK9fZlSKff0crk6HJ1TQbcFpFyICLzFQQZkyWjFizJDAdEG2EXh+y5MKswRIN2VyQLS49/ursYkAOaL8wZjgYWZZfc3QzW6/bVbGHNKzivGViZ7puqmUieouN17BxHi5HOFeqHZqX5+OYhsFqk89WrV94x+lLyThqjMT89D8GEiwZAeP1+V/uGXAwaIG7Bv41y/WWrtd+so50cXjIC8JopxQPujzFZGsVYhHSSQlbnV9i8R+M7hAgeSt0mRXXBVIVNMlfaraDYFa5p/xuDdG49LJNkS+T9cgi99QvGFcFL69u1xn6r+awiQqI87efbBmIQx622q2y2uRRND2pCzf845GyKKZKPLTH+Pmm0fodIe+SrlHwftB9tUszO5Gv/+IvEwsjXmZCMO+4hRvWzwsREH9uVDVDi5wl4KfOSciciLdVaJd9HNR68QOr8pNF6ge7pW80hqdRtoJYmnbDqiEdvygXhLKLYFYkxSs0PshJZ0jkN+89huVJ8MYg+QsCoyss28o/izlGYfGpBPNHt4pYd4HD4MiOJdBG9/DlGYwWaW7pXbqiS2zO9kzu2xdWQTl/O4hNZ9sf46oV4rHFisVKksOPur8uQTmD81errQXhhfSZmsalnBuZoZt52jjFSvR4rHrbMuPTogQQrpcrroRLxOhnA6bcufpmZJsBWk3705nNUeEqP3XUmuBJJSmkQqTQd7YN0tkUBaMVoWSjI8BfhISwMtl6qkVI0hG24rATPIyOUvC4tyRQK99rCKsbsivFgB97li6tqkDzklFdEOmcClblpYJVdnJgLFXHcHcUIsqahWnSN47COhruK/VA3Gh/dGARWi3SSVj3zIYGefXlEDbYnSWcSh8P9srK8NLwdU9IXw6vXDKWJdGIFJicpoxjisZTFPRkUOh53If6z+JODppS+0GWZg6gLDdB4S6WX9klwFWiBVO0l30e9E8mQk6Hix6b5kSF/1ZOBIdaFPNcfNXsnOOZ+BUoZ/71DRQsCoX+nssXfBgMfqxMlJ+vVrEWszaUIKCKdTjHkS81fY7ik1wjwjeag62EPJhZtkyQKBc4NMCEpgdz8uc18vedYdhur1maA98SSkelyZI7GbyAIpo5ybwN1GdKJr4hCIpdYUyrtxWRsBmqxSWd0CsQ6CGToBuyB0EBCdFoo/3Hce1rrf4FFxZY2YEVn9qwtSqaal7mAnbl0vxQEW8VtI7A2ls1H2oDGodBRd3L5Xvzkf+tF0yQ8G0d+9Trq0z0692PSZcwKneOZs4WyHqMOqY6HxTGZiiwf/spC0kXVBHTP1R2bT9KAlvlM0hTjWy2wKkjC0btGmZQ5G7Xulzj62CqDZaplIiztN+B6/cA16aECyXVCpgmwOvNIpyHp/LuFJLHRs7XGUtJpdGyJBI4k4r3CC2q321F7NU3j4UHH9LCZaRycKb98S/hxoMON2U2ZfO52P+auxzGD3JaS2VOC3LdbyX7tjk373fzjwQtXdyfzEb/h363Wvujnxi2XdAJj1rGNNemUj+TW7p/vh7JI/HuTEFgt0umZ+OWl5UGlb0M+n/m1rebD3q8yBYkA5fvImg3uCUECRSHGxIboEZIbPr+KREo+gennk07S4foyl+WBXxRQYSKLKaYpRbqBO4rfmGzPZKgiP8P5qXBvp3sWWipC86XGMW3+Udh3DWLteIHC+opKguOdY06nTsmPxJ1NSdknjS+N16PsB5YBKpK5vEmVleAbc5s1pR23HsLT1Tft+loQbFbb75Xkwz5w9PJE4H41rKHke+f8ZjcOuSLSmf4Ytvf6gl391osuRp09tBBQBTJJJ4mFtnd6X3DKnKYpemyIsIjTaPBazdbYkZTk7Dp3JwIPrbVG920VbDpD2rkHxUhEX7CX5/yXmbOTCQgR1wq4+GsMkqVWHW73UxAucmB3PHwCy1/7w+5R0A8xrpNaz2AypQ2gdZrswPabp5MOxLHKllOPSCof+8k0Ouu1npWFdBOopCHFFMY8ypcZH7WkoWCz3jK3oiUnQmiVSnOvVt6XC29p/jiPdOrS0RrbXPzre7Bg78NOS4/7Um4PNzXpjI9B6Ahuhbk0CB5AhPOMInC4o00pHQmfcYq7ReTuU0BOTtbmqzPLA2WiBJkObFVeJrsCm06RL0KX7T/4mei5Ccum+qdbpDRdnX6YLRtfuQkIrBbpvC5JpztrmU4Y1EqLzE/0udJ4gTk6oj7yNcE7xrRhpNcfNr7UmFZleiOxPdSafckUtbo1k+dq+qHpEC/7NufIbmuxUQbxxsyVvCnCNAvmJZ2yalZC+4RqbY+GRNQytFI8qOz97X0FsbJS9Wa/A85AANZrPoLJl6TIyVmrtBYEG5X26QJsW7SvXc7sW5wrZCLm7J7886QzHvf3yKBis3U2ADX5b93jN6jzXCu3VFQmk3TCLBZK2TnYbhbuZMUYovSjPdzTGYWmwovoJ7YzdSDRp8iDCy+GE5Dw4RwMcBVKr0eJQdp6u7BNQOMvTeD6L8EZTOxIlISDd42adP4jx77W4TAk0ul8dK7dpy7LzxzRV2Z1dePrlh+l8asmdUymvtZc0qkVKZnuR93y11oNNzm0bM9FlZLRPlrWwKc99CiULybd3bYlHaQH48ngdRXlXpa2AcX25TJEKSpVH0POOkIk1drFXPIn1WSiYOQDZIQ6ctqAjH/s3BBqavqw+4AsL30DiMrKRlhdNg5mk05p3SSNs6XxpcFK75dK10c6jV6zwKHVPZJwZFrKoqeRFXwXzQuWIZ2r1A+NFuTDm4TAapHO67LpdD5WU4FOjUVLaieZe0rf86ilTD/t0dDcT8yYfgwe6aQ3piWZftLB0IDwZiex0alIieyWzj5X05hBOq3xSOd3MentSimIymSt5PhO6fTSgVS9Qt+yuRTufZxPAfVjmTlDEDURUD05j8PPw+FR19oPXe0r+E1nZExI8mISx9/Hw6Nu81kZDa2AYjZPjKn5x7CNNDQAQ95u/3QMW5joYEYyH/illUkOjGZCfZwMX24FwVbzI1igUkUGh4OQgFJo5xzIXoHvVmERp9Ho3Q5wZfB86uLeWlgw5DHRSRNvBetPu+AUZZFOQ/R7iK7rj9y9cKRaMzVEUCRIm7GHp67tskeoHoU4LEi2JIkkmwX8OgQCaEHoysOm4eA9xTISK8b1B9XylmEuOR0CF3e/I+xsivMtW+Kc9PSVme1FAjafecDSNp3SOYx6Sab74YalW2/GqNw0TM/Nop6PB3lKjGnYP3A3/DQfhaWasOLAy9ijCr8f90WHlLuA0q6hS5FOlJgWwDE/Tc/Hvb1KzV7YRH+BoNNx1DO/8fjzCOOlZwYQswLzSaeZ2j6eRoMXyhK+4NW62A/Q2czyQBJKIDu8Lwu8tlxfRWSs7jFXPAFjOC5aDFua3JeuVj/MBY1vrDoCq0U6/5+bzzV6r5s+Oioij2ggMW+hDMyMla2FK8NTEv/ReIETgCPppEkO7xjTj5Henv+04l6bIRqJF5J01jrm1meGEllZyNN0SIXKqMON3nkOsaKEvRfNbvl7hS8o6VzY+4RqrYbLSYf8tzaKJVRsieIElt8PeIT9CXNScK8jbV0N1VsaHe+qYFKYwdpm+VmrlzP1xt8GHcVK5fu0LI1wEu2rymmgl3MYviMD4vWiWZFfe6Hhc0CCEyTERjzCTDBCmmtbfwibPAgCT1pyeLUmnXAWDVsYMgniS//VBowEx9KdXFfRPtL9lsIYbTVHXzA++YOuwdNzarvsZXI0xpwt0kn5mKSTJmkjXlX8heJGFVufYLe/0dEQ6TJ2JEUokR5pxy9RPDuNp8zx6J0y/Fj04PpsOinOQBAUd46GXWW5qIttBPJEai44nE6gj5JwIsWc6IeOwrnwsAKOOQ/bboz0NE2+dtt/Oc1OITDBN1yTP8HM1utLhkxCM3rpZk4heI0mTtNMvAioCi2BHLrmDCC6ynB0adI5DXtP18HE/09YvOzsNYtBofyG1jn2K9yzmeWBxJTAqYWbi0jmsT/2d0vshLNGpywrhVfiZ2JIEPwfyIr1wyxWfOXGILBypDNN02uM00lhd3CiLWo/idS0hgz+N/D4ResG1RZUVtRG7dEJuevJW4wv+Eo1HWJu0hjfTG9k7hiM6gKkBlstdb4aN3yHi5JOenYaj2njZiyvMRJZWZMEwlgcy7skVxPcmgxMm0PpCyUTZX+dMZpORbCh2i7tCDya/Ihde9PppP/aNGG0h/IvnfI94J2lx43W2/7AZueSlBvCP6Dsg+M/O83daikIyo9qlT9s73yqnbJ0zNYjc4WAAoXvvVLlWbP1rj88HU2ibP9yEEhJL6bkjtqU7eugsVHaORyLIPDijTbpVL7t283RVytOJ+2UM/6jDCatf06MeEDR4OVmYC8zUIsabG3BJk+1o5n2FpmKL3Zh0r0vooDNI51C8godUnrfB2tZHBBG9ZWhvXL9fWx8Atits/+pR6Dcqvtl0825Ynz1V+G9nkz6/0Mxm9hF3e0kUFgyrxRLAkqQI+wUHI6swK0OE/6J+2Vs71g+JsmojbGHzG3bxDYN6EunSSf0t3D4Eenp4pJO8oY0QmQgBzWiwlGCtebIGkB8IIgmy+FbWKQc7/WhHAcyHfYHRIkX2wLJ9Q9ZmRf/N1MwrLtQTnl0gsVIp/bpsRX6ZsB8PMaoI9mXhr3dZu8TmMUq0hmdtLt26DflAyD6v/lFrF4/zLQWX7hJCKwi6bwi/IzJw/iEhHgMpg8r7IX2Xg+KOm4LFWWaRN9GyszR1FlU/5DTv+HnbpNOg0cGemez+EsHxXRiGlPTlZm55b0eTQavm2JbSMN73RPM+SIcGXHdjRk3Ox6l6feBK/wzLFPzSGdK7kemHzcBZZJO8j4xkM9vVnciSc6jRd3CrUwpH2soN6pvMQZZtVzhn2oR/Yasz/5c7/WLOFpoCx8XAXpp/G0sRVOmYEmXSBwR88iKxr1xOmXsfdM5I8VtA7eMfcYhZ0oJgQLaY2vizxTgshfC0yEVYy7pBKcS2Bl1cxO97yt7fTAecP8QRtnlMLYoSMexD5Trft/zellLgkV2ELkz30fYewsdh82lpiCdVp8zT2QhHTkcff6y76HmWnPBbCehrWj1koCMIgrZngC2Hbi7gaCnFukEpcEh8E7haBgP2rQjBlmwKGMk4bgjNqdFVK1vDeBbmHRiTe2NiKkbSxoq6mJrh+SSwBnKssgYPYOKZIJvHMtxwEiPUWzBRkVtcCpJJwAFm9rDlhBdrWewnsUTT3mSC3OpSQky6Lk5odD9Hcigo/c7pfs5FtioNtl5H3md04WdDAZ6wyZrjijkn4z+gZ+JGXEZy6b6JxRpxfqhgRJ+qiawxj0+XFUE/nOkM52GPdBS4Z+Km2hstUx31rcrEKrzZb0iwnobA4SajCkpRDhTxuZ0yZp+aAdFcQOFXiVUnsor8CunmTR1g4AWNrdxAyFIpcsgwjhTFmubpSews3DjSUnoo42R2mBdzkiNXVKMyLjjEczKjaouW74ZH5nAZuN0UmS4v0HmQeJYjzTU8yV4xmhPqvmXRD6mbBWqbw2gjjoJZ18DLniJMceY73Tlu/PjdJpPzz72I0DzOvnu0rFwnQGxeq8qRR0UV9U1eaQX0jLAQCA6IQX9evlZRziVeF2d4IsY4tYuACBazvmrQHHjF2tofw4gXVSORCpJthWkFW/HsOJVyfHAnC9psQeCdoTO1/nhGZd+2RkueoavML5i2Yt+1qbT2uA700loV1VrSYDUPDACm8sa0CgkOZan1uEXuX7GPkOxKUQUNkFQ4v5TnbPbIelFNJ44HxTcosLLEew77LqpP0wMyB99O26Cez4NOxRNmfZdlHWAXwoz4rRmBhnzCSxSnvd67DCWSFh4F+41B2pZZnfF+FMb4kxpi2rzZXRslyce956XbMWajUYmA9JImMsbjBFW6X7xLYe+wD4X2QqiXghhlF6M6kMgiTWuMdCXyxInY9mMEQNKt1r9EPFSG2TA1mszttHKgMsX/m0E/nukEwcuGPLwz5IKhMc7Ohq8SCB/5HCJDRb9jetdeY9yqv7Zh8ja+KdJJHyxY2GkKG7ST6F6OFT010wvdrywEtOJWYZkfKCjwbtpjUGfpkNM4IzUWBOaJNzncUg1tirJ9FJSneez0pT8UrNzRiYnuGCP0U4S8gQ67Xf3m/UXuZHb8SHy8bKqCdV3BlCcU63Z14AL8rHnGFkcsjAr6JaS0DmODjK9+5ucR5OzYf9dq/ms1nVpkxcBemODrD3cOd4QSAdrm+XdYz8vzJBOKNY0Hh8K29D1R/XaNkRkbJ3Z0+/FhOLOFtYgAJEn2JaoH3G7BRvaxUSdzyWdSTg8Posj2DgKDBDHfk8vY740wjypuVa9zjjw0C/j7qKH9JXpvpHbi2RvV30Sd8tUSl5b0um83e4ktFSw1TXwgLAgstQ4ckcM5Sc+s9bYseUHIoSgNE4m3yaKibkdkgpLHwXsK2taw8tAUWLZLLbnKNwpCt8+e/zZej2OP+B26goljQSW3A0ZayOjE+ORXR3npj61/PNsBTrmYDWu5KZBsF7e7armk7np8oRH5PMXrL82LeopgTmey0fhF+toY7L8GWRO5FLtG2x8CGibu1E//tyvBYFtB4xl8yCvSqhrB5f+jX6Yir3g1yu7rdZzsJvfem2bQqnC8sHqIfCfJJ1SnYRfsl67Q+tM48lJx9j0HPZjrDxr9U4nthVd6u69/hFGY2WmaY1QkG00PKiXhRBxvfhEGNnIaLq2jATM5a0t4CFU76N6JxPWJwlHvb2a4W1DW7T3x8Zu4DQdYk0tNia64gWGm5GbNALZxPr2P3uUl2bvRc/0QM1M5i0Qc56hjEy4BSw4horixV+BmbV2a2rrSD3gZhX65ou/o8uLLX+F6jsD6OVIJ5E809D2HK2+NmrC5sEsCR0nk+MD2OGppKP5UFWqVuBBSGyP4yIrK1imf47PvtS54iWdlCaZdB9vCmy3a1bvUozzcS8M+7RCM409jJcg0bckJcbNhQ9nkM7426D9GIT91NmUAaLhR6Veo+dLYm+0q7gx16qU6mAm/VKp5h3QV2Z99VmmIjLRhczmuijplMY83sWAUIOslVoqhrnewJ3eOavWbtAJ8KeptD+5A4K/QxLp1F+scyRoFopdaRNI2AWttd/tA0kdh+eD5p1yfb+BXU76GJkwkQre+aL9n498bC7phDGfNk2g6GmKV1s5WI0rVm6CUIL5+cOO4WFEn3O5IsJiVNoqhJnIkhLkkU4Ic2GKOeOwX8eYaBPnOp3mSTr/L1rlGvsGWx/CeTiJU7Fpxam54JzVP7H4VHgcrv+1fojDjnDkReG32yVk2/Hv6iFwi0nn6oF9m0pEDM/r1CzWvsrULDz2m9MpH0wrODzRWZiswIIe5qTu0XD4OYxN48hk0t8nByMpUDnqgMQus+QlNuBMfWCpIIKz5BJiZ44h7eRy62lyABc8Hr2IPoc5tqpCXtg4mkRiXglHb+uwIyUFlBFOAN7Nmme6FxDfdUZknGXJjqLwsNU9qFOUpcKdFkSvEdHCA20uLPTaQcHeMhG6M3lMO6Li5ft5lnQS4CRnhV0Z9/rjc5FveFjDJ7/MzwAAIABJREFUOOd4kbgQmZzGuJMtBMlHwwA53eb1Ad0rFD6ZqAL+oIzSsEHdJQsHq8/kkk7cT1y9MU0TpeKV0WfFHo8ujHKylzN9dnME+YQIYwS4HYziaRp9aFbvlNrKdySlPc2LjUP5+UjB5OCwiXsU6R13ZZ7u7yzS+WJgcSbo0hgoyjAQcrNT57J2ik+HfxMlBXEpRTfLfIYSGZWJeTCXdJLNIqjLTa9EI4vcpkRpAoQyLVjqDmLG0L3y8qQC55JO491pSi5NAQVqsO6IE2sVbSeIx8PPkehg0zFsLmAKiUko7o7hWDajf9o5Gitk2VL/Rj/EBflWcxinaYwfu9eOOVN0vrAKCDDpXIVWuIllELFaTOdWrEbUf4o7wjzoThb1PrHnjPMJUEy//lQBRY9o2kBHhXstJ8Y1TI1OzBHcBt0inQ/qLZMWPwPfEotAiGBbi00SqoxpEn4LFaPQl31HyaeWigeoa6V8OATp1HeWO6IpZBqNMV6p2JnGDIkPYcArlbfj8BT3RQQzKduO83uvRtsnrlnO0bg3lWFy4KvaItcypFMFrDWYpZGRtKvDXamSqP9Y47H1ZjR6DVjKJl7GkejaSGf8oSkYKgXPMqKtYWQxXf7AlKYbVZbi8Fr9GTRgtqtbaafxcA9AUNTNuou6CE9/o1LMjNGr8plFOj2LkAVplhw9pJsL2Av8CTtl6r814cmkSiKR8WlypJ2D6gzGU8bhxWQ0wzFoBumkPBJTUpiKb3mj0kb1l/EadbgAGhFEF26gjB8CZr13YleprBwjdeO6ODQ22zMWsRCwBcL7Z7kslm0+6fyX+yHtgCp7hWNMkgWBr6wQAkw6V6gxblhRyKEqSy7DXnXD2sJkbr0u4YQYfwUhDSjiiS8e9AafPbsKjQ6czULSVDp7YqkwYOGBaW4lNofsfNKlpgFOmUbpG1d7dD4ZSYETmMSd+WIrLftGU70udp8qbD5uuiELRLbJ+E25AMEIQTzm/sWjzqP1om3pC4QplyS5Gcw4z5BOMCVcv7fTN/eRd56Px709sW8ntDJKH2t7fdgyO+xVf9VrHqRHOYzkmh2J9NLle6+m5KNPmgODQqBjsih/5VlnaNjG2DUmptIcXYxav+dZtZpPJJOTod/Sl1IlcfTN2rFmeDocf8+RxZsZ47GfdH4/hu8RXQntJyj6aTcbDdROBpY5xY1a38AnPZ+oz7x7pKOIGA9KZIxL+nC+pFOn9R/NJZ3uY8n4yBtdQaVbgHSK0AGbYDOa2yUwwxmSTrw/eS8Gyc7hSG5IhjfC3o4TsAIuL0g6//1+GH3qtZ5VKs9a/RkLBqwo/7dSCDDpXKnmuGGFIUN1z0YdWcpyw2pmFBfjCeSrkIyUK3+Y/Ag9QUKtYidR6Frv6fvTNLVaNgk/DYfODvU69TJH6L+cicO6TA5OWquczr1rOL0AIzyr/NPEvfLTr73E2uyn35mfQbbK+WmXu/MPt93cwl1DU859Jxj2R5HVo/KeweItqFHJy2Op66vVD5cqOideAQSYdK5AI3ARGAFGgBFgBBgBRoARuO0IMOm87S3M9WMEGAFGgBFgBBgBRmAFEGDSuQKNwEVgBBgBRoARYAQYAUbgtiPApPO2tzDXjxFgBBgBRoARYAQYgRVAgEnnCjQCF4ERYAQYAUaAEWAEGIHbjgCTztvewlw/RoARYAQYAUaAEWAEVgABJp0r0AhcBEaAEWAEGAFGgBFgBG47Akw6b3sLc/0YAUaAEWAEGAFGgBFYAQSYdK5AI3ARGAFGgBFgBBgBRoARuO0IMOm87S3M9WMEGAFGgBFgBBgBRmAFEGDSuQKNwEVgBBgBRoARYAQYAUbgtiPApPO2tzDXjxFgBBgBRoARYAQYgRVAgEnnCjQCF4ERYAQYAUaAEWAEGIHbjgCTztvewlw/RoARYAQYAUaAEWAEVgABJp0r0AhcBEaAEWAEGAFGgBFgBG47Akw6b3sLc/0YAUaAEWAEGAFGgBFYAQSYdK5AI3ARGAFGgBFgBBgBRoARuO0IMOm87S3M9WMEGAFGgBFgBBgBRmAFEGDSuQKNwEVgBBgBRoARYAQYAUbgtiPApPO2tzDXjxFgBBgBRoARYAQYgRVAgEnnCjQCF4ERYAQYAUaAEWAEGIHbjgCTztvewlw/RoARYAQYAUaAEWAEVgABJp0r0AhcBEaAEWAEGAFGgBFgBG47Akw6b3sLc/0YAUaAEWAEGAFGgBFYAQSYdK5AI3ARGAFGgBFgBBgBRoARuO0IMOm87S3M9WMEGAFGgBFgBBgBRmAFEGDSuQKNwEVgBBgBRoARYAQYAUbgtiPApPO2t/A/Wb9oEl7Mfl/U+y0IguZodqo0jd7vlO7vHEfz0t2M+2H3Ubl+MIwSb3Gj4+el0v3OXEy8D1/+4vfj1n6rexb7cgh7T0qVZ/3Qd++/cA27X2nnva//Rcc790ulg3+6uVYc9tFeAB/22WWKic9Wez8yz541gyCoHvpaIZP2ii6M4JW/9Tyv/NQp3c/pEgu8OzqsBoGvjrOejSenw+HpxPuJpmKQvEyREv9ANKsofI8RuCoEmHReFZL/9XySz53yWlB43AunNhRf2qVtNTIuTDrtMZpIQOl+ad4/k7rFo3et1r7nn2Ra4bHvbmu/dfzdrsJPnn1ubwVBYXeQM9QvisnoYG71rQSdT265w6Od6v5IFMOe0cPDWvl5X7RdfFwPguD347zZzs33Z86R+3qbac7Fvw1KPE3i8/hy/xKnu2JdkCIE1b883CP90asGQbDHpNNq9X+cdI4680YD/5rBKnX2JJ90Gt9LctaqvhxEvp6TzZGuTN6WliedWJj8JbropfmkPAlHw9Ph8KiLn1Kjdr9U2l6HxcHTPn7aORg+vy2L/bzG4Ov/KgJMOpeAnwZW+GjzB4IlsrttSZPhy60gCIpvxmbNcLQtSBHIogTLEQwg6SzCeLlR9PPOe5uFIAjWWgYXwHetbVrpMZmUneCY7mSIg7IsrVmPSx/H/adBEJS7uUR2UUyM7od9cN5/mVoko71iEBSqh0jXrEm0CTfUguGsWQiCyp8Gq7t07ec+iMWYVxXffZP2ERH0pZp7LYMSlJimc+8tJp3eJl2UdCbhCKR31r8OfCCl5pF1EdL8UYMbL/tO+uGnMEmRMOHnXLhjrbU214IAv/rixszGN/uPrtICpDMJ+7/DUFR42B4tvCxDfOpLLuN+lnRSNzZQWC/eL5Ue1Zv7/TEsPSl/4z4degW9GiI+YgR+CoHbTjp/jHp7NbG8I8rypNE9Goc5QqfZWBqz/nwF8eysbsHd5AyYStWkJhfDJtLO5pnCl5hfYyguLEqwHNKJcMXHvxeCtcbAp8EfvzHolAAX3+UMoMhOLNLpzD3IgTTbOD+ue8W3i7ffl3YxCLb2pHwxzYpXG1UArVzPiF2lRHbhl03j8VGzAnNtofS8N8kCNR23t0FjCapMRTqp1babI5l+/GYrCErdbwu/92cSYjEqb8cZOeWgAVNgY5AVYX7pVhxZYzzqZtATgtIXiO5WtZGTwCvVvibSGX/pt55VFBla3y5VnjW7J5N4GZnZz4B9fc8uSjp/YnmgyZH6qK3PmSqnv/rwb/yyPE1fLzv9R+O/AOlM03QaDV4UoTzbO325mIzPSKDoUa209nO/cUOc381Q2CshnZXulzhW47HVAzB/awDMr771IJ8wApdH4DaTzuhDAwcGPVgZRztLLjoB4n+OdH7vgSpklY0akY0FD7oTPV4DRMlHpJ1bzSExmO9dGN8NcSPIIQJccFvaMWG+GX8V0o7+y5Ih/BiJRULYq/ooYPhXbd0U1InPQU8/+vuwZqnsmCuomCadaRq/rxeCoPx2ojNZ4oiIcv34XD1DE4nRE/MPJTlWz846iE7b1Tsg7V1/1B5mzePUo9/67SNb0nkx6T3f6Wmx5qR7PwiCWscWR6G0Kde8TGW/9IHivu6TBJRvdUfExZos3Yf1OSVWNEXfmHV0DaQzGb8pQ/MEgZLM4bcAsjyL339pb91ARcqipNNnCDF4EQQBciNngXEC6w7PgkRxKOtzpgY1v/pksOtoPzANPlUSX3QyfltZ19aW+azL7ajYoGtV9eFkxIr5H7b/TtbiM/8TwHrQG2eMEpggm63s+dMhGLBa31F+9eVD/MsI/CQCt5d00mTj/7yDwgspelsGv3+MdKKoSUqklinhP5U2Ge2BmWLjNLuCTga7pZ3DCd0Yv4Zkm/e0/ms26TQQNltOj5vR3zvFIFh/2hVivGk8wrm88Fhe0RCY04+8as1SOMJaY66HdKbTSfdBEKyZxFHmNu83OQMKLglrMnxd75xmzQSxnIvyjCTOaPTiz72de8BnCvd2ep8zt2UhFaEXykqP7hI5JVqgmugbxz4KKPO/5K87l6ts8mdc+rSdhlPPOQeU+N8mndQTQDD2zfpkkmgyOByYfQK//WvA2YHlUqczrIpJfLu+rb90y6xlpgsOZuvzGpzru2N9zlQl66sf7ReCoDm0F8Yk4298EA2RnDYKWheRz7o8HTWJflitmQcq6WEKa0F2lZ73CF7P/wTw9s+SzrBXCYLCvmGRRAr3JT+WmVXgm4yAi8CtJZ1oSkjTZbFxEpK7QHIejo869Qel9mcXiEXODUp0nbPCdAyOJ/CnydYixfvn0pz3wdjqQVdLx7zvToaNtSDYao/1oD+HYCli5Jd04lvC98A7g41a56Tfeghkq/g/6QFjFYPeRUha/0vZAI3p1i06MSWdaZrGR1Bdx1bVepX3hNjqVlNo1lHPjrMOer1IXXaaZjBJwCfGdHDBjgedITysFtZKzROTpWAt1sotpaWdhv3/lWt/hcL6UE4hRu/1VBkvNUdpMnwBgt3OZ8MvRwucFppivWDkXvTM5ZQ2f8b9d0nnpxb0uQUpr6w2sp9g52QegNNxB8TM1zm8yCJd4he7kLWGVMxyFulEAbz86EAdMnlb3XxqfLNhv7GX9ctJwk/Sd3sajs7MPi/Ljj1h63HDUFKjIlv2eaRlFSWMpMfCPytBYF4MYVUZ1PqgjsBe91svykhkx2/BpsMjdj3PU17LQoboefagO/oI9kjFveHC1hT5nwDmvRjp3Kq+cDT+Qo9Pw1r9vblMldWXZedfRuDKEVhF0vnq1au7d+8GQXD37t1Xr15drs56iv3VGXP8+UVnveaTkjS3Wi8+qnfULC6f0HlmZ4V4MjioV8idBTVotb3eyKvlBMO7Vv1RSSrX1ov3a413gwlpYH8M24/QwdAhBnIYFWWZRsN3jZp8XbBRrDzrDL6ZwwcklAUWI2z0sVN/iA43Rm7RabehKw4zSm232//sG+IlDuE70Jkbs4i8Yf9O3kKy2pFZqgzBsh9RZzMVQ0n4DhyI6W/z+XGOGym+636zb6qJj5rgRCrsUHGEfdoZnh733vUHlAzlfw7pTBO0LzTZ8/nxzgYQ3763ibEaWP2CFKhQxYvtL2nGE8XFhOYSswzYjkA6k6+9HTDKLJSUp7maJgm7eNRGIr7+tDf5hrOdausLzSPDE2F5Unk7iiJ1PRFls1c7yQfQcvpduVWDXfoASafHWeS0A0zfq+XHRlyU9l1K0okccQsaK/uHBV7WtZ++RLNNMxkn43f1ctb3xWa38bdBR1mFrm2WnjR7WTZmyP/iL70GffIWzUrTH0OdD44es0wyZFlVP5QX9O+MCma5EaydgH7hcuxi1IQuXTQMwSlb/V2Ef0F6sBtxhiVqXDkU6F/V57Gxmh91OdPUo3Mn+lV+F2rSSa2sc5x1NGskDPs1aFP88NN0fFCCir/IMmyzhOqYSOesV/vvyeoT8pk0KMsg2NccM7NRC8QErRGJCbSwQBWJDxiBn0Vg5UjnL7/84nwkv/zyyyVqSaIFzEqb3fjzmUaDlzAWZP8KD9tjLZFSHM4VRSRfuziyZDMo7ry3pYHRoIma0ExSVFVHfU2mnBRyHIEqfO/lvK5QfoNeibKeNBOAO8aHhAZ6kavIjdyZnTfR6Vxva8sQLfzbXEwfU53jb4P2723lQYOF0hOJLKP/10s6QRf5rkGWi0GwXn5UFsR9bbP8rNU7GYeWgBAlJeDoavyRAOMreKJUD8PkPI4vUpzSwPNmHKcpJjCljPgwTlSBwULknJRLxZIh+sEI61UqZ5HCFdFMqcmEi8kM0gmFuZh0n+KyRDgxaOGE7IeF8psRSFNy+FZ4BKLi4jbIi7e2i4Xtnd5XAikZ7NJ3YNQ0TVEydMkQjAb0OYcSSW8vnHVRA5iTM13OAWHmM/SllzpfPamIgttxEjzJnEu0Ttt6bQV2sNNQhC/0cTG9yozIUGS7DCbR4IDclAvXQkmFwaIcZQcjVz8R8OFeQ1mxJ2etEplWPwEZYeMJxoVYK7W0/59dNHl2VaQzTWUghbe9FoyHxeZHc2lK77O+i+ikCWVeK1kpsaY258On1GiJI6o038Rsp6PmWhA48ctIdQOrSvk1ZSJ5NR6D+smWqopBL8/hL/7ULiPOoHYQf2LIXczznUinx8XQkOyaA688fidckryjKBRELk3l8luWTig65Ge3mLxGPcwHjMAiCKwW6Xz16pXs79bvJeSdZKkjclkr7bwb5cjDUhLIYcrCJmlqditK2GiGV1QcztJ/XQxAiUx/G+X6y1Zrv1nXzLKsvQRI3yrTorEjDvfgaoP+3eSE+wwEhPhnaEbkOJIKD3GZZG1T++bDNRkQBxtfFXjrYdnyqXo5hPvgsiD+1rdrjf1WUwlRRCA3XxeiII5bbXP+VC/C7EA5KELEmVJGOO43c51UhkLWi++0hst41NutlVBJB/mvbVb3+mMSDCfh6LApaSjVZSsjMnFrEb+vg9bfkGNFH9uVjaDwe26AOiKCevb60a/CFFjpSd9V9x1pPHiB9m1PGi3hQC2dqyQnkI9Yk6s3Xo872QtLVhIOyWkyjfqPCzArf5DioCzfmob951LW8hG8CCov2yg6Le4chcmnFljgbhe3gsBUug1fXqelB5JOn9ZyQe91CqCdibajOh6JRR2Bt7orDlwHKaxyEBge/bKxRDQlWz+rbuYfkONdsF57N56pXSWe4VGvJ59a8AlvNwamcD0edx8X4Ks3Q4qKdq9W13yvo6673bAsSb+Di15eaAhVK7cfqhtSqeIV5dK3Y1PDNJ2GuE8E8MiWh3HCd+BuJPFj0HzcUjEW4OVzSWeKpkpmxNlvXdB1uLEtk+FeuQFzhPqajLrhoRjiHLbqppLn8biHHxoNScX/4YJW3JQuZWulncNLdgb5mjm/1ihqpJWSZp+iH3RozfojmA5a7y/nPWm8iQ8ZgQwCq0U6SatOH6r5/927dzMln3shI8Zb26y+HtqCrzQlu0N8mVD3YMZCSADXtWGlQa30rEAyDEhoeDLCkAqTAfwVpEjG5MGmhiX5PuqdGJ+3lv3oV6va6tcFW42/Jb0Qcw++j/grPmAUGG6tP2r2TnB6/gpyhfjvHXwAuIdpghB/Gwy+WPJB9XY4IJs2cxzXt/U8QTONzH+hX3PGsobLaQwSOBJnngnz3NR2MkiiyfCw03hS2vxdxD0GSvUzf0pYQrWjWptTTjLPlkvCQm4EUs8uBZCyV2QnV4LORMM72Uchtb4xTV5MxiYJtklndArEOgDeg25e2M1g9hWi00L5j+Pe01r/C0SG39LBVtGZ3QqAKit2Jb+qGG5uufTLtk+gZD/T0q7iQrYI5Fm4Z7OcNBV81Oblbtl958lnknsFwUa5vt+TERmcpHm1pi9ry2OMrqV0Mitq9xwrZPTt8+RDRvAZNibzxF9vP6QUNNSYnVY9Sf3ZyVlILs3tfwzzD4yfNe7+GgS/dseOS7tpQzmfdKajvQIE3pLjGVbT0tKoclIVYdxwvn24ER//jn1srSlUz/Zj+ux8MnhdJc1G4V5z8COeHAob9O4XLc2NPrZQCBoEG5XmYU5fEHE09Vyj37LYkTWKWo8kk89K+Grd4BNG4LoRWC3SOWPquAwQ02j4WsssReamKChNU5T34C2LeKUpBY6BO4ouGBxODQRh71dZahIfyoIKNVwQBPe7yChJRYuJDV4okxu/s0inLpU7MhpOx74CSwsq4z2CPmKJCvd2uorPmWkyxygmdHweVSJNOlP0hpHBF1FqpeYPirP4YiDvCptCU6mNw+VW9Xm9fKcAurAkMe/C+3LJChUmTwB23HqI8uA37fpaEGxW2+9zhGSOXp4m8kvom9B/yJSX25zJI9FZkHSmP4btvX6kbDovRp09U6Ai2S3NoCRl397p0cw3TS3WPo0GrztShoR9THRamG2vd3ei3HbMo1+yXoK1Z+OeSiUjBeacF6cTNZXCIET2YxSPbbX7aHqoY+bDbQRnq1zeyqho5cOzfmPNSID+P2h0XYvMnFpTK6hGsd5BfMiQ3AvSSZ4xVtKUJH9Zk3T5Qc22lL0a0inN1gsP213crYCCYBijqxxRc341f8Wa2ipvy5EIvJbAIlnF2UCfIT+MCNTFABbiHtKpnDvVPhc2sNN4ctJtPEaLeXBzrDSPtBRT2r2sNz5o3pla0tD14pNG95NxF7LP6Qz2m2ec4UiSjbo/iUXOOfjCZTXBzciebzECl0FgtUjnlUo6JRw/Rt3dslKX43emtVE0wc/4+EyPGWNYVN8kjQuzM6DERMgw5eO+FFHKQpq/s0infp0d6gLs49GIEPJXWmCjwL7NMESocKPwG+X6wcDVNZplk5u16HHfumuQTvO6ExCOJkUt6lNJk/Bjr/OyXqG92rBchTvl+h+jmGwxTZmHdqlWfjB4IEUaKlNxME3Cs14TnbRIzCws2zYq7VMpPXWfMc4FvKrdjVszDoW1vh3Q3q2+C9p80hmP+3u0mtpsnQ1QNtM9flMCwNbKLRWViV6kZtAolBYmYLtZuOMLUoN1QeGQMOoVXkSuOnJGnZe7Ff0FZsy+7pQ/47oAznyjA8LMtOImMTz4SIW2ROtAKLfdfh8CQKotDxbJ1EhDXVEQlELJ2lAxp9ZZQbuRnxBSKg07FdK7QKKqGV+8e+jXYIiX4XjiC6h5HmOszaBxYn+M+MGS3zc1cXLW2oRXrlcO0OyYxLRozKMiV8j9h8iTrNL6210WasEg1dStg80ascoiRh6GDUaHIQM+dfhj0ACXJvtxuotK+eBprRbkhdtD4xZwIa2adFPlnUaD5q7hsK9uqOnJY8tBncG3P4I5EpqiX5UtHuTMbs0RbFGRE6/+VR3GkevTbNgl5LP/IAKrRTqv0KbTbct43H8pgjPDsCInDMPfKDt0iStqRjQ4nCQfM1x/dH6UeNKhEW1uvJUZpDPCWEWYsyqVrKnmo0pc4SmwTC1+LyY9l5GDlZXr/2Q8RQNZ5u2UwuVP4jmaGxTLdE7TNDmnJb4UBq9tFsGCs9IVDi5SuKUhzT2yCpbE8ffx8KjbfCZdjjYqzRNDrySFLqDxfNntn4IrUmy4jhn1zmEDRorMIe0LutX8CEQ4OY/Dz8PB4SDMmyntOpmaSmxHtLWYRqN3O+gFUig972J4BCwYMkulslx/2gWnKHqRIJ2G6PcQXdcftY5t00ZlU0t2IDg3kxRthldZptJLXqDuVDsYSKqhGMa/572Ou4AKAwNpJ0O8k0pbfx8TF7cjMyxZ8zSNv4hYBIYFbU43ozFBfUH2q9xP0mp3Oynd8mzSI8XDynbcfo7OjPHE7qwLnMkPMxkdtJVZqthLIvAtiTGKpGN77RYKqyNzpps4BKmFFlyjKGC1/jlFF/YKgNPoAzoqUUWsxyEL2e4hKNlzNkVLvw2z8UNEgeNh9x2SbHGe+Umi0BPy0xjSZyJsI6Azx2J7bLQoBUaEdT/t5ANELZWhhXVWfMQIXBUCq0U60zS9Ku91L0Dhn8o7XGijaDTBL7rW+aAmPOtALayNMVeSTkNPUXyR2SPYclMgQoavug5JpyHD8Ek6VYF9wJxDvCc7XIs7GKnH3BlO3YADP+kkEqNKldEvg7Nw4U5jEKfhWX/0LUqmNMobw2V2n0N0t7I1azBxoidpdLyrol8h4I49qFXmFMPQSFaqB3fj7bDxHe7esYzWKXxHi5z1oiG4DX7thdHxjrUbEwXPMnZpQpepLOls/dGgNoIg8No+TJNObIEhxS4N1srtv9rQ3cUMOn8C028kD9+t5ugLbig1NyCrjedSZ+Qar1Ff/CiHgblvn8HA3KTiHCdjQ4sqPAXXm6djHdCRJN8/jYyw89byxRzSST5/pkmxUXi/pDPDnOAJWiTbXoBGTnMOcQA0vBuNnUXrEOoyKD+T5NW4RX7fHmJEG4ytge27HdUIiqHMk2a5/C9EOtMUTY+2fq9XvXJKucEEfDKfjn02nTqQJ5UqV1aapvF3uakpfeYHozSNh2BF4A8nHH1od/KCBsxdIey3crHFlpxNOlOU+1qWP8motZ3Pquf0Dr7NCCyEwMqRzjRNryJOZxKf+/SsWohYaH0CgNTQFgT+CCkmij7SaRhZ/k9Zq5sPqWNpim7IWdU960AX0uY9kMhgrs6EN8emcybppNdP4/FbiIdHf55JApORPtRwNDHL7iOdwk21qAPQ0GCqSUPUf+xaEc0ZLqUJWl4h0y+d8j3gnaXHjdbb/sBeTshVhCH8g+XB4PjPTnO3WgqC8qNa5Q/TO19KDWdYg5kwGEDRhkyVZ83Wu/7wdDSJst3SBY0c/5XcUcZbrfa+DhobWY9Xm3QCP8Zdmrabo69WnE6ID3Uej/8og7PznxPDoDYavNwMAmuZgc5PwdYWhDf4SXleBhjrAvGY1sesWnZB73UrN8/J0qSTrPe06wmMEmetnbeTCIVAcjMzkp+pOKyeNy90yS1eDumkJaW/+2Xiebl5mgXBQIyGc6R5b+5x7tZBs73X3++UsjsSRajLXqv2Tjqw4627zWzcfwrbgNXh/3wzBqypPQjg10SEW7v64W60MK5lRtTzkVikZQKQaTRwaBXtnoxgk7E8YSdsboGzAAAgAElEQVSZ/K41Yb87agUa5aaCdzox+NKoX4OgATlB/WbaVFDxZooAMkt3XSU6ohBpxdYnGpRkHCtlp+Gm53NG4AoQWEXSeQXVQnK2/qDeOhxOlNrinMKLEKeSCh3De92zleJFODLCpPtIZ2q4kxcbKloN1WGaRN9GykSSBgh6veW9Hk0Gr5s6zLgmncaUlgiyYryuoKOsxePOb5RxEBjxfr0F1vB+H/Qc5yHDMNQeyvVDwv3IL3Rx+VM6jQYvYJVf0LIcKW7ROSBxt03QfpZ0YnmN6ktw8FdWLVf4p2V+qt5Zn309palE9sFFHHlXPnYquZBwVwXxt7GKtIAVwfkyG66ZrOKysnNvnE4K3OPIwL6BOHOLInWrsokQP0GwbW4opW5f1QGtN6o+G+cc+iUD5SgbkjlFmcXAfI+aDMO8LwygjQhoiNvP4kNrRf0tECnM7NyYIgkLPF7naZ73utPKsi7ovX71+lP61jwfjnyv9fu9D4G61qoQcYyEr3oJigkR28KLYYx7VMoP1soDThTpBJvvaHI2HBy2qkAK19cxjJ16cPIHWjyr7cFUTmg+YXDBzBJOrPM18jQCi5i7Kh86QNNPQU9N0gl3BaWrHeJn/bXXQOt5ESbFY9ApdPoZOm69chHS2f0aEzjDk14HwrKWSvc7Yu9LET+rObpIwz9B4lDIjiTyhbBqVbvey4v8ywgsi8BtJp0W0bBPzCHDipoOm3xQwOSSiH9pjIYGiTEogthRQ7xgfbsCoTpf1iv3SW1qrK3NiJ6QvLC5Lb0dzSU4jVYiP9x0DvSt8o2kAVHVceN0WtOJv8Cqjwh2i1sigTpMxV0HRVnXDL6jHpmjobNIJ5isUbxSd0jFmXWt3DoCM4b+PqihHdGpSTr9Oz6jzrpwx7PX88574aYF1XemXjVLQY1wgjHaF64hJtm505Xvzo/TaUI2+9gCTSXFthNsjI57KkDjt15VKuhpDy2/vo86koFAdEIK+vXys44IHuZ1dYIQ9EOQ6KB2PswyXVlKUo47bSdvLvBLeny/18K/QjpJJKYZhqxDMtqHtdPWS5BhyT8RS1+7Gckbmd9J/2CgV7/ydvINuVdgRpYlFi7sgGVC/KVtVJ34mheT/DidPb+3InXdoLhzNLEiQtgrZOvVC5zQUJP9cNxHp/H4EI2S16rSYjv7GZJTDvJ74vpr9WOKy6uyO58MDjsiAq4aDNXBWnlnv9U9GpJOg4hdYWNdb4Ok8oGuHhuRU13SGb+vAxUz18xiBM5uoZQioZeGGS7pBN6pAxXhOEPRVWkCsoMk/D9DM9LpG0EJzDLL41zS+a0LQ4SKbayQgYP1oiKdaRrhbk8EjjcwLbxK72ni+L3JcvAvI7AwAv9F0rlubvsLSCXjg0xkJfWVGqSEBla8IykgAR0eC3alntIHBulMUx2rTyegIzOZUgaZiYw3hscY0Nu8S8eF0r4V7ze3wFRsLVJ1ssrscWL1J7Io8LBSsSt6sDO4SFPJsNefdicZ15zwPXnDiPdmoyFapHPPKd6cUyXegOoblAsqcUnSSRpMOZ1IbgrqusVUUQmKYfrvWs1nNb1ZgEDVSzrpjULJi+1o9BBDIA3hS3eP/bwwQzrhhTDrC9vQ9Uf1GgicMlvRCCoTFNDeLp9UyWA9n63+scSJK+czH/03SCcRO8dwBdTrTaCcWaWqIHDWjgxmHeQx1YXme7lMEoRAhk2VSYnlgH/3Lm4z8UJvWKB3JMKFsXSPy3yt3naX+cN4pyOGFuXm6bRLhdHHjPSLHNJQM590kh3nvaYOTe+EtkhTImGK35Nri8vJhJtRAMtOQKPbPx1NfsRxgjHnja/eECVmYhF4KmaTTixtVv0t/J8ctTgpzdRmuR7Sqd9HZFHCJQtm7CyVnOGiT+WmH7WOckknDBGF9Q1YzldfdCA88+cwtjZsk/lcjFr/H42oxZwo/Uh/10r1l63mE/gOrtXeRhaLf28tAreVdKbp+WR4CFucy+3UYXiqPGt5tirGxk3CUW+vZuzuQ1ui98dKvCTtlvADNSgg9Q2I09aRG9NBEvG6U2lXrrqQvUt7sLZZelTvOFF7IMKo2oOnsHmvUt/XozTkNI1Gh83afbmhEeye3Opr5xLxsjmk8yIcvGvUhERWl7n/2QkXp4ouDrxxpMWMuF0sgo4GvKeTz/1ZWYFGDC35MpQUltaHVY8BllkQEhXMDOVzZaSTSJ5pW3aO25nO2Hs9mRwfwA5PpXtKmE0je1aV7CWdyOylDZ9LOk0cZhzPIB/JpPsYY9fAJjc1q/spxvm4F4a48VLubtEksZ4XLju3hGQWae1+ZKT9x0mn2DDMlDtCceSmkR7JFnRUFBQFQWbDW6MmkOys17I7w/p2qbbXw/gDdtI0jU7bNXI+W9ssvRhYX6O5Z/rMvdfd5ZbzEhqFlIvbRrH0pNE9yQxWzlP5p4uSzjRNvk9k6C7MDlXSSlgeHtYgvJ2lG6EoELYjzjSOfsSWpFaUDb8mSTqFT7pihyoWQe7u5wbpFCos74pC0MRgo6b2JDM2cMeizCKdtKQ0hoKLUfPRTl8pl2QwO78Gw2iFXNKJaeaOonLDiGB9m6aS9fJuT2z2pt6C9g+igTIrBJWKDxiBBRG4vaRzQQA42SUQQLfHwBAICROF7eYwTgX7XNus7krxgxNVzjgNP+tAAWNlfZuSomqm3GVB0klMz/5fikKV/Mm+Hbj7jNN0MsuLNoshKY7F2gO9iD6HORZRQl7YOJpEAplw9LYOO1K+EMpcnNHR0EJq1aWASorNvNeJ78oJWJQRVkdt2ji08LDVPahjAKagcKcFL5N6NG3fTMKeICg8bA2NBRjkRhZshiogC8OsKzQrm1TeSm2RTmnSDCnivyGqS55Np9x/FaNffR/393BTWVM9ar1FnQgaYTnzpmn8kbYp9zIPelbyj6BQ3h9adErl/R84WJx0Ao9XxoHCzh6Dt0+jIVraBBu1vhHWDMC7GLcfQpvjHj+z0ZSkcxqPSH9FlqPqIWkNlZOVIJ1hPGxihLtcMb/krxBg7igEddm7evmOYQZAvl9r1TZtAmeEJ+sf1EBgaIyfqnR4IHvUdmtkGHPYacTZJUnnNAlPO3KvZrFXqraGCgqbj5u900lE4gBacv/WBXXK9y5EANgXFqHeIvFFRmA2Akw6Z+PDd70IkIxKy4Rg/3olTqAAhHr3eZfS5ZwDxbQC6OTSESzSgqTTCUmI+9NYpPNBHfekkaFeMBKTVHvhi4QAbCYD9oCUhN/CBc3uxbbaDi4GnjSjO/cXPSXSOY3GGK9U7JJghsSHbXIqlbfj8FRszbf+tGfp67/3arB/JkSeN20DcG8qw+TAA8KMS/Hx/4BGFPV+m05ik3QakR9ktXN1fHqPMZk0KBiBMJ23yNPouL7hKtDjDw2EawbjxMen8XAfd7R3nLFk3v+F36VIp9pKlFpo/Wl/8q0v7b/tTeEVdlIAHwTr5T/G+WQMSeeDev0BxuHY3nE2m4L8LkYtHJ18hBJ7HTwORcsYYqnS4IHgnbndw/IWUJ2RDjYqnc/+SiQfm9jr/JJ1uwTC2UgOaM5Nr74omRyq6HiFzcdtayU5jcdHTdwsF0qpFmAUy0LUwBiX3PfxOSOwAAJMOhcAiZNkESDv5gfdCXmZXIwGmWhzSRyOT4fDo67F6owAfni92ycZwBk6dX5qCxneo3o3Z1AWZVmEdB6USs+1SRw8iMHzpKfRqHO/VIJAesYfbunewXBadJVs7K49WvL5ZGTIQoZnvthKRjEXOjTV60JhhzIMJ2SByCsZvykXgkL5jS+KdTzqPFo33e9S2oV89sJgZinB2C5rJakfwdaRHg+TtxVDuFupH+TLFGVIV7BteFRv7nfyLGr0q+goPO45fRhYRckNSeE+RufJ5GRoMXV/slt7dSnSGZ/BmNB4Vm/ut4ROHwSQhdJz3549CjMSXlqad3VPHQhJ5/h9fdNnTS7STcP+gdcSWko6w97Oc28C9SI8mEbDkxkMGLyUTGUO7oAAtqc+wwCVczLaK1UPHWGvumsdXEbSCZEBDFdCKz88mSbh537nWXuoDZ+S8KTbeFKq7XYtkpp9lq8wAvMQYNI5DyG+n4MAGfjrsE05yW72ZXSHcp0YbmaVkh+hJ0ioVZckCi0DQuvmNE0tN/Yk/DQcOjvUWw/MP8mxN5j/IKdYOQQuwD57JpeaV2TThGJGWqsTzkh3yVsrERjomutof8iXBIofYwQuhwCTzsvhxk8xAowAI8AIMAKMACPACCyBAJPOJcDipIwAI8AIMAKMACPACDACl0OASeflcOOnGAFGgBFgBBgBRoARYASWQIBJ5xJgcVJGgBFgBBgBRoARYAQYgcshwKTzcrjxU4wAI8AIMAKMACPACDACSyDApHMJsDgpI8AIMAKMACPACDACjMDlEGDSeTnc+ClGgBFgBBgBRoARYAQYgSUQYNK5BFiclBFgBBgBRoARYAQYAUbgcggw6bwcbvwUI8AIMAKMACPACDACjMASCDDpXAIsTsoIMAKMACPACDACjAAjcDkEmHReDjd+ihFgBBgBRoARYAQYAUZgCQSYdC4BFidlBBgBRoARYAQYAUaAEbgcAkw6L4cbP8UIMAKMACPACDACjAAjsAQCTDqXAIuTMgKMACPACDACjAAjwAhcDgEmnZfDjZ9iBBgBRoARYAQYAUaAEVgCASadS4DFSRkBRoARYAQYAUaAEWAELocAk87L4cZPMQKMACPACDACjAAjwAgsgQCTziXA4qSMACPACDACjAAjwAgwApdDgEnn5XDjpxgBRoARYAQYAUaAEWAElkCASecSYHFSRoARYAQYAUaAEWAEGIHLIcCk83K48VOMACPACDACjAAjwAgwAksgwKRzCbA4KSPACDACjAAjwAgwAozA5RBg0nk53PgpRoARYAQYAUaAEWAEGIElEGDSuQRYnJQRYAQYAUaAEWAEGAFG4HIIMOm8HG78FCPACDACjAAjwAgwAozAEggw6VwCLE7KCDACjAAjwAgwAowAI3A5BJh0Xg63/+RT349b+63uWeyp/Ndu7Vmr91nfit/vFO9XGieRJ/EKX5r8/+297WsbSbcv+lfsf+T0h40+CAwGw0AMD1hfIghEhOHRDowgMCYQkQ+jGwgKBGGIMJcc5xDEQIQ5g/xhUCB4IFwFjHI3RoGAAkEBc/UcfK7YvrcPZtNsHfqcWqteVlVXd0uWk3E8y4SoX6rr5Vdvv1q11qpX9eZu+/DEn8XZm0b5Vrnzwf/2u3s6O6gFQVA7WLCOZoePyuVbndEllXPyaru+2xuf6ejCw0el8t3m4FQ/+XYX04Pt8q3t7qfo2yX5DVKaR9E8O5lRKwiCn3oLtoBEXPB50JJNYtpvPu6NzRiQCH7pD04HrdvbvWlqvNGHdvWXJbIUvm6U7tb3ji6Kh5WRcHzQqv7QHF5am8IO2DiE3E1/bzYPxmFO/VoZyrqZR+GZndH5dHiUjmxWXL53bj7DwweFjZu17hcSeDrof1ig9UTT/uNKeWdkZ5fEs+Dlab9+p95+M/HFM+3dK28/7o4WyE52asuMseHgyXZzfzA1GRp3bpfLP3fH5kl2at/HWyad30c9XVouw1F3t91e6N+hO+QcixnKy1HGLzaDINh+rftoNHgcBMHm3qdFMx4edxfLlZt5PwleNFkn3Kx/LwiCato0hiNI69j5Kv8W2Wr5Vjnzn5xOVHSjTk74ZGzLMcJlBsQ4jme9n4JAMwzIJcYQZPztpHHU8R40mb4mndGgCU1mrMr/DX+Xbq7fMG8XTSoctm8WSjvDTF5yiaQzmvxaKQRBsF7tLEIdLlos+l103CqJFLf77lAFoaJReysIgkLtwPuaxoTXYf8+NMGPyVcXeBKNdkQTr+wvmHpuEtgBa73TOI6m/UflQhAUbjZ6n/SomxpDFIbhmfg3/TgcHg2Hb3sdMQU0t8UIU1qT/bfQfKfZTTR6LqAtPRnMXL5oUokgztmX0fBoODjotHdb9bvl8taaGPkphuFhPShs/ExrCbt//dDkfdK9LSqr/Kg/TU8R0kZgKxZhNZmCq3NRWJExUdLm9q1S441JCcNO9yuptXPaE8vxW92JE+3ytzhCEmDToxAoCeTGuvhfuuUgCB4QkNK//o7eMOmUlRV+6rd+Lm8Usf8VNm5W67+qdc5s1NvZLv8gRlTRLX4oVx/2vOuj76DisTthSXL+BwEG9F4pL0klnQkCofvPwojk05eU3HpJ8MLJ2gHzeA9mMo10pjHLxpsZfFjYuKlpIgz06yXDQUXrgunE5AgIQXHDhMnkoNB0lczJRKKuPnTKt8qNN5YIB4uzMIBppHOz9sRdCcD6oS4G9TTS+Qk45/2+ngrCNzDkvvgzOGc86d4KgqA50HOugi2OY5xZcc52/s+TI5JYvv3l+ah9UwxZJSkTwupL6UWex+ltyZTFlnTG8exdqyyG0EJ1UZ5n4rrY1fSgJgq51RqdOxFEox1BmwqLz9k4Nm7uXVoTxAiLlyXsxCWxGSVmbxHtjfax3XBnhw3B/Jb5w3HmPuGF55PuPQFt4c7eGLCV41t+zGKgq+0bwha+3g6CoPzKPIm9E8T5pHsfsr2+3XWYtBDESt4sLr50a0Gp+cfUPAwFAqOd1CIXHg30UAMNZQocd9sseknzyeKjKlhGWnTrIHvKUJGJXzkAPjetD0U59QRdpl99j9fXmHRmD7LWkBodNZN9VK5Qzw7rkomSBn27e1mr12/TaGBo3my9t8emBdKGrqWGuTTS+REIBBnccZQpvRiZQYEOGeba5Ac7Z/MtGVkw2KduNQiCv3fH5isV5q0QjWnONH5RCoJSyxl/FyijCfKhLYQHaTwpjrNHEEM6YVxe25IUU5FOBaNID2ZrkhDETAOoMItufXoYoSlXHMe+usPibN5remXMCRGyJwlftnWybhn1iziOx8+FEIiMpyhkKu0dq8pNVjc+cbkFjfWi1zgF+gUbyKtI3zeXTn1lpq5nWS3GcIJDBZm4gyAobpTv1tsHo4SoCStigdTPRy0h6kPeGY72k2sDWBhs1pqerY/ERoeTYXHrkk7x7KTfuJukgJ6PL+kRkMtiufXeIhVSCOoho5DsEmtvq07oDSw+M5oHDZt+TQaBXECs0RhDzwZ7LxMbzbp0dFn7s+rm+30h7Dwajk+gr2V0qPn08BdB3IOtxuGpHP3ksKZi6xwMRGzHk5nonmY8J2VBelfpUp0lXHM+Tq7yosn+tpiLi3XUIpDx6BKlAQnjJOBTqYvG3Om9HQ6PRpPTlFzBnFV44tV9kBnufPSNRaqIo5dagpC4eGTynj1lEJSUlF3vDc6lMLg/9WWDDo8qSyS2K33JpFPvG8rmLDrVzY1CIDsJLnrkO+jDG8VL3DGxG0c0bIM065K1Bj/tlYKgQHu4s3CkLRiutQjHGuZ8xEURiELzSLX9+XgPprq08YE8N9Q/tXPicOPlXk5+MN1ic5AxjNp4O3eTV2I3o/6aLKARGVWy1Ew6EUHGqEA0Qc5cQpYIoGZ0b8Gd5MSthxFaoRys4B0Wh1SHdanZfDQV22fDo35LiAO3OzBjjUDzCGKodj95h0XYLvfOqTieUgkQNFEr+bQbb4RWUZe/wSnw6dD3JdRUgpbVxVbgArRPxYjLsCAg3US9kr9QQQFlCWIUgj93+3hh0hnH8bRXKwaFm62hRcl02lC6jDYGatzeNYkRZgc4zScZLT65BMU4nV1RoD8SCT1rNB45DxsVkBSUHzjPlbp2UsvoSU0sg4qVhod/u5EgIKD5jaQzGwH/5+2HYifA2gqA7YiMnY3SupA8kg0TSneIck7GmEmhXOR6Phs8KaGwHIcLOqwtEkGM9I7OPnE8+11sX1d/84tuwvedjiM7wAlrNh1/cgbn2eR4NJ2FoZF0mjnFlz3sO97BRXVnlKF4gxAZhy9yz7NFQTvrC2kwEWaFb+qy+6fkRD/WA7Un+Sv5iEmnmt2hDg0zUwIJYF3wjrIZ9fZy6xQF7EJvbnmtwfScYDezF5o5C0fV/eSGhbr1EZc4GjaLliZK9K4p5IV3Gu3ddvMeaDU9TBl2d400JbVzZgygifxg0qULbtHiHqvuy+ZC9+rUTDroQ8ZoJcKHCkYR+AqRzuqrsV8gbVNtAwdcISYIiPPKuvVxxOhItJBNs5EUDR6LJlMR1KEJk3/6LP6Hf6JyamCRW9O1rRyrG0nF/LTMWozlJwayk59qtWIQEI0C6zsknQ5c0aQvRU1E00suMGhzsmJybqLPo4lchiFDUgXM/JWtF3OVGTLv5aL5dLKddptTa3m5ob2SJoHCBdIm6cuMa4Q0m+ikfJ6s8ZXQJjhnjJkpecl6PI9jmO8WGf2is+n4aNB7Y0xfRruCOznsH9ZsQSV1XrDmC2XWGQ131gI6C8dxfNoXa6rbUvkS2kZ2XcjZEKShJhWyhoyGT8TglFQZwrlMzwVZiMkdgMy2aPd0bH7GKGKOGq6l7aft9m7GdoQoQmJLKjNrV+DlX4N0ZizlRR2YsTjZpMwYlxPJ6pWJAnbRUtNGxouk4d1HwFHpySDJNsavqlSEY02uMCY6EElJsAZHijklx11knMJCpYbMGECT+ZEitPqhNk9ZHLKTrpA83K5bch2QRugip2bSSQUyRisRPqQiioV1OjMHrsRLMeBGs6nHdiSJldIW0KVzCmFuIxRkjrt/B8VHIv0FjYJ677NX0jncu1Uuv0waEuHuldGLiFHMKVf5OCtkzxwma6tc6Q0yUIdN1M4lkk7og+VXY5jP7OWfLgBUkCX3wldy+imQ5oQQEZKhI8m5mB66YrzU+UzN9NkxrkC5siPOeAta5nrggvEq8C6c8JWjsaP3cKwUzgdi5RwkNfzAmI/sllpfiZsVEEjWuK+T0hRhNE41czQhM8ZMEyjzah6OP7qrO2v0m0dok2TbD+kBySBpJlD9cskL0/JRbH+vpyyNZn2hdWpUqiCt7KHDP7yYaU7OAh71OSx+/mgpcCU2oGAKolWthBgbdzAo6UTBDZn3Ucypdv+hjekZNrPevouXV5F0Pnv27MaNG0EQ3Lhx49mzZxfFEZsXNPD0Cgu/DPbuJvU5YdcjHPd3qr53pFnPZ6OD1rY2AFwvVR92Bl/8W1nhp377YVUbJK1tCacMMnA47oE1YqI/krTCcX+3XjWbbiVQ+RpO/KkhbLhuozMWPMdRibZ7hTJ0LTOfmd7o1QuUeifG68r0N7Fvsqn8WVjjlErC+4sht38F40rYwEXFo+HrltjzvtXq04d4/avYkXBGAdwiN0vGOB6/LBeCQvl5QvPJzkfyQ63cXftd2t/I4rwdtW4nVN1pbDB5mLFS0ju6eobJnhBcWEYb2CEyGGsSG7sWJzYcAgWEorWIghQ39hy/Tr75DIvjAEjLYV/b47VHQ0OKRpOWN9ZMr3avZLrzKRjFbyplXDsVOwdf5y5hRWT1Dv+Ib/WLnGxhHyx3v8Qo4vWbMycpiIoWWyapJoTIaS0q9HK//tJ54gjHY6qTJ0PA50Fr6Nn5iWanSlTuie7SHmW0YdlbF9g1AnXwwLdDkotPOBFj0ST0dAfvSsw8jE4nYoj7TIZvXyelSE1/E/rtdGChb801NuDEXLLgg9axMl3/xTIkt/DE5kpihOms3X7ZG4AmpdXlTc7gagWj7NnvtY37XZTcz36vFWzXBCuTTrnlYlTFSM4zWhoJ5V5aoOFLa3gRj5TujarZ82FLbBDqDp7bCN1Er/j9lSOdP/74I2nJ4vLHH3+8EIiLkE4cNJ0E4XZnBC3Y90p7jZkNWmAfmghUqLww+wsi8/PZ4KnwcJH8g9XMqJ20VZJBFemERV7yc6Hj49eGBszmo5aIOWGWi+1+ZUkn9iiRK6T1sNkhdMCVoNHT5VLq0kTlLWT6QzIZQ9TuiKaaQbGdlLmZvEj2LJgB/YP5vtBWBA4zWXtQh6VIobI7TBh5wNcwItO5AT7Ug4gSkBDSnwigwqSvl2g+hQ+VDzD5xej9B9KiEyEYXTkCoQwpkZYkkcnDpoOeiQ3bqqdPEShUdajVAswc1MTYTsUu5Fe5QxOfe31j2A8qnkrhzD/iL0E60SUCynGxmVGvKLpI6aRTtjrjThUhos1JxyIvtBAXFASFIy37idYFBIl7iocE4+sgHDTXg6BYS7gSw7qmrnZkBoTlYrHcemdAdbN4SfcJcEy8+Iq0PfPKuvoCWxzOvq0M4a9963O88XSH9DEL3ngylkc6PSWaTwYHqF9NMoWZSanWDJ1RfCUsCrQh+VajrxYbVuqQVZAiR2ik2HpPMpB56V3eZ36BDkqh0RoHIOhqZq2kfHo03sxWJJ3dPzpisytlyKUtLfycEI44MhG1lkALdKuusXb04B+NgGKKNgHBotEuOKsySmILN8JMEK/Oy6tFOp89e+btqReSd5rpLa0ZxTHuN4HYCRI2lrx/TFFjHbVPxEsjcwJNRLntBZ8VN2qPhXZF0whNrYF48gp0xlXZCj+UQSVcMEZYVEE2UJMdwhBlF9R6DA8fqI+LG5WHLeFiTYo8bY9oTstCCwliVy7f5wyRZj6zJldnTMQ9qWJBkGnRUUHnJghqRD0cO6pHfoniAZJbDOnshQnqs7D1uozM5dmyD6899Roqyo9QBGXbU4slKMBunMnpYTf63N0WSv1B4U57qCfWMxBdHA2HIILVpZ6coeGnQXUxnU5owF6CQnBzL7FS0BAbeYxqOBf7JcOlTQehCZn6EqTWkE7DbqH6dCRS37comoxYLUTDloCRshlMRZorSWm3HtDVUO6WepX798L7LPXngqrVyrWef8S3+kVm6ijG0KJ3MNv3mRNhZempiMQ5fCqqTuVHG43R5kRCw6WmmNqRlsf+xojJjXIblaNTXTHpmcjlnUg6g2CLqpzGMnBQcizK3Vxexj2lAk58urc6z61bpb1AHCnQ9/7apyHkdTQd6Va62OA302MAACAASURBVMVErcxNbNAGzBxEKgi1HdD+hmZVDlyOojAO73QdZdJY+EoLSorSI6aFJ2RV9utpT6hkmUVRdhKoXWP237NDw1uv4wW30XaPQ+iVhoY69BoWUfYgptI23fl0NJrG4Yf+wFUukMb7WEwInzmgqo6MIfUAKBJEHym7UgaC3KAAQ6IIBmAGm62hMYeFRujd6zsaJhYcqkhX+PdqkU7cVU9W5o0bN5bHEJtXMjJ4otoERKuGTl/PMc3LXgBpmkJ1SuJYOocTaejwSmNDPNwiB66cT0cHg4nemSJE0GqjIouTjrYHpza20XT0eqQ5TxIiHKQ2zZpJBZkdNm6Vy8+HWqClLyYH9fItYwhpemNiex33pCqvuuZQk/m099yzI5NSB0qIC5myRjSVTfGLsGgw6SsY+BKDHXqzs2SWkd+Xh44Lx8FCoRgE1MoS+evfjXzHyqQWBhQre+gNG3lDorSt44uRTtyWDdbuKl8nZBKi5IBcN2ugQiQ3cHNMj91Rm8RjXhHdPuxQzf5xr3Wv3j8W/pNNQxVlN6TTVApUnwym9X1fkVMGTnp7v9MBfvFuq6tvpQsQRVinGIDpg9ac89MOq19kpZ+YYlFpLLkOxMZjjUsQL25xFBvEQzRClEU6VY4wpNXR1Ktlf9XIZjkh8oyc0zcNIagpll3nkcsmuFh47JKmvZGvrN5KntNLHMSkG3C6MyAdeoAHBo+/tq+jOZAygJjjKiAAKaz0s6NUU1TJcMxMtiX1fuFf4cCo4tWVgpzIfj3r14LAzDLzaf+XcqpDftyJSgySngcZ+YeRjQxNskDQKwnpFIOh0dVeiHSCwwehxGC1cxE/bU5E0nnYviskUs3fbNmnWh57BgpaieiQsdjs/irU0hDPhPG+6WVJlEhjWLhW/+yAV4t0JjHVT5YHavHZy1Rqsgqh0UAubN6D4gfxgpASkUnTqeSmdvROuJOEP5+EQxcsi3QikcJI1qrPB55Vso6HXKBsX6skkjeLXlp9hvaWzx0xtQgJh39WxgSwoxp5mBzKUbHJGrhpl7YytzTplC6CF9/uiY5hf+N+r/c4CKgfH9A+NIOpPe6ITM7D0Qs4hSUAYYCetGAvW5c6mssBS7aC1J8EjTgfd4zsPPUz60Vxo/Y8ZdPfglXcYNs2xDERgD4IvxyCyyRMrdb/IEinEckLiytDOo20BuT3mMTkpdo2og2JpiGusds2B1ZTUZpwZvXvfnbRe1DoLLZGeu2HjuKNMoa/eVv9IiNtjxlfgobi54AJNSQShsCv96rgJceewi9OOrGXWQ3Gd5McBkUe59MeeAtfe6z9bOPIWSptic33/mk8PUAni5W9j1bvzkBouVe2FVF4FmaoiHgNicKzUGuMSF+eWkBARmAfKvTZpfD4RNGhDZhdAugCgydEvQ8ml4ISktkWeCS2SyOdJE5n9IOsqqED1MNAsBp+6ECLDQo3214vXeigFwR75fozs7ilK160E6cDr5UPJf5QqZuX0CtN1UBrdwZV7DuucwxivS5iQ1F9wVgsiYf+GQolSsTVkckNfARH3NWI7g51mRwe/iJocf1N6I9cxgW9zLPygVHx6/QzuxSXfHe1SOf3I+nMZLRydJLNnQz0duNzqpIMecnulPDaVdi41+odZ0g5Rex+VkESouOoc415sCZXyhVEZ0OzQf+sjIXL7EtW+dGzRrLgy0s6wZLGJ7S20jM3qDUvDFlgX9UsDGB8tGRg3uJM3zQazvkr1ogsUoIPlzUkMlmM6blQ5DFeCsMdcFOXeGM/mE8PH9Womp2/edgfiSH4db0CugTQQiqt12PhoxNakbHKFP7wDeks/KC0BkEJBKtVbA6g/IA2JDc57Flm5nDfX+499gUq3naf+Ju31S9SsyTN+By7BNxwd82JABOnD4rbYrnxmkqCNS93ZlNvJlwwsQGbpUJSdm67a3AjPR91dshWBqqrBq0BeklbXxNqE+vbPaUF6H6+8j22WA9KyzySgwzVkkeBQtJ5Z6q3GuXrbflddVdj5AM5ahs0PRzGb7U0kCmqcxGxcrUFHgEX2zBKCpfIYc5WrTX6WUMcqiHVGmgLu15tvU45FB4Fe5utwR/NQqrPWlyV2U4enFLY+ksCUoARsDJDB2TY6SYZEzcNKY6GV6cqSGCt4iuwHeUZ9Vj/ooN3kyXxgox+0/0KUltv5CoW/xCk3n5/v1eLdH5znU6sMKhUGLacDq95m3hpSTozTH/0+CcbMQp44Knd+JzWgiMFhvNZXM7e7+HmqU4gCIK1ux08o8yJTBYMjgVzmRwkZGRR6BnRaKy20WsxfmUNeaS3iC3/D2gsldUlMvuSlWVIqNT83d6kOBoua72uGN7iOkYgwnkBu5c4iaKCFCpH2kvYRYtjjciimOBfnY7pABrZP0oESIJDx0T6Ngt/Ek5vj+5pM37AnGyRq9DR527j0aHySwKMubhR29lrCufwqg3DDG12uMSG1+E4DMPzySF1HUeDzScjFIDZDUkli78uT7LfXvJd9KGNe8Gai6MLMKJA6YfX6hdpmaJ6NbTT4rWjrQuYKOfw1brwz9ftH0883q+W8NPpgpnfgLOqhpRzPhvtN+DES2wSaPYbBBtGM4eEvrTLpGZqhsfHNCfBotGGQzirqVA76BntIE82/bVvApJBO1nDCz0h04qsHdsix25pMO/AQZ1SPTqpp6F323B4WSKHiRFGHHdkdtUge2oRbg9xmPOgWK6/zNpmQf1FsdxCTRtSdg2p9BZE14FaySoDUBEV2FCSU0whV06h3B6B6dogwzNpQm5sM3xiEVBvkJtj4figVb3fs+RAuEhwlGtpFzsbj2BFKaveN+9LAwAfVhq07+viapHO/y1W+bbW67LJiXEH/hYmnWTB9HNn4NcclyRDdkgR/8UlnbJVzaOp0KhTR5VAnjOs1/2sAoYhUlIoC23TZECxeiPtLaaZZ43LmX3JRBHHsVFXwJpY+H9SEBkhOhZJPrfS899Eo51N4en+Y4zjo7b/wOCLFocA6E8n4Rw+JZh8bNWCGzQLfxVWM07rfEJv84g+d4UP8yCoqLOSleNP/3itklASOMKkySv70t+QMExuKnZUK98pm7BC7dUkkn5e6WHZfngza0TmCaUgRhiszGzLt9CO0MjUxQeACd1eTy8ZQuTMpt7gLpjYgL1ZklYXcIJrVt+Zh+PXLdxCDdCIENch8sjNArUj9Obpch9CRSgmZEed3lvDwSMtx/LXr4op+y2sJhODf+e+sExrvTbr5/5T4fZNWxZawk4i6XR8ZUAeUIioVnrStLHW/4KORakFnsqyakvS/QKSzrTNWaXEYm3i65hsGzurzTtDHO77Z/hRieNY6S/iiXFAmgu23og8QIv6P9F5sS6c1OU7aO1kIoMG4HQTt0fgp1bRVErRe1C7Wm+hCSqEsZfooJ+tPG2ZuUNFEKNmnaMngHaKThdLb6vLujHRiV/diytHOuM4/pZ+OqFmYGQBluM0hXRJJzqmgW9udYwxkK+i9TlDylbdF8hezLmyycQX0XTQ1KZFWviUCIaLM2rtKIJ8c9LpH22PhkQzFceC7R4eB6yGwotYryulAiKsSuCS8UA6B66IY/Q2W1ooiF9kDg0kUndMRGd+ZhIaHnWEi9H7HWv6UU771LGTJnxyGiMfQlQJ20YjVoWD7ISh/c32yNaJTA6j09dgBSJO6x4mZGxkvEZDNMKikLIIW2l6kCMJYJ3sCvgk+xogKFsCHrZJioloZDqlJTWw3GU4bIPvs9KWkHtqtg2R+GmHd5ayE/XtEqoQaIZoLRcBk29DOi+4vT4PJ29Rx1RssQjN8nAIy3VFieSGNdB3VdKv/DvtiQML/Iv5rN56dth4gHoC/vpV2c5+q0JZv3KvuXdqnmblxITChXcOScIVNehEJhibigrtR6UqP5JOQsVUKOvX256RBKvJCO0KlPc9d4jD1u5kniYRDZ/C6XRqKRvHrmv3WK1b0obu6UGzdTASXup06qeDvf2xSgYqi4hIAXYnS2QQU5+pWd4JKTaohvvdsfKjChDR5Q0qzxAzfJg7SKeW2jUKQJmetzF4H6oMQrkSI7wcG8miRYW/6r9XkXReEmbYvIAX5nQ5qNTlSKf08wwfeQbZ6GQ01oMOdnsIalmvR7PJ273WayWPJ8HMtDePQO09HL0x2xyID3o7g1jVoJ8ADkcf6g5GBIGEjNbdLXB4Rp26gbQjd3tdpZY1LmNfwqIn/ye9EbaNjPWGilvl1tZtUG/93AUHRzo6xHnW6ypC8StdLKF+N32hN+5Jtp336laPifKBaWBJEKwnICbMBs0Kn34jKZ0ysS/ckx6VVRbFr0U6zyfqeIK17f2JTz2djNc+0gneeSBDPt65JOlMK1hqU6flusi1spIJ0CbMROFv3t5J2nwUx3jkdOqhl9IvLJmxoM18G9KZ1YC9fQroptLtWas87qmZGBu2qRRlmlMoPx34XdhaGK18g2MmOghLRJY5kevQ/vpVr7PfqlD0F3Uq7KEsNSfntJ/hIQUGTIgVDd2Ij2FlqGqZuYSjQ9S0hm9GO8I8RXoXRohyZkAcChzWhexZsUx05aGhdoe42L8trpCRDcN2rSVZJnr/OB/v3RHZFhsO6ivrV5nsCBGPTB2VOtSJROBsiE52ALtTKDKIkdjzu7McLUlsAKw+BgUiQ2cCqlPLlkCNFEUob2PwPlQZxF6WMiQ6NQunx2lTORXD1fr9a5BOT33Rvm0qNSl9wYlZRODUrpmlxMvCD+Vt4aqzuS33zqgcXik8qWwUfijpGdqkKB1MykBiC0yQP2zlkkAXfihXhZPOduthRR+VRJZWibYFLsGU4rl6i73lnnbEA4fZpOh0qm/g1zsh4U6xA476DPuStuPWjpnwwvQNHBkd3ReMJGPQTMkPeNrXzjUX8tOp8it+8VClICg13jgGHP7xgn4rryFjzbezyVGv/bBSfz1NHNIDrliSzvlREimPnVQm22cQeLM9pAJgc53i1UWM3OHgsWgmJftkEZ1hSTrfEwnWerWD7p90IHPhH6/Fe2nFDz6nioVCsdx+r+QD5nNy5a84DICppFivJ11fzVHYpqubpLLUpZSyQO/TPrBEDH7akTtL4cTvmBDRHKHyqDEnAky+IukMx4PjGfbHJbbXLbpZKD/oDPVaWoNj77REH/fELoGQrLcGVmBVeumJcE9LqNSLpX/RFNpgaEeQOZHroP76Va+z36pQ5BcTdc5wT8vJaCco/FDpfACWhYcUODqaZ32xJUIGRumRKih1PpNULat2NF5RPSJj/CQReNozzkd6YAeXzwWtPAPN1Vq9SIdom633CdIo9SMVOyTpxtM+ODxeWwMvDe6hKiQk9BelYalTR817ME8EbRbr7D2AndBEEZt/EPMUnyQNl7YAW87+KnL0W3I6OQQ9CmyQ2MGdlgDzi+dYqbQWAklDI0xTkDAmpMK/lWQF69vdz4lacEv0p90z6VTzCkw3hgKqGsGJWbzU3U+9ijM92lgdUi7jIA37P5qidBpnBbBIp/UGb9a3+y410vmLY7SMoW6AlOyQpAv9kJZOd2kSk7iE5+RDfJ01Lmf2JRM7ar/RRap5lzFoevODkgBTHBxlgsCWPZj47avwfQssS9bWxMS5Vn05orvM+cWJwunHQe+xdRZA6eXETkQ1OT2CJ17TB9KjE9k2om/TWJEMcz7q7ltFsL51KMWjHp4vZ4UxN/7xOj4dtu8UhF/G92NxoOXOcPqbOJ4u9bim1IaEKaWkYrJhX+HxB45zbDtI/t35pAvOgEo7wzE6/QnWtqVHAmjeib0tUHhQU04yARRyOKZCTjDkEzoMNOavRDr772FbfGeEDXhx0qmdZqzd3fOd7gvg2KRTlPKk35DKP2vV50Nini1eorpRcjJ24Mm/xZOEPAemy0/ze6sImDV85b1N5PGkB/rQbsNIywkqsuNMgfp/gq+Eg9bPKBFo1UHrQ7Pq2bumGJ3gr0AHBDR7x9N68ZhZ3SMyxk+SfQ/rgp6l9RHdQw3sOWJ2PBiHsTLLszVNlXSmpPx9kmTlWX2ySBvpZwsrs06pyUZShya6Vn8z7t+3Hd5JmaJTF/7hxVN8K5earcrYkFAGxY0S+EWW+dc/m3vjUCndJtZdkJaSQ6tU0loIvM9uojIK1NgBp84N0A2zzmtQ6VyJXyadatyBFpNgVHILUrw0PIbUHFr2/KxPGAKdtp+b3ddjd3dJTPCd+l08vEsIAjZuVusv7RF5Ho4PmlXY3RaURxzO3kcT8dmHnji3Xb0KgrXSre3mvv05yZe6RN1Ta/23lE6nigd+vSQvc9TO7Es6btQHsjbE9TvMrR98X35Q60AP08LKfr+6tsDZ62I6RMYZwIp8eogTZ+FmvfN2MoN1I2pbElVUk004F0BLn4OguFGGZjA1K1EaGMaRRUinNLP1OUaR8S00JNG0hQ7Byai3s62Pxdq4t2dLsJzgeJsYr8PJ4Hl1Tci08Kw8CACFmr4B0+Y05ym+ilNJJlJRL7y/Un1t0dNQfHFohc5fpMG+mtoL5WejCJu3nk6sC2c+M5HjIoo2QvPOXKHKlzpRDDC5bNKJQi/I9Hp17zjbHSDkzKma+bhzr945UipAJvNwJcXMdNdIhTif9H4BgpRwsg2K5vaIpD5a4ncmldqNJlLi48UGH9l9JtNRQoF4KHWvE0sODOmMA7P3bRDxelQtU3KCCql4DAHuzKKfINxnl01t7b70UWV8oH4YdW+LDQztEx4UPXH8TJwejqQzTU6mNkyShkQ4kEr1SuR8VHgB7aT1Ppoed5u39Y6c0k0q1qTbLK1Qbvu8FHV1Nhm8rKMDhMLNRntHjCTgj6XVO56aTTAR1Hi1k5WMqUtb73D6JUSXpc6mH8DudFIcXiS29o8T0m5PuIzUB0rDihFV1GCHs90Fu7HxSTh4ulF52G7+BJZqyWNZYqxoN62UFoJ5WGiEh24lxdvQHtwk7PL8mXfXmHT+mbBenbQ9JgswDC3mMimcfJyqPfHp4WOhCZ7g5VldIrMvSZCkJM92TmQAtFfqkd40mEfjX4VA0cpPUlXORJRzpWxoyK76fDYEUoVjEwwx282ka0N40jmaCXvMHyr13d7wy8wMmvpsTMvKNcWQSNkSYV5nR9Juwy8kkAXKwt8q8/lsctzvPtZcUzDj2k7PmBxZoZM3OEcKhgGcFScJIcpS6ytDOsXHp8M99GwvDont9j8R4uIwGyuppUgnOWjeimTRG+3LuqQYJ34ZHbfL6yiwAXgTc3ZykqZJ/s/w/6O3+vo//nHyzV4J4czrbTH1Cf0KKcPO7Y+z38V2rtWndO7x4tw4V5/90RQjgtbzc0LG8eyo0z3WPRZfJ73xJz7LfaAkqZZeY+Kr3MLCF7L7jA7EkTBL/em9rPDLYE96FPGrJOLSqHCvOz7VOjPh9C2KLVvDeSzdvCvxZBSqYLhkNSdS1uS2qTynqtx6O42iSUdwUKF8KWWNVHUSx8+FCkZpCnZDaaGlDp8zOzYol8XDG4P16t5b5dtrPu3fB/ZYrPWnSBat032i2WR40K4Lngp/9NvTYedBGVtssF7aftztf1Rr9nk4PhrPVNsbvywbpVU8tuAnYQHYtR3EQgOghdICS3JqERg7wvLbhAxPxApk9GUm576TURdXUF7Bk9Pw5uoYWL3cOjlESjo8GvZxQtH7G+rbzLa60AgPi4TN1lEYz0Ow2fJb16kE/8xfJp1/JvrfJO2EXSEMQ9SQyDmjFuWpMKTSk5BwkHA7dvYOVGZfwtLjCZ/iVAY/GhbpJJIbOWgpQRF8jL7rbOVuf6zW0/m0j26Ng1LzHeFGGCiajg7a9btEmC2Tpj8gZjCn2pDogWDRoDnXQlIYzY46alxeq75EYTeJ07pMH5LCyfBtr7PbcjNfFGvxhDjBipTeDJ8KobuUsgudM3TAlNTws0knRCEKIrYIjVRGPL400gntYZGZgJZHXU9/r8EMV6i88GkgyNr0w5u9Hzf/f/+bSsT6/fd/HfzHP+yJUb2/8Kv/+T/8BFdEfHZYX7d8y/v6o5KrrZfKcq/Q1hdUOcRfYr8oG7JyGWOHS7sDzUWjGpgWLP357G1Tisd8tnH0O19h6Xu8lvU7dRWpFe1TskC19jbPxUljfzTVdoGQ9/c+pQxi58OmOV7BGgBKu6MoxuVc2m5GNH4Jx55tNZRLepFzsS4C3VkZnSCs0544klEpPmL5cPykKvu+ZbNzJE+MCqawnFCb5k10dQSxTjo3Idn1SvMg4Qd+Pj38pdpCre5pr3YTsx1NDhoVshm9drveOXIkmiJuwuAhia3mQA3JaLkvy0vErujeDpDEMsv/oQEYKglP/Wtatzuj0o5MSf/Yg5iVlLlRKz0SGJWYdTRBIXlGYGZb9Q9BJkm8Qo9UKpVMOYX76Te+Z9L5jQH/M5L7tFcKAqMDBMNQljCDbF6MXqqjZW6Vqw/bfc+omtUlMvuShEKcOXa7m+p2Cg2lHx3CyBMOnpj8lG9tt14TU0fUZC/SwXExtFGlbxHla5yZTicjS2w5HB6lu/JBHfP0qcudzNCWCCQZa3dbPsCdQqXjP590hDt38YcmaJ2DwfjEkTw5sXluZ6/rclnyc2uACsTn00lCV0kq6ft0BsKZPRlfFumE0TxvF9tTIvkoGrVvVtrv1ZyWEnDRA5/I5/9Pufhv//kJeSAu//Evf5v88z9N/vmfLvfVv/2fj52ErFt7IeTtj6MXpk9VH7Z7H7IAid63tZKP0P8xcm4r2dQboX1oOyhNDZryQph8LWQd7y1sItL07pMI6nkgxpzCxh0/f7LCh5PR6y497LH9sjf4KKGOjltlx4TI+jgavx7owxrMm9Nh52G1tF7YuNOSzGza2/4FzrnQgaxFu37qXris63w62G9uvxiJcEIpc81xYxS9b1UfkbOp3PjIvW6BYKsn9oJeDqS6EgnlXsLme0XuNqiXXw4lgC97Izr+zKe9XywPxPgBNACXdB4+KpdvdaBgKto4hkMHuiM9StGzqR7XxUkNTorm08SVKOba9u/U0iKc6Krf74++6GTMt5ltdeEmOhv1duvVu/V22olQJsE/84pJ55+J/jdLG9aCyq4QaVAG94AAZoP4q+cyCj3dcOlUoYxkfblUBPPwUvKwVJo5gY0mQV7A9GMww5PJjBw2nRPRyq/FtqDtCnTlKDMjANUFR7Uu84Nv9PL//6//xSGX//afn+ATfaGzop/oi6Ve/fv//X/p8Ff/IvvkrUXzr3nMoh98D+G+UqFwtPdrlhNYMg/ajS8rb5cVD8n4Vbz8ixTzotAz6bwocvwdI8AIMAIpCPz3/+Onk7/9p3//10Ecx//+r4PJP//TP/7lbxj20l+lZIEfMwKMACNw5RBg0nnlqoQzxAgwAt87Av/xj5N//MvfkHfihS7Rpb/SMfMFI8AIMAJXHAEmnVe8gjh7jAAj8F0i8B//ODn523+a/PM/aZGnLsalv9Ix8wUjwAgwAlcZASadV7l2OG+MACPACDACjAAjwAhcEwSYdF6TiuRiMAKMACPACDACjAAjcJURYNJ5lWuH88YIMAKMACPACDACjMA1QYBJ5zWpSC4GI8AIMAKMACPACDACVxkBJp1XuXY4b4wAI8AIMAKMACPACFwTBJh0XpOK5GIwAowAI8AIMAKMACNwlRFg0nmVa4fzxggwAowAI8AIMAKMwDVBgEnnNalILgYjwAgwAowAI8AIMAJXGQEmnVe5djhvjAAjwAgwAowAI8AIXBMEmHRek4rkYjACjAAjwAgwAowAI3CVEWDSeZVrh/PGCDACjAAjwAgwAozANUGASec1qUguBiPACDACjAAjwAgwAlcZASadV7l2OG+MACPACDACjAAjwAhcEwSYdF6TiuRiMAKMACPACDACjAAjcJURYNJ5lWuH88YIMAKMACPACDACjMA1QYBJ5zWpSC4GI8AIMAKMACPACDACVxkBJp1XuXY4b4wAI8AIMAKMACPACFwTBJh0XpOK5GIwAowAI8AIMAKMACNwlRFg0nmVa4fzxggwAowAI8AIMAKMwDVBgEnnNalILgYjwAgwAowAI8AIMAJXGQEmnVe5djhvjAAjwAgwAowAI8AIXBMEmHRek4rkYjACjAAjwAgwAowAI3CVEWDSeZVrh/PGCDACjAAjwAgwAozANUGASec1qUguxp+AwPxPSPP6J8moXv865hIyAozAXxQBJp3XruKjQbO4Ub7fn16oZMOdjfLdzihK+Xh22LhVbryZpby+pMfhYO9xt/85vKTo4vhLt7xequ4OLy/GcPxbo7xe610M5ZULNjuoBUHQOk5GNDt8VC7f6oySbxZ6MmoFQbCz5Nen/fqdevvNxNdqpr175e3H3dFi0Ifv2+WbzUFq+4pGO5Xq88FksdgWKvFygS6ETzKJ02HnQa197AMsGTjryTL5mU+Hb711lJUAv2MEGAFG4BIRYNJ5iWBeiaiid80gCArL8gaZ9/HeZhD81JtF487dtcqriVuk014tCGoHqaTADX+heyzC9mvBLEYvy+Vb+f86H7JSmrwqB5ed7elBrRAEwe3uZCHJ3PRwt92+yL9DL63NIJ29nwQdFbRxPu09qHc/L8NsooFoPUs2nul+JQiCyr4vp9BgglvdREvy19f0TaMUBMGWn3dGxy3xtvg1uX4UhmcZ/wCfJ4PMMGGU1ySi961NUczW6NyPw8JPFyed0ei5AK/0y+FUZi+afhgOj5b4N5ou05YWLgMHZAQYgb8OAkw6v+e6Ppsk54zO/SAIgu2Xg+Qr7xNrIgGKUBZcM+zfD4Ji/fDMxsdDOme9e+XGb+NLlD2NdgpBsN2HpEc7gkJv3EznnVtrVOYXTUeJYvZbt8Rs2/x90fl14pTaxkDdzfr3CkFQaLxdpOhADkTNLPsH9FElqX8XIZ3RcbtcFAVvvPbRQR0XvYD63Xwxps/yrqfd26LFDmkhrwAAH7lJREFUYX05gbP4qBNU3Uo2v9Vy5dLnQ2BqpdYlCAhVYolfBHbZSnLC+yTQTkrR4LFYs5Sep24qOB+k3C5OOuP4fNIVLTYo3NkDwfMM1idO3rNuv/ZqM6WM/JgRYASuDwLXnXSejno722XgJWI0XS+Vf252X4+/4xX7+ai1JYSRQlxxLPZCV/yjE0n4ph4Em3ufoH1/FELPEvCP2ZuGFDfe3BA86wdFAR8djt/UC0FQ+w1ozXy8t7Wy/GY+ahWD4H4fqRyQzlrvNL3LAQh6mr9k0vChkyVn/aEQFDfSA9A9biAHf++OE1K0wRNRgc23SenauPt3JbPUpVcitEVIZxzH0eduTfDOQuXFKJTfZspcHwqZ5ea9ZpZQ9g+bwkI7KTwZ+oRgyEcrnY/J0oUh/cBaPh227wTBRr3zli4SBntAmMqPewMjnLv8bXbfooVmo7MdBMH9TmJhQ8MMYdGSifNuu/2wEmxUG89S5d/dY7WYCUfdVBl5XVTY7Xp6fdmS8vn08Bch7wxu7o0jJJ3NgdMmj/dKQVB4fDhznp/ZVabbJF8wAowAI7AwAteZdM7eNWF89bKyxqEa0gVWJ71tsYfbOPy6+8YLV0tqwPDwQSEIKt0vEMKaqsW01320ITY6nx1mT4r0LZF0hocPBOccS3YCws5AEL7wuCtntSe1TUpKXjQFp6FbzJ9wxhpQRpFaGt+L6KhZCILmOxnBsqQzQRoO23cF66q/smgBRSB5bSSdK9F6KqQE0vlTL9m+oIB+7UyzUR7H8emgebOwuSMFYwuSTgHw9LCxFZTUh3F8YZmr6kdy8z1DTqYWCcBH1WfuL13tXHT5RBH2NaZVnp37iPJZ1va6vau+Ks4GH1RRcPFb8D4B0Xw2eNoApQusQTfA+IXo4nsfV8GOv2UEGAFGwI/A9SWdmSO1I5iBcVZo/WVJ1PwAftOn0bHYYHQyb3IwB43M5J64CZF5FR7WgyB4OtSBoqNW7flwpqRr4jndXp9Pe0L4pBiw/Az3DUtSXKrjWvQiGjwOgmJTy82WJZ1uOmd9IZra0kzafZ9zj6RzSR1HX5wrk84YpYayiS5BOuM4ns2sSvTlTzw7O6wXg6BYKAQFTfrTwsYxUpZK3RbC1cVWO2YyGj4pBMFm7YkrzGveEwqNhlTFUmZfftpPLABAsnir1TfSTbl4ADUSlzCl53bpN7gYWJDZYTAtbofEkHQm5IhJ8WHyyVuhWGvho7NPO6N4CKkk2udiMkkf6cQxRO0z6GT5ghFgBBiBS0Hg2pJOtB2ByaDUfDtFIUR0Nh2/7tRvl611PI6zIugVJ50oeqx0T/xVH74W/Grz+TjOMYbQIhxLHImf5xiRENIJuneF2oG92RrHMe63PrBEyf4cJ58iRyTEd0XSOX4u+I2wSfILrjQU6sLa9FUKDIlJ3WTcJQHmjX21OumMUQYs6jeONemMQpVzyV1AFBd4uY5V3Xb2xFb88KlY0TTfjsVaoljrpTQz9aGPssSxqa+TLuz8dhPtQ2beIlVA7q0nMpls3L426UzCmCLpBJroI50qh9N+a6efUHwedcQGC1XDgGJ70RASynLBtT3ykc4v3Uqwtr1vG6rPw/FHpypIDWYu0cXQ6BPSq5bAv4wAI8AILIrAVSSdz549u3HjRhAEN27cePbs2aJFscMZQcXfM93anA737gpLFPfPGWTns+F+cxs0GkXI9VL1YWfwhe7Qi+RVolVMcva+U78jlCCdITv8Mug8rJZ/EG/ASma7dTDKl0XhLO5kTJc6GoGZhbDnQEbilshzr2ZEEQkK0sBymfAze8dQSzqnqLpANm11PuI4nnSF4Q6xLJmPOzcLQbG89yGb98TIESnxBUjLrdfpm+O/Cqptz/cqMziVgsKAqhoPCtYjB950SWf4rlVaD+pvnDYQDn9tdV+PE7UJ5CBVYhds/5osINo/kTqSkmwhBlakE3mDVYL0GxKVQkj9RqPdstDWxaXC2WFjXRiJZ1q+E8qiYlFdoNY7RYF3oXnkqXHMvEUxvTRLRPvnks4kYj6SpyS1diNEnU5UqYzGLyvQ29eqz4dEoRxiQ1cDBMP45LC92zY6neoVmlgV7oE+t3yYyA/qfAfOalCbrveV6bpYuRj9DegpKbq8oDbq9AuVJf5lBBgBRmApBK4c6fzxxx+dWfPHH39cqkgYeLSLlA7kl84KX0c36wtvh94/Osie9LbXvYEKlRdjOqlqZtN8F0kjXPzOxBZN9rd9JDcIthq2zr/OpbzAqRpMy91Xgui9EnIltPsxKpj21qeyNmhWheZnEBTbxh+jVr/bGelSSNEvEi8vAPQhEQeimNkQMiVHKeyaBD1lwO1d22UPyQxNzL2253uMW/IezMb0D3eTV6EBz5/VhVOlIAju9S21S006o0nvYWXjgTRvEgl86YpPHtvaq+hyKKgnxLxIL9xsL3Bv8R4tuFWkMxztO+UCihC4u95Q2JT2NZ/2wbikcLNtPPhMe2CBlGH5TigLqUuor1r3j45ojqbZkxBKTJsknQug4QSxwLHSWPlmwYZHM+RrhCYf4ade4yYMSsVy4wDFkCmk03zkXEWjHaGmTninTTrPx3t3xNqhvJswij+fdO/DwLPV6EsZNqlB6KFWjZiUIYmUqjSh+IoRYAQYgQUQuFqk89mzZ3QQ19cXkHfiXqSMoVhu7PtEiWgWCha7EJLon+0rb9bSUYvKS3HD2MKLZ5ZEQU9Um3cqlg2T2i+O3gkrGfxbu11v7bbbT+vg1waeUYsct/LAykebljtvp8J9ZlBsDnLd/hmG0RoYk3CwTxLKfELSGX4WUrf+07IknZa50qD3WHCtwr09YkQMUjrqy/24JaLShCwatbeCIFhrvacU3SlDPH6hMCP8FSCtdj/pTeTE/qZnZ1PELF0hZkGqMhCOYKoO1u533Q1QTTqlJJiKb8HKvtga0R32T8Lk30e2YOZe3Xr9pFe7tzc4iRTpVEXQv5Lfl6WpmX6ecjE72qvqBVWx0j4ilBsskES13d0bmqaiIyKURT+j2+uno9E0Dj/0B4klX5qk0ydpAw69WWsmlk+gPGpIZ0LNQDeYZS5I84SGt8r2ugJlHpntgnk4PmiUi4HygLs8n0NBptk0oKQzHDwS3S5l/yGOcYNeDBSoh01qEJpN9dXY538UehyTTlWf/MsIMAKrIHC1SCfuqitWZn5v3LixfCGlVMDEUtyoWXtbKkojyfPodKKjQYhks/mHmpLDMXq8E89dqxeT4NrdVg/dvkhCprawLVlFHEupkuBy6cKSUVv4vkmK0MAHOHiT8XEdVUb4FbIWQf4K5acDa/8XTM4rr7r0NBpgBg4g0eSV8Ii+dp9u0llJyBsUIVOX4PMozCbEQhEt2Nxpuc7JYa/fTNsplhNuJuQmY76f89lRuyKAXdveHyunQiQyQzpjV3wb4zLAoncYxieNTqUXuFDx1TvhBCRHeJlKOpH1ppmh6Hjm0fS427yNMnco++mwjUIy2jbOJz30sBMUyg8cfRJ/9qA4qtlMe1WfC3RP5gFnn6QtGzdNOjEzputd7EpmYB75uBeS18Sah5oBOQrBgPbs91phvdKki94wlC0Nu8myfG46HBiH/5R0xvH5uLs/9DRjXe+x2GmpSFcGpAbVXkQqbstm0qTIV4wAI8AIGASuFulMHfKCwGR58av5bPi86u5lF8utd4o7YlRZpBPVEyFfzrCr96Nd/z6yEB55A87B8L71nhYDTLbhuY+vQEg0Lacb4ioC3FgXXzs5VAHw+xFCUay039vFj6XB+ODcmsBc0hmO5fbcnVb/na2A+IFoqclEIaqgNaRSQCs/zg0QOGF3b+XBCQS3uQGElBM9bwtMiNDUjS2a9B8JRcZgq9Ezs7gdipDOGPkcMZBCiln7XeOJs7hydGrFBNn2VdDFSOfkVyFvTlJV8LQKLcmXlsjR6ai3W69I6aagkkaKqSRhhdvWAUJUGlr4oVLfPYT6xsK6+/jEel2k5lND1AqpBKArRTpzGRgA7PnPg3k0fadkycn9FkzI0eggqAi9S+0i138uV0mMb+uldGexGZ7goAYxzyzptGHnO0aAEfhKCFwt0nmpkk6F2Omo+7hiU88CIQrKQlnMIUpCoz6lTg1dfUSpvSc+00wRCQTMRj6RpGG3nglLPkojSTg/JWY1dTAg7Iwn3ppyoIDwVlspDZA3cRy9a4KMx+JzlHQqcWBKtj3pIllP4mmlS2+m+1WoFJ2HpLYiKi9mecM+BGU1qU2rtAVoKtY1Qnq/bwl9rRCqbWCloNf6oGm0ON+Dc36lOxHjwmBzz3OeT7pMa2nSOQ/HIG/2kU5cvVS3728KV1Y+8/PoQxuUGNYqDzvUpEWVO5rsN/eSR/7Mw8nbvZowfdP6JEg6vU2C1jt6lrX2fNMknebQAUOwgFT5PPCXBG/Wkk6V/Uv5vYikEzz5ezoCZEjsqjcl0b9L7Bo/tFGhJSPX2aQTQBBVsLalzmsw0Oknae6Hp72/q5Uq9AWfpDnLlisj2/yKEWAEGAEvAleLdF6iTqdb2nDcf4oGpDBNkj1x4piaTpYQwQy8PMIXiREZ6BHOuYopEtLpmQ5nv6eaLWE04n8VlZt/H+lU582UWscDQX9+6s1mhw3PrFMu30qdvMsvR3GEamea8InEFemc9sC6v3Bzu3ZLTVEmc0RYYh5qw9gEnlYY++Yc9xx1HjI4jUHLuWodx/JEgGKt9x70XHdGcdqpQuiLwCclarxRwktYJ6j1BlI6ogKBlaK0CPDIeHRpZJdNWv0HP3dcRdijoTy2dBHr9RhOMkRzECi5K+lEWry5NwahrFIcdPISjt+SAwHsl9PXHWVlYr9Qd9HJVHF0rCC3nUMXsOtdakUb359o5GdlfpH1mFPZ4tZNXWXz6/3q9ukkkdYRSDCx8VLv4HFf8BgHhCqe5kUCLnhJD78gpkWZX8/6zQedgdyZgLKgnBVask+ntt3eZev1TEj5JSPACCyDwNUinf97P+6yrNe9IEx/07SP7IGaCc+eLEUUMC7DbKeYh4oYxVrwyifp9E2HJqH0c8CpOY5KSvx6SacwS0LJE+Tzp94Mg3mm5/RHhuZaE6oinfFkv944GIdz77TqfSi2VYUQxSM5pkXyXlt5sEIAdyk8bjbEOYT1etGQGBoMlA3geG6EYmdEFhXpINhv9AIDaYG+xc1rcjQ5Ng+UaicoKc0W0aywk8q9Iw3ppA8quUHpl/5wX7Rki7fF1JEnSJrpyopmRiggTCdKJ2L0Uu3AnvSqwjl8Ze+D4wcKyO5zR5F3YdKpjbrWW+jz3yPcha6hcSaZVQ2bPMJLiISAkwhwsQdk3ZhbNakBREEs8ztbHUU5upfrjZeDhEt8DJ+6NgC9he010fd7YrX5S6u1JU5UH2erTcOehlAMRz9fOIJh988dN9KEuBdDmb9iBBiBvyoCV450xnF8GX46o/CMWKLq2jW0r9D+oJ6ah0nSiTMrzC63bTfXOTqdvukQnexAZI23vuypHHl+cX/W3bqNxkfosyl1blZR5QZQDFtxUE06VQwAhetpEnxJeiYkZGNkJ1rFkvcLH6o8kMCzvvBYrpU+h2L9UKyRrUoVdj4dvgd7aU061Rv3NzdAHONRVUYBF7mjEm0qT4fQllDK6Biz6yShjW3uDpMWKoudvR5Nfm/Atrg8Rd2zQx1bZwdggBRhp1CoCIIAZWyWbPJEeUp6Q23OlZdHc5amFma77dyKTRc/job7xjMAhCGrPhMsebVIu01+dfEn6LohhQUOh0dpZ69DR1C9Q7BFM6qkctO8F8nhCMolVW/RX5vqL2iMaNwh+RGA9iy9CKOOspSzgh8P7RkUKkjXLDgc1d48/BHzU0aAEWAEFkLgKpLOhTKeE0gwpLXb9fbBcHKq6N0ZMTmnZuBmeiDCs0h+RazXCzW9ERaOOz+pKaNojnGHwRqf6yGbZtRYrwdbzYHawpUhotnkwyQhYtKfo/V6Go3LnZtzA2SSTmEPRPi3Krr8TZLOJEXOtV6XBVWTqC63uIjGLyrqbEYVAA/h3GoN0yDL5ZS5AaR9upqkRU7goFEiwR29qrf2++KsdvASVfDQZfGZlJgakyNTPGwzjswSXiPgsiGB8m6pobhgknTiEamBPsAwGjaF2LLW93g7QqGsVPqEDBB+I+lLC3x2hoMXrd7xLJZHnmqFTt0e3HbuxmYKaq5omIVIniJzaVxQ4P+N/lTzc5ODyqIdIUfSedi+I3pP5dlhWqGGRz5J50kfnH0Waq+Ip09sddLFVYofBpFhyKRauMompC0a59PhW+nAASoIanY+GzzvGO+ttNRw7BlxK0Hf8TUjwAgwAn4ErjPpdKgRvS1R58lIPuTrwsbNMpwVpGZT6WNSfe366dQu9wS+MFhjSPW5Dbu0+5GRrZXuCledrYfVMuoX0knL/jCOZ/174pDLlDPNczllboBU0jl72yrf681wxnJzmJhrMdtoIaENvRfz0wmfJid16adJeQMgAdAv0vq2/+CcXE6ZG8AnvBw+XSv93ESLJVpFox1hZOPjjiIUvjXCdfIlthnfhxbpjOOYHqjtks75eE84w7KOvBfOehznXJgunjWqqpJSQJmv6Vj5K4U8oM8E6YUKVBdEODd7+K0nNhmp/kFXU5Lmki6jutjyvz70dHLLX6QqRivdaJ8e8EYxqfGckvQ8HIlFFDgvcx1RpXwSCy+b0heH5X+DdAfRRKTH2cLNRvfYWdQKpw5Cvi2952ItGHtHNL8jwm8xguF4lVAYJSdcpPW+9HLwG0aAEfgrI/BXJJ0JN5PSwNae7AhrVF6y7QAwZ+xaXvHIDEo+t9vX9I3wDu3/UzzA/kLeoYOeyj7d99QBczllbgAv6dys3IXTEe/3lyKd0pfQgZr2FK139WJ19s2FPYlqJz7m6D87gHRx6pPu5HLK3ACOi3uTycSVFCvajuJ1KDy+kpq961dqoeKjTX5Wh5/apFO6pFW8XMU+n8I5h5bluFAH3BenBYnz6OEvkybazQbRltJTf/YyY5N5h1wp2So5czWpexCeAU/yOdWngS9Z3oZnRiTc0cOpTmnOE5q1zcVIpz53d2u7+QA8dgViT6bzdpLhX3N23MXTjAo39XlCsvaob13xSHNTEW2zezw14EB7lo477IWHdBWsTlKASsQRLBrtCrUOukrHczfW7jbbuw3h4xaOmcXc8P+MACPACGQjcF1JZywU+Q/a9btl7VWk8EO5+rAt9gqTf2Kk3iaHoVfru/bu93w2Omhtow24PHu93f/k7uwuQjpF4meTwct6VZ/kHhQ2blbru71h4jB3K6eoEuonpjY5sD7Dm9wADunUri41nwOS4abufYj+kojLnvmke3dtkbPXpeUWbhdKd+WOL3qbdAoOdYjmNcF61RJ55nLKnABZp4c7AOM07LdbV/Y9gZb72h9jm1mFdEoXUVu4IW7HLkl5oaxXR+QAd9kydtJNvqDJ0aXC9GC7+mIE9AhJp3f1pAilnRd5hwQ9hYInvlik3SY++ooPEs1PpjU7fFQuPzr0DS4yRDQ1vtvW7nak87KzcX9H+RJer9Rfum6swi+DPXAfEQTi3HblOkCX0J8fc+SmGKwqnY9CWQgUOuVWCTr3lQsPKSY3GtKEdOqzJ7SEOwbnA1JEOv2teiF7QZ1/vmAEGIG/FgLXl3Rew3pElVBC5kwZ8+ZmFGxkuqG2CB/q8Fl7Z+kkw2GiaGKllQtNJhe5UpMoHFDkOTzJeyLR+aT3qFzYalsHTudwyjiGfFJGZeUPTmlCKQ6KFb30KvMhci/ErdA8UrrFVjJSJUOSTqVJLIKcHQqlzBSvQFrSOf1N7KH7baogIa3RIYnO6aB1b6P8wvgSRWOp0pOeq1z4tteCM4pSco7lWivZLrpgjWdIZ3gyGh4NR19mUjB5MuriEUdOm7ExIXd5DZsE/VqX9IADbJYpmrveDEQn4/5+c3tLeQper+7Rs0bxm3AyeF4TG/Tib6260xspTVy5wX2z0UssceFT1V98ac+OhGvVguz1WF9wXsNpvyb0fZvCmcB8eihqhGrrxsOndsOT4aV+MOxjbLaOwngeDp9uBkGtn8G1fRnjZ4wAI/CXRYBJ5/dU9VKiZhkRY/49c7PgJcqrNop7Sy8nmaW1J7DZZGp5YIFJyzXpSFqvo4Bws5V0MJ6Ztnpp8hAddzvu4UmOOFZ9BL9U5VE88JFOIcJRCnkwxxcaf7jiaohs0rkp1CfQuUy2g+70w2CEU+7wjwYcerQ3ptyFZJxKOs15QprMpnB3JJ3bD+uCyxTL7Uy0w/ctsUXqFYUK35+jltAH9f4Vyo8Op/6cSxIzImUB7VVbbqqO5bRjN2Iz++vknadhJwN91SeoKxIEayW5NSFbRXai07dim0XxSFH63D30OJoOX9aV7k2h/Bg3W6LJse+AVpm86S/+/OiT39FBkhC3z/r3RZOUZpHzaf+XEipmTP+A8xeeQh6MiwYRcfSuqSTcYjlUJwpCrlKHPx/8lBFgBBgBgQCTzu+rHaD6aaX7xcm2b27+0Ckb+Uqp+tjxs+jEkMXnICiQDFdAlXgIAsKCNFZIJpH7JG8S9Uo6vbH6SKegj+JYHfFX+KG8/RJ3ij3fR8fCfCqFb3nCpz4SlI54RUiEAzeZ5Q468PrcrRLBYfVhZ5giQ1KSzmi0W9+DzdNExNaD6PNg6FUGxlDzKDydjJT/SCny/Dh1ebwVJWwo3+o4pBOIS9ccfEX1Ix/X60/b7ZdGjGfF57/xNWx/yK/1NHrfJuuKan0/tc1YOZDMrLBxB3xozPxybusTvJnPgHouRG2t3QlPXOTR+XSw32weiEYQfe5u37fbNqwrYK8c+PHWNu7Ik+/ty5k4TLV6t95+nUGI7U/4jhFgBBgBJp3fXxs4H4hd15/sOeOKFGM+6d5Ol6hdUiajszC0RLCXFG8yGr+ELxku70kmd8v7OOX9X8ZhjajucGHGloLWn/I4OpsZI55lc6AllHkffrvukJcTfs8IMAKMQC4CLOnMhYgDMAKMACPACDACjAAjwAisigCTzlUR5O8ZAUaAEWAEGAFGgBFgBHIRYNKZCxEHYAQYAUaAEWAEGAFGgBFYFQEmnasiyN8zAowAI8AIMAKMACPACOQiwKQzFyIOwAgwAowAI8AIMAKMACOwKgJMOldFkL9nBBgBRoARYAQYAUaAEchFgElnLkQcgBFgBBgBRoARYAQYAUZgVQSYdK6KIH/PCDACjAAjwAgwAowAI5CLAJPOXIg4ACPACDACjAAjwAgwAozAqggw6VwVQf6eEWAEGAFGgBFgBBgBRiAXASaduRBxAEaAEWAEGAFGgBFgBBiBVRFg0rkqgvw9I8AIMAKMACPACDACjEAuAkw6cyHiAIwAI8AIMAKMACPACDACqyLApHNVBPl7RoARYAQYAUaAEWAEGIFcBJh05kLEARgBRoARYAQYAUaAEWAEVkWASeeqCPL3jAAjwAgwAowAI8AIMAK5CDDpzIWIAzACjAAjwAgwAowAI8AIrIoAk85VEeTvGQFGgBFgBBgBRoARYARyEWDSmQsRB2AEGAFGgBFgBBgBRoARWBUBJp2rIsjfMwKMACPACDACjAAjwAjkIsCkMxciDsAIMAKMACPACDACjAAjsCoCTDpXRZC/ZwQYAUaAEWAEGAFGgBHIRYBJZy5EHIARYAQYAUaAEWAEGAFGYFUEmHSuiiB/zwgwAowAI8AIMAKMACOQiwCTzlyIOAAjwAgwAowAI8AIMAKMwKoIMOlcFUH+nhFgBBgBRoARYAQYAUYgFwEmnbkQcQBGgBFgBBgBRoARYAQYgVURYNK5KoL8PSPACDACjAAjwAgwAoxALgJMOnMh4gCMACPACDACjAAjwAgwAqsiwKRzVQT5e0aAEWAEGAFGgBFgBBiBXASYdOZCxAEYAUaAEWAEGAFGgBFgBFZFgEnnqgjy94wAI8AIMAKMACPACDACuQgw6cyFiAMwAowAI8AIMAKMACPACKyKAJPOVRHk7xkBRoARYAQYAUaAEWAEchFg0pkLEQdgBBgBRoARYAQYAUaAEVgVASadqyLI3zMCjAAjwAgwAowAI8AI5CLApDMXIg7ACDACjAAjwAgwAowAI7AqAkw6V0WQv2cEGAFGgBFgBBgBRoARyEWASWcuRByAEWAEGAFGgBFgBBgBRmBVBJh0roogf88IMAKMACPACDACjAAjkIsAk85ciDgAI8AIMAKMACPACDACjMCqCDDpXBVB/p4RYAQYAUaAEWAEGAFGIBcBJp25EHEARoARYAQYAUaAEWAEGIFVEWDSuSqC/D0jwAgwAowAI8AIMAKMQC4CTDpzIeIAjAAjwAgwAowAI8AIMAKrIsCkc1UE+XtGgBFgBBgBRoARYAQYgVwEmHTmQsQBGAFGgBFgBBgBRoARYARWRYBJ56oI8veMACPACDACjAAjwAgwArkIMOnMhYgDMAKMACPACDACjAAjwAisigCTzlUR5O8ZAUaAEWAEGAFGgBFgBHIRYNKZCxEHYAQYAUaAEWAEGAFGgBFYFQEmnasiyN8zAowAI8AIMAKMACPACOQiwKQzFyIOwAgwAowAI8AIMAKMACOwKgJMOldFkL9nBBgBRoARYAQYAUaAEchFgElnLkQcgBFgBBgBRoARYAQYAUZgVQSYdK6KIH/PCDACjAAjwAgwAowAI5CLAJPOXIg4ACPACDACjAAjwAgwAozAqggw6VwVQf6eEWAEGAFGgBFgBBgBRiAXASaduRBxAEaAEWAEGAFGgBFgBBiBVRFg0rkqgvw9I8AIMAKMACPACDACjEAuAkw6cyHiAIwAI8AIMAKMACPACDACqyLwvwAzGr//jgsi8AAAAABJRU5ErkJggg==;" vertex="1" parent="1">
          <mxGeometry x="610" y="709" width="396.44" height="136" as="geometry" />
        </mxCell>
      </root>
    </mxGraphModel>
  </diagram>
  <diagram id="nWDp8bE8HXtBy1NV5WTN" name="后端架构">
    <mxGraphModel dx="1422" dy="798" grid="1" gridSize="10" guides="1" tooltips="1" connect="1" arrows="1" fold="1" page="1" pageScale="1" pageWidth="827" pageHeight="1169" math="0" shadow="0">
      <root>
        <mxCell id="0" />
        <mxCell id="1" parent="0" />
        <mxCell id="2" value="Rust后端架构" style="text;html=1;strokeColor=none;fillColor=none;align=center;verticalAlign=middle;whiteSpace=wrap;rounded=0;fontSize=24;fontStyle=1" vertex="1" parent="1">
          <mxGeometry x="270" y="40" width="240" height="30" as="geometry" />
        </mxCell>
        <mxCell id="3" value="Rust后端应用" style="swimlane;whiteSpace=wrap;html=1;fillColor=#ffe6cc;strokeColor=#d79b00;" vertex="1" parent="1">
          <mxGeometry x="80" y="90" width="650" height="560" as="geometry" />
        </mxCell>
        <mxCell id="4" value="API层" style="swimlane;whiteSpace=wrap;html=1;fillColor=#fff2cc;strokeColor=#d6b656;" vertex="1" parent="3">
          <mxGeometry x="20" y="40" width="610" height="80" as="geometry" />
        </mxCell>
        <mxCell id="5" value="认证API" style="rounded=1;whiteSpace=wrap;html=1;" vertex="1" parent="4">
          <mxGeometry x="20" y="30" width="80" height="30" as="geometry" />
        </mxCell>
        <mxCell id="6" value="项目API" style="rounded=1;whiteSpace=wrap;html=1;" vertex="1" parent="4">
          <mxGeometry x="110" y="30" width="80" height="30" as="geometry" />
        </mxCell>
        <mxCell id="7" value="场站API" style="rounded=1;whiteSpace=wrap;html=1;" vertex="1" parent="4">
          <mxGeometry x="200" y="30" width="80" height="30" as="geometry" />
        </mxCell>
        <mxCell id="8" value="设备API" style="rounded=1;whiteSpace=wrap;html=1;" vertex="1" parent="4">
          <mxGeometry x="290" y="30" width="80" height="30" as="geometry" />
        </mxCell>
        <mxCell id="9" value="PLC配置API" style="rounded=1;whiteSpace=wrap;html=1;" vertex="1" parent="4">
          <mxGeometry x="380" y="30" width="80" height="30" as="geometry" />
        </mxCell>
        <mxCell id="10" value="第三方设备API" style="rounded=1;whiteSpace=wrap;html=1;" vertex="1" parent="4">
          <mxGeometry x="470" y="30" width="60" height="30" as="geometry" />
        </mxCell>
        <mxCell id="11" value="IO点表API" style="rounded=1;whiteSpace=wrap;html=1;" vertex="1" parent="4">
          <mxGeometry x="540" y="30" width="60" height="30" as="geometry" />
        </mxCell>
        <mxCell id="12" value="服务层" style="swimlane;whiteSpace=wrap;html=1;fillColor=#fff2cc;strokeColor=#d6b656;" vertex="1" parent="3">
          <mxGeometry x="20" y="130" width="610" height="120" as="geometry" />
        </mxCell>
        <mxCell id="13" value="认证服务" style="rounded=1;whiteSpace=wrap;html=1;" vertex="1" parent="12">
          <mxGeometry x="20" y="30" width="120" height="30" as="geometry" />
        </mxCell>
        <mxCell id="14" value="简道云API服务" style="rounded=1;whiteSpace=wrap;html=1;" vertex="1" parent="12">
          <mxGeometry x="150" y="30" width="120" height="30" as="geometry" />
        </mxCell>
        <mxCell id="15" value="数据源服务" style="rounded=1;whiteSpace=wrap;html=1;" vertex="1" parent="12">
          <mxGeometry x="280" y="30" width="120" height="30" as="geometry" />
        </mxCell>
        <mxCell id="16" value="AI集成服务" style="rounded=1;whiteSpace=wrap;html=1;" vertex="1" parent="12">
          <mxGeometry x="410" y="30" width="120" height="30" as="geometry" />
        </mxCell>
        <mxCell id="17" value="项目服务" style="rounded=1;whiteSpace=wrap;html=1;" vertex="1" parent="12">
          <mxGeometry x="20" y="70" width="80" height="30" as="geometry" />
        </mxCell>
        <mxCell id="18" value="场站服务" style="rounded=1;whiteSpace=wrap;html=1;" vertex="1" parent="12">
          <mxGeometry x="110" y="70" width="80" height="30" as="geometry" />
        </mxCell>
        <mxCell id="19" value="设备服务" style="rounded=1;whiteSpace=wrap;html=1;" vertex="1" parent="12">
          <mxGeometry x="200" y="70" width="80" height="30" as="geometry" />
        </mxCell>
        <mxCell id="20" value="PLC配置服务" style="rounded=1;whiteSpace=wrap;html=1;" vertex="1" parent="12">
          <mxGeometry x="290" y="70" width="80" height="30" as="geometry" />
        </mxCell>
        <mxCell id="21" value="第三方设备服务" style="rounded=1;whiteSpace=wrap;html=1;" vertex="1" parent="12">
          <mxGeometry x="380" y="70" width="100" height="30" as="geometry" />
        </mxCell>
        <mxCell id="22" value="IO点表服务" style="rounded=1;whiteSpace=wrap;html=1;" vertex="1" parent="12">
          <mxGeometry x="490" y="70" width="100" height="30" as="geometry" />
        </mxCell>
        <mxCell id="23" value="插件系统" style="swimlane;whiteSpace=wrap;html=1;fillColor=#fff2cc;strokeColor=#d6b656;" vertex="1" parent="3">
          <mxGeometry x="20" y="260" width="610" height="120" as="geometry" />
        </mxCell>
        <mxCell id="24" value="PLC插件" style="swimlane;whiteSpace=wrap;html=1;" vertex="1" parent="23">
          <mxGeometry x="20" y="30" width="180" height="80" as="geometry" />
        </mxCell>
        <mxCell id="25" value="和利时PLC" style="rounded=1;whiteSpace=wrap;html=1;" vertex="1" parent="24">
          <mxGeometry x="10" y="30" width="80" height="20" as="geometry" />
        </mxCell>
        <mxCell id="26" value="西门子PLC" style="rounded=1;whiteSpace=wrap;html=1;" vertex="1" parent="24">
          <mxGeometry x="10" y="50" width="80" height="20" as="geometry" />
        </mxCell>
        <mxCell id="27" value="AB PLC" style="rounded=1;whiteSpace=wrap;html=1;" vertex="1" parent="24">
          <mxGeometry x="100" y="30" width="70" height="20" as="geometry" />
        </mxCell>
        <mxCell id="28" value="其他PLC" style="rounded=1;whiteSpace=wrap;html=1;dashed=1;" vertex="1" parent="24">
          <mxGeometry x="100" y="50" width="70" height="20" as="geometry" />
        </mxCell>
        <mxCell id="29" value="HMI插件" style="swimlane;whiteSpace=wrap;html=1;" vertex="1" parent="23">
          <mxGeometry x="210" y="30" width="180" height="80" as="geometry" />
        </mxCell>
        <mxCell id="30" value="亚控" style="rounded=1;whiteSpace=wrap;html=1;" vertex="1" parent="29">
          <mxGeometry x="10" y="30" width="80" height="20" as="geometry" />
        </mxCell>
        <mxCell id="31" value="力控" style="rounded=1;whiteSpace=wrap;html=1;" vertex="1" parent="29">
          <mxGeometry x="10" y="50" width="80" height="20" as="geometry" />
        </mxCell>
        <mxCell id="32" value="其他HMI" style="rounded=1;whiteSpace=wrap;html=1;dashed=1;" vertex="1" parent="29">
          <mxGeometry x="100" y="40" width="70" height="20" as="geometry" />
        </mxCell>
        <mxCell id="33" value="数据源插件" style="swimlane;whiteSpace=wrap;html=1;" vertex="1" parent="23">
          <mxGeometry x="400" y="30" width="200" height="80" as="geometry" />
        </mxCell>
        <mxCell id="34" value="简道云" style="rounded=1;whiteSpace=wrap;html=1;" vertex="1" parent="33">
          <mxGeometry x="10" y="30" width="80" height="20" as="geometry" />
        </mxCell>
        <mxCell id="35" value="AI解析器" style="rounded=1;whiteSpace=wrap;html=1;" vertex="1" parent="33">
          <mxGeometry x="10" y="50" width="80" height="20" as="geometry" />
        </mxCell>
        <mxCell id="36" value="自定义API" style="rounded=1;whiteSpace=wrap;html=1;" vertex="1" parent="33">
          <mxGeometry x="100" y="30" width="90" height="20" as="geometry" />
        </mxCell>
        <mxCell id="37" value="其他数据源" style="rounded=1;whiteSpace=wrap;html=1;dashed=1;" vertex="1" parent="33">
          <mxGeometry x="100" y="50" width="90" height="20" as="geometry" />
        </mxCell>
        <mxCell id="38" value="数据访问层" style="swimlane;whiteSpace=wrap;html=1;fillColor=#d5e8d4;strokeColor=#82b366;" vertex="1" parent="3">
          <mxGeometry x="20" y="390" width="610" height="80" as="geometry" />
        </mxCell>
        <mxCell id="39" value="数据库连接池" style="rounded=1;whiteSpace=wrap;html=1;" vertex="1" parent="38">
          <mxGeometry x="20" y="30" width="100" height="30" as="geometry" />
        </mxCell>
        <mxCell id="40" value="用户数据访问" style="rounded=1;whiteSpace=wrap;html=1;" vertex="1" parent="38">
          <mxGeometry x="130" y="30" width="100" height="30" as="geometry" />
        </mxCell>
        <mxCell id="41" value="项目场站数据访问" style="rounded=1;whiteSpace=wrap;html=1;" vertex="1" parent="38">
          <mxGeometry x="240" y="30" width="100" height="30" as="geometry" />
        </mxCell>
        <mxCell id="42" value="PLC配置数据访问" style="rounded=1;whiteSpace=wrap;html=1;" vertex="1" parent="38">
          <mxGeometry x="350" y="30" width="120" height="30" as="geometry" />
        </mxCell>
        <mxCell id="43" value="第三方设备数据访问" style="rounded=1;whiteSpace=wrap;html=1;" vertex="1" parent="38">
          <mxGeometry x="480" y="30" width="120" height="30" as="geometry" />
        </mxCell>
        <mxCell id="44" value="工具函数" style="swimlane;whiteSpace=wrap;html=1;fillColor=#d5e8d4;strokeColor=#82b366;" vertex="1" parent="3">
          <mxGeometry x="20" y="480" width="610" height="70" as="geometry" />
        </mxCell>
        <mxCell id="45" value="Excel处理" style="rounded=1;whiteSpace=wrap;html=1;" vertex="1" parent="44">
          <mxGeometry x="20" y="30" width="80" height="30" as="geometry" />
        </mxCell>
        <mxCell id="46" value="Python桥接" style="rounded=1;whiteSpace=wrap;html=1;" vertex="1" parent="44">
          <mxGeometry x="110" y="30" width="80" height="30" as="geometry" />
        </mxCell>
        <mxCell id="47" value="配置处理" style="rounded=1;whiteSpace=wrap;html=1;" vertex="1" parent="44">
          <mxGeometry x="200" y="30" width="80" height="30" as="geometry" />
        </mxCell>
        <mxCell id="48" value="日志系统" style="rounded=1;whiteSpace=wrap;html=1;" vertex="1" parent="44">
          <mxGeometry x="290" y="30" width="80" height="30" as="geometry" />
        </mxCell>
        <mxCell id="49" value="国际化支持" style="rounded=1;whiteSpace=wrap;html=1;" vertex="1" parent="44">
          <mxGeometry x="380" y="30" width="80" height="30" as="geometry" />
        </mxCell>
        <mxCell id="50" value="点表生成器" style="rounded=1;whiteSpace=wrap;html=1;" vertex="1" parent="44">
          <mxGeometry x="470" y="30" width="80" height="30" as="geometry" />
        </mxCell>
        <mxCell id="51" value="数据模型" style="swimlane;whiteSpace=wrap;html=1;fillColor=#dae8fc;strokeColor=#6c8ebf;" vertex="1" parent="1">
          <mxGeometry x="80" y="670" width="650" height="160" as="geometry" />
        </mxCell>
        <mxCell id="52" value="用户/角色模型" style="rounded=1;whiteSpace=wrap;html=1;" vertex="1" parent="51">
          <mxGeometry x="20" y="40" width="100" height="30" as="geometry" />
        </mxCell>
        <mxCell id="53" value="项目/场站模型" style="rounded=1;whiteSpace=wrap;html=1;" vertex="1" parent="51">
          <mxGeometry x="130" y="40" width="100" height="30" as="geometry" />
        </mxCell>
        <mxCell id="54" value="设备模型" style="rounded=1;whiteSpace=wrap;html=1;" vertex="1" parent="51">
          <mxGeometry x="240" y="40" width="100" height="30" as="geometry" />
        </mxCell>
        <mxCell id="55" value="PLC模块模型" style="rounded=1;whiteSpace=wrap;html=1;" vertex="1" parent="51">
          <mxGeometry x="350" y="40" width="100" height="30" as="geometry" />
        </mxCell>
        <mxCell id="56" value="机架模型" style="rounded=1;whiteSpace=wrap;html=1;" vertex="1" parent="51">
          <mxGeometry x="460" y="40" width="80" height="30" as="geometry" />
        </mxCell>
        <mxCell id="57" value="PLC配置模型" style="rounded=1;whiteSpace=wrap;html=1;" vertex="1" parent="51">
          <mxGeometry x="550" y="40" width="80" height="30" as="geometry" />
        </mxCell>
        <mxCell id="58" value="IO点位模型" style="rounded=1;whiteSpace=wrap;html=1;" vertex="1" parent="51">
          <mxGeometry x="20" y="80" width="150" height="30" as="geometry" />
        </mxCell>
        <mxCell id="59" value="IO通道模型" style="rounded=1;whiteSpace=wrap;html=1;" vertex="1" parent="51">
          <mxGeometry x="180" y="80" width="150" height="30" as="geometry" />
        </mxCell>
        <mxCell id="60" value="第三方设备模板模型" style="rounded=1;whiteSpace=wrap;html=1;" vertex="1" parent="51">
          <mxGeometry x="340" y="80" width="140" height="30" as="geometry" />
        </mxCell>
        <mxCell id="61" value="第三方设备实例模型" style="rounded=1;whiteSpace=wrap;html=1;" vertex="1" parent="51">
          <mxGeometry x="490" y="80" width="140" height="30" as="geometry" />
        </mxCell>
        <mxCell id="62" value="数据源配置模型" style="rounded=1;whiteSpace=wrap;html=1;" vertex="1" parent="51">
          <mxGeometry x="20" y="120" width="150" height="30" as="geometry" />
        </mxCell>
        <mxCell id="63" value="系统设置模型" style="rounded=1;whiteSpace=wrap;html=1;" vertex="1" parent="51">
          <mxGeometry x="180" y="120" width="150" height="30" as="geometry" />
        </mxCell>
        <mxCell id="64" value="点表生成器架构" style="swimlane;whiteSpace=wrap;html=1;fillColor=#f8cecc;strokeColor=#b85450;" vertex="1" parent="1">
          <mxGeometry x="80" y="850" width="650" height="120" as="geometry" />
        </mxCell>
        <mxCell id="65" value="PLC点表生成器" style="swimlane;whiteSpace=wrap;html=1;" vertex="1" parent="64">
          <mxGeometry x="20" y="30" width="200" height="80" as="geometry" />
        </mxCell>
        <mxCell id="66" value="和利时标准型" style="rounded=1;whiteSpace=wrap;html=1;" vertex="1" parent="65">
          <mxGeometry x="10" y="30" width="90" height="20" as="geometry" />
        </mxCell>
        <mxCell id="67" value="和利时安全型" style="rounded=1;whiteSpace=wrap;html=1;" vertex="1" parent="65">
          <mxGeometry x="10" y="50" width="90" height="20" as="geometry" />
        </mxCell>
        <mxCell id="68" value="和利时Modbus" style="rounded=1;whiteSpace=wrap;html=1;" vertex="1" parent="65">
          <mxGeometry x="110" y="30" width="80" height="20" as="geometry" />
        </mxCell>
        <mxCell id="69" value="中控PLC" style="rounded=1;whiteSpace=wrap;html=1;" vertex="1" parent="65">
          <mxGeometry x="110" y="50" width="80" height="20" as="geometry" />
        </mxCell>
        <mxCell id="70" value="HMI点表生成器" style="swimlane;whiteSpace=wrap;html=1;" vertex="1" parent="64">
          <mxGeometry x="230" y="30" width="200" height="80" as="geometry" />
        </mxCell>
        <mxCell id="71" value="亚控组态" style="rounded=1;whiteSpace=wrap;html=1;" vertex="1" parent="70">
          <mxGeometry x="10" y="30" width="80" height="20" as="geometry" />
        </mxCell>
        <mxCell id="72" value="力控组态" style="rounded=1;whiteSpace=wrap;html=1;" vertex="1" parent="70">
          <mxGeometry x="100" y="30" width="90" height="20" as="geometry" />
        </mxCell>
        <mxCell id="73" value="其他HMI(预留)" style="rounded=1;whiteSpace=wrap;html=1;dashed=1;" vertex="1" parent="70">
          <mxGeometry x="10" y="50" width="180" height="20" as="geometry" />
        </mxCell>
        <mxCell id="74" value="其他点表生成器" style="swimlane;whiteSpace=wrap;html=1;" vertex="1" parent="64">
          <mxGeometry x="440" y="30" width="200" height="80" as="geometry" />
        </mxCell>
        <mxCell id="75" value="FAT测试点表" style="rounded=1;whiteSpace=wrap;html=1;" vertex="1" parent="74">
          <mxGeometry x="10" y="30" width="90" height="20" as="geometry" />
        </mxCell>
        <mxCell id="76" value="上下位通讯点表" style="rounded=1;whiteSpace=wrap;html=1;" vertex="1" parent="74">
          <mxGeometry x="10" y="50" width="90" height="20" as="geometry" />
        </mxCell>
        <mxCell id="77" value="IO点表模板" style="rounded=1;whiteSpace=wrap;html=1;" vertex="1" parent="74">
          <mxGeometry x="110" y="40" width="80" height="20" as="geometry" />
        </mxCell>
      </root>
    </mxGraphModel>
  </diagram>
  <diagram id="RvtXTLaz_I3o9UFA6iLc" name="数据库架构">
    <mxGraphModel dx="985" dy="572" grid="1" gridSize="10" guides="1" tooltips="1" connect="1" arrows="1" fold="1" page="1" pageScale="1" pageWidth="827" pageHeight="1169" math="0" shadow="0">
      <root>
        <mxCell id="0" />
        <mxCell id="1" parent="0" />
        <mxCell id="2" value="数据库架构" style="text;html=1;strokeColor=none;fillColor=none;align=center;verticalAlign=middle;whiteSpace=wrap;rounded=0;fontSize=24;fontStyle=1" parent="1" vertex="1">
          <mxGeometry x="270" y="40" width="240" height="30" as="geometry" />
        </mxCell>
        <mxCell id="3" value="users" style="swimlane;fontStyle=0;childLayout=stackLayout;horizontal=1;startSize=26;fillColor=#dae8fc;horizontalStack=0;resizeParent=1;resizeParentMax=0;resizeLast=0;collapsible=1;marginBottom=0;strokeColor=#6c8ebf;" parent="1" vertex="1">
          <mxGeometry x="80" y="100" width="180" height="156" as="geometry" />
        </mxCell>
        <mxCell id="4" value="+ id: primary key" style="text;strokeColor=none;fillColor=none;align=left;verticalAlign=top;spacingLeft=4;spacingRight=4;overflow=hidden;rotatable=0;points=[[0,0.5],[1,0.5]];portConstraint=eastwest;" parent="3" vertex="1">
          <mxGeometry y="26" width="180" height="26" as="geometry" />
        </mxCell>
        <mxCell id="5" value="+ username: string" style="text;strokeColor=none;fillColor=none;align=left;verticalAlign=top;spacingLeft=4;spacingRight=4;overflow=hidden;rotatable=0;points=[[0,0.5],[1,0.5]];portConstraint=eastwest;" parent="3" vertex="1">
          <mxGeometry y="52" width="180" height="26" as="geometry" />
        </mxCell>
        <mxCell id="6" value="+ password_hash: string" style="text;strokeColor=none;fillColor=none;align=left;verticalAlign=top;spacingLeft=4;spacingRight=4;overflow=hidden;rotatable=0;points=[[0,0.5],[1,0.5]];portConstraint=eastwest;" parent="3" vertex="1">
          <mxGeometry y="78" width="180" height="26" as="geometry" />
        </mxCell>
        <mxCell id="7" value="+ email: string" style="text;strokeColor=none;fillColor=none;align=left;verticalAlign=top;spacingLeft=4;spacingRight=4;overflow=hidden;rotatable=0;points=[[0,0.5],[1,0.5]];portConstraint=eastwest;" parent="3" vertex="1">
          <mxGeometry y="104" width="180" height="26" as="geometry" />
        </mxCell>
        <mxCell id="8" value="+ role_id: foreign key" style="text;strokeColor=none;fillColor=none;align=left;verticalAlign=top;spacingLeft=4;spacingRight=4;overflow=hidden;rotatable=0;points=[[0,0.5],[1,0.5]];portConstraint=eastwest;" parent="3" vertex="1">
          <mxGeometry y="130" width="180" height="26" as="geometry" />
        </mxCell>
        <mxCell id="9" value="roles" style="swimlane;fontStyle=0;childLayout=stackLayout;horizontal=1;startSize=26;fillColor=#dae8fc;horizontalStack=0;resizeParent=1;resizeParentMax=0;resizeLast=0;collapsible=1;marginBottom=0;strokeColor=#6c8ebf;" parent="1" vertex="1">
          <mxGeometry x="320" y="100" width="180" height="104" as="geometry" />
        </mxCell>
        <mxCell id="10" value="+ id: primary key" style="text;strokeColor=none;fillColor=none;align=left;verticalAlign=top;spacingLeft=4;spacingRight=4;overflow=hidden;rotatable=0;points=[[0,0.5],[1,0.5]];portConstraint=eastwest;" parent="9" vertex="1">
          <mxGeometry y="26" width="180" height="26" as="geometry" />
        </mxCell>
        <mxCell id="11" value="+ name: string" style="text;strokeColor=none;fillColor=none;align=left;verticalAlign=top;spacingLeft=4;spacingRight=4;overflow=hidden;rotatable=0;points=[[0,0.5],[1,0.5]];portConstraint=eastwest;" parent="9" vertex="1">
          <mxGeometry y="52" width="180" height="26" as="geometry" />
        </mxCell>
        <mxCell id="12" value="+ permissions: json" style="text;strokeColor=none;fillColor=none;align=left;verticalAlign=top;spacingLeft=4;spacingRight=4;overflow=hidden;rotatable=0;points=[[0,0.5],[1,0.5]];portConstraint=eastwest;" parent="9" vertex="1">
          <mxGeometry y="78" width="180" height="26" as="geometry" />
        </mxCell>
        <mxCell id="13" value="projects" style="swimlane;fontStyle=0;childLayout=stackLayout;horizontal=1;startSize=26;fillColor=#d5e8d4;horizontalStack=0;resizeParent=1;resizeParentMax=0;resizeLast=0;collapsible=1;marginBottom=0;strokeColor=#82b366;" parent="1" vertex="1">
          <mxGeometry x="80" y="280" width="180" height="130" as="geometry" />
        </mxCell>
        <mxCell id="14" value="+ id: primary key" style="text;strokeColor=none;fillColor=none;align=left;verticalAlign=top;spacingLeft=4;spacingRight=4;overflow=hidden;rotatable=0;points=[[0,0.5],[1,0.5]];portConstraint=eastwest;" parent="13" vertex="1">
          <mxGeometry y="26" width="180" height="26" as="geometry" />
        </mxCell>
        <mxCell id="15" value="+ project_code: string" style="text;strokeColor=none;fillColor=none;align=left;verticalAlign=top;spacingLeft=4;spacingRight=4;overflow=hidden;rotatable=0;points=[[0,0.5],[1,0.5]];portConstraint=eastwest;" parent="13" vertex="1">
          <mxGeometry y="52" width="180" height="26" as="geometry" />
        </mxCell>
        <mxCell id="16" value="+ project_name: string" style="text;strokeColor=none;fillColor=none;align=left;verticalAlign=top;spacingLeft=4;spacingRight=4;overflow=hidden;rotatable=0;points=[[0,0.5],[1,0.5]];portConstraint=eastwest;" parent="13" vertex="1">
          <mxGeometry y="78" width="180" height="26" as="geometry" />
        </mxCell>
        <mxCell id="17" value="+ description: string" style="text;strokeColor=none;fillColor=none;align=left;verticalAlign=top;spacingLeft=4;spacingRight=4;overflow=hidden;rotatable=0;points=[[0,0.5],[1,0.5]];portConstraint=eastwest;" parent="13" vertex="1">
          <mxGeometry y="104" width="180" height="26" as="geometry" />
        </mxCell>
        <mxCell id="18" value="stations" style="swimlane;fontStyle=0;childLayout=stackLayout;horizontal=1;startSize=26;fillColor=#d5e8d4;horizontalStack=0;resizeParent=1;resizeParentMax=0;resizeLast=0;collapsible=1;marginBottom=0;strokeColor=#82b366;" parent="1" vertex="1">
          <mxGeometry x="320" y="280" width="180" height="156" as="geometry" />
        </mxCell>
        <mxCell id="19" value="+ id: primary key" style="text;strokeColor=none;fillColor=none;align=left;verticalAlign=top;spacingLeft=4;spacingRight=4;overflow=hidden;rotatable=0;points=[[0,0.5],[1,0.5]];portConstraint=eastwest;" parent="18" vertex="1">
          <mxGeometry y="26" width="180" height="26" as="geometry" />
        </mxCell>
        <mxCell id="20" value="+ project_id: foreign key" style="text;strokeColor=none;fillColor=none;align=left;verticalAlign=top;spacingLeft=4;spacingRight=4;overflow=hidden;rotatable=0;points=[[0,0.5],[1,0.5]];portConstraint=eastwest;" parent="18" vertex="1">
          <mxGeometry y="52" width="180" height="26" as="geometry" />
        </mxCell>
        <mxCell id="21" value="+ station_code: string" style="text;strokeColor=none;fillColor=none;align=left;verticalAlign=top;spacingLeft=4;spacingRight=4;overflow=hidden;rotatable=0;points=[[0,0.5],[1,0.5]];portConstraint=eastwest;" parent="18" vertex="1">
          <mxGeometry y="78" width="180" height="26" as="geometry" />
        </mxCell>
        <mxCell id="22" value="+ station_name: string" style="text;strokeColor=none;fillColor=none;align=left;verticalAlign=top;spacingLeft=4;spacingRight=4;overflow=hidden;rotatable=0;points=[[0,0.5],[1,0.5]];portConstraint=eastwest;" parent="18" vertex="1">
          <mxGeometry y="104" width="180" height="26" as="geometry" />
        </mxCell>
        <mxCell id="23" value="+ location: string" style="text;strokeColor=none;fillColor=none;align=left;verticalAlign=top;spacingLeft=4;spacingRight=4;overflow=hidden;rotatable=0;points=[[0,0.5],[1,0.5]];portConstraint=eastwest;" parent="18" vertex="1">
          <mxGeometry y="130" width="180" height="26" as="geometry" />
        </mxCell>
        <mxCell id="24" value="devices" style="swimlane;fontStyle=0;childLayout=stackLayout;horizontal=1;startSize=26;fillColor=#d5e8d4;horizontalStack=0;resizeParent=1;resizeParentMax=0;resizeLast=0;collapsible=1;marginBottom=0;strokeColor=#82b366;" parent="1" vertex="1">
          <mxGeometry x="560" y="280" width="180" height="182" as="geometry" />
        </mxCell>
        <mxCell id="25" value="+ id: primary key" style="text;strokeColor=none;fillColor=none;align=left;verticalAlign=top;spacingLeft=4;spacingRight=4;overflow=hidden;rotatable=0;points=[[0,0.5],[1,0.5]];portConstraint=eastwest;" parent="24" vertex="1">
          <mxGeometry y="26" width="180" height="26" as="geometry" />
        </mxCell>
        <mxCell id="26" value="+ station_id: foreign key" style="text;strokeColor=none;fillColor=none;align=left;verticalAlign=top;spacingLeft=4;spacingRight=4;overflow=hidden;rotatable=0;points=[[0,0.5],[1,0.5]];portConstraint=eastwest;" parent="24" vertex="1">
          <mxGeometry y="52" width="180" height="26" as="geometry" />
        </mxCell>
        <mxCell id="27" value="+ device_code: string" style="text;strokeColor=none;fillColor=none;align=left;verticalAlign=top;spacingLeft=4;spacingRight=4;overflow=hidden;rotatable=0;points=[[0,0.5],[1,0.5]];portConstraint=eastwest;" parent="24" vertex="1">
          <mxGeometry y="78" width="180" height="26" as="geometry" />
        </mxCell>
        <mxCell id="28" value="+ device_name: string" style="text;strokeColor=none;fillColor=none;align=left;verticalAlign=top;spacingLeft=4;spacingRight=4;overflow=hidden;rotatable=0;points=[[0,0.5],[1,0.5]];portConstraint=eastwest;" parent="24" vertex="1">
          <mxGeometry y="104" width="180" height="26" as="geometry" />
        </mxCell>
        <mxCell id="29" value="+ device_type: string" style="text;strokeColor=none;fillColor=none;align=left;verticalAlign=top;spacingLeft=4;spacingRight=4;overflow=hidden;rotatable=0;points=[[0,0.5],[1,0.5]];portConstraint=eastwest;" parent="24" vertex="1">
          <mxGeometry y="130" width="180" height="26" as="geometry" />
        </mxCell>
        <mxCell id="30" value="+ manufacturer: string" style="text;strokeColor=none;fillColor=none;align=left;verticalAlign=top;spacingLeft=4;spacingRight=4;overflow=hidden;rotatable=0;points=[[0,0.5],[1,0.5]];portConstraint=eastwest;" parent="24" vertex="1">
          <mxGeometry y="156" width="180" height="26" as="geometry" />
        </mxCell>
        <mxCell id="31" value="plc_modules" style="swimlane;fontStyle=0;childLayout=stackLayout;horizontal=1;startSize=26;fillColor=#ffe6cc;horizontalStack=0;resizeParent=1;resizeParentMax=0;resizeLast=0;collapsible=1;marginBottom=0;strokeColor=#d79b00;" parent="1" vertex="1">
          <mxGeometry x="80" y="480" width="180" height="208" as="geometry" />
        </mxCell>
        <mxCell id="32" value="+ id: primary key" style="text;strokeColor=none;fillColor=none;align=left;verticalAlign=top;spacingLeft=4;spacingRight=4;overflow=hidden;rotatable=0;points=[[0,0.5],[1,0.5]];portConstraint=eastwest;" parent="31" vertex="1">
          <mxGeometry y="26" width="180" height="26" as="geometry" />
        </mxCell>
        <mxCell id="33" value="+ brand: string" style="text;strokeColor=none;fillColor=none;align=left;verticalAlign=top;spacingLeft=4;spacingRight=4;overflow=hidden;rotatable=0;points=[[0,0.5],[1,0.5]];portConstraint=eastwest;" parent="31" vertex="1">
          <mxGeometry y="52" width="180" height="26" as="geometry" />
        </mxCell>
        <mxCell id="34" value="+ series: string" style="text;strokeColor=none;fillColor=none;align=left;verticalAlign=top;spacingLeft=4;spacingRight=4;overflow=hidden;rotatable=0;points=[[0,0.5],[1,0.5]];portConstraint=eastwest;" parent="31" vertex="1">
          <mxGeometry y="78" width="180" height="26" as="geometry" />
        </mxCell>
        <mxCell id="35" value="+ model: string" style="text;strokeColor=none;fillColor=none;align=left;verticalAlign=top;spacingLeft=4;spacingRight=4;overflow=hidden;rotatable=0;points=[[0,0.5],[1,0.5]];portConstraint=eastwest;" parent="31" vertex="1">
          <mxGeometry y="104" width="180" height="26" as="geometry" />
        </mxCell>
        <mxCell id="36" value="+ module_type: string" style="text;strokeColor=none;fillColor=none;align=left;verticalAlign=top;spacingLeft=4;spacingRight=4;overflow=hidden;rotatable=0;points=[[0,0.5],[1,0.5]];portConstraint=eastwest;" parent="31" vertex="1">
          <mxGeometry y="130" width="180" height="26" as="geometry" />
        </mxCell>
        <mxCell id="37" value="+ io_type: string" style="text;strokeColor=none;fillColor=none;align=left;verticalAlign=top;spacingLeft=4;spacingRight=4;overflow=hidden;rotatable=0;points=[[0,0.5],[1,0.5]];portConstraint=eastwest;" parent="31" vertex="1">
          <mxGeometry y="156" width="180" height="26" as="geometry" />
        </mxCell>
        <mxCell id="38" value="+ channel_count: integer" style="text;strokeColor=none;fillColor=none;align=left;verticalAlign=top;spacingLeft=4;spacingRight=4;overflow=hidden;rotatable=0;points=[[0,0.5],[1,0.5]];portConstraint=eastwest;" parent="31" vertex="1">
          <mxGeometry y="182" width="180" height="26" as="geometry" />
        </mxCell>
        <mxCell id="39" value="plc_racks" style="swimlane;fontStyle=0;childLayout=stackLayout;horizontal=1;startSize=26;fillColor=#ffe6cc;horizontalStack=0;resizeParent=1;resizeParentMax=0;resizeLast=0;collapsible=1;marginBottom=0;strokeColor=#d79b00;" parent="1" vertex="1">
          <mxGeometry x="320" y="480" width="180" height="156" as="geometry" />
        </mxCell>
        <mxCell id="40" value="+ id: primary key" style="text;strokeColor=none;fillColor=none;align=left;verticalAlign=top;spacingLeft=4;spacingRight=4;overflow=hidden;rotatable=0;points=[[0,0.5],[1,0.5]];portConstraint=eastwest;" parent="39" vertex="1">
          <mxGeometry y="26" width="180" height="26" as="geometry" />
        </mxCell>
        <mxCell id="41" value="+ station_id: foreign key" style="text;strokeColor=none;fillColor=none;align=left;verticalAlign=top;spacingLeft=4;spacingRight=4;overflow=hidden;rotatable=0;points=[[0,0.5],[1,0.5]];portConstraint=eastwest;" parent="39" vertex="1">
          <mxGeometry y="52" width="180" height="26" as="geometry" />
        </mxCell>
        <mxCell id="42" value="+ rack_no: integer" style="text;strokeColor=none;fillColor=none;align=left;verticalAlign=top;spacingLeft=4;spacingRight=4;overflow=hidden;rotatable=0;points=[[0,0.5],[1,0.5]];portConstraint=eastwest;" parent="39" vertex="1">
          <mxGeometry y="78" width="180" height="26" as="geometry" />
        </mxCell>
        <mxCell id="43" value="+ rack_type: string" style="text;strokeColor=none;fillColor=none;align=left;verticalAlign=top;spacingLeft=4;spacingRight=4;overflow=hidden;rotatable=0;points=[[0,0.5],[1,0.5]];portConstraint=eastwest;" parent="39" vertex="1">
          <mxGeometry y="104" width="180" height="26" as="geometry" />
        </mxCell>
        <mxCell id="44" value="+ max_slots: integer" style="text;strokeColor=none;fillColor=none;align=left;verticalAlign=top;spacingLeft=4;spacingRight=4;overflow=hidden;rotatable=0;points=[[0,0.5],[1,0.5]];portConstraint=eastwest;" parent="39" vertex="1">
          <mxGeometry y="130" width="180" height="26" as="geometry" />
        </mxCell>
        <mxCell id="45" value="plc_configurations" style="swimlane;fontStyle=0;childLayout=stackLayout;horizontal=1;startSize=26;fillColor=#ffe6cc;horizontalStack=0;resizeParent=1;resizeParentMax=0;resizeLast=0;collapsible=1;marginBottom=0;strokeColor=#d79b00;" parent="1" vertex="1">
          <mxGeometry x="560" y="480" width="180" height="182" as="geometry" />
        </mxCell>
        <mxCell id="46" value="+ id: primary key" style="text;strokeColor=none;fillColor=none;align=left;verticalAlign=top;spacingLeft=4;spacingRight=4;overflow=hidden;rotatable=0;points=[[0,0.5],[1,0.5]];portConstraint=eastwest;" parent="45" vertex="1">
          <mxGeometry y="26" width="180" height="26" as="geometry" />
        </mxCell>
        <mxCell id="47" value="+ station_id: foreign key" style="text;strokeColor=none;fillColor=none;align=left;verticalAlign=top;spacingLeft=4;spacingRight=4;overflow=hidden;rotatable=0;points=[[0,0.5],[1,0.5]];portConstraint=eastwest;" parent="45" vertex="1">
          <mxGeometry y="52" width="180" height="26" as="geometry" />
        </mxCell>
        <mxCell id="48" value="+ rack_id: foreign key" style="text;strokeColor=none;fillColor=none;align=left;verticalAlign=top;spacingLeft=4;spacingRight=4;overflow=hidden;rotatable=0;points=[[0,0.5],[1,0.5]];portConstraint=eastwest;" parent="45" vertex="1">
          <mxGeometry y="78" width="180" height="26" as="geometry" />
        </mxCell>
        <mxCell id="49" value="+ slot_no: integer" style="text;strokeColor=none;fillColor=none;align=left;verticalAlign=top;spacingLeft=4;spacingRight=4;overflow=hidden;rotatable=0;points=[[0,0.5],[1,0.5]];portConstraint=eastwest;" parent="45" vertex="1">
          <mxGeometry y="104" width="180" height="26" as="geometry" />
        </mxCell>
        <mxCell id="50" value="+ module_id: foreign key" style="text;strokeColor=none;fillColor=none;align=left;verticalAlign=top;spacingLeft=4;spacingRight=4;overflow=hidden;rotatable=0;points=[[0,0.5],[1,0.5]];portConstraint=eastwest;" parent="45" vertex="1">
          <mxGeometry y="130" width="180" height="26" as="geometry" />
        </mxCell>
        <mxCell id="51" value="+ configuration: json" style="text;strokeColor=none;fillColor=none;align=left;verticalAlign=top;spacingLeft=4;spacingRight=4;overflow=hidden;rotatable=0;points=[[0,0.5],[1,0.5]];portConstraint=eastwest;" parent="45" vertex="1">
          <mxGeometry y="156" width="180" height="26" as="geometry" />
        </mxCell>
        <mxCell id="52" value="io_channels" style="swimlane;fontStyle=0;childLayout=stackLayout;horizontal=1;startSize=26;fillColor=#fff2cc;horizontalStack=0;resizeParent=1;resizeParentMax=0;resizeLast=0;collapsible=1;marginBottom=0;strokeColor=#d6b656;" parent="1" vertex="1">
          <mxGeometry x="80" y="720" width="180" height="130" as="geometry" />
        </mxCell>
        <mxCell id="53" value="+ id: primary key" style="text;strokeColor=none;fillColor=none;align=left;verticalAlign=top;spacingLeft=4;spacingRight=4;overflow=hidden;rotatable=0;points=[[0,0.5],[1,0.5]];portConstraint=eastwest;" parent="52" vertex="1">
          <mxGeometry y="26" width="180" height="26" as="geometry" />
        </mxCell>
        <mxCell id="54" value="+ plc_config_id: foreign key" style="text;strokeColor=none;fillColor=none;align=left;verticalAlign=top;spacingLeft=4;spacingRight=4;overflow=hidden;rotatable=0;points=[[0,0.5],[1,0.5]];portConstraint=eastwest;" parent="52" vertex="1">
          <mxGeometry y="52" width="180" height="26" as="geometry" />
        </mxCell>
        <mxCell id="55" value="+ channel_no: integer" style="text;strokeColor=none;fillColor=none;align=left;verticalAlign=top;spacingLeft=4;spacingRight=4;overflow=hidden;rotatable=0;points=[[0,0.5],[1,0.5]];portConstraint=eastwest;" parent="52" vertex="1">
          <mxGeometry y="78" width="180" height="26" as="geometry" />
        </mxCell>
        <mxCell id="56" value="+ io_point_id: foreign key" style="text;strokeColor=none;fillColor=none;align=left;verticalAlign=top;spacingLeft=4;spacingRight=4;overflow=hidden;rotatable=0;points=[[0,0.5],[1,0.5]];portConstraint=eastwest;" parent="52" vertex="1">
          <mxGeometry y="104" width="180" height="26" as="geometry" />
        </mxCell>
        <mxCell id="57" value="io_points" style="swimlane;fontStyle=0;childLayout=stackLayout;horizontal=1;startSize=26;fillColor=#fff2cc;horizontalStack=0;resizeParent=1;resizeParentMax=0;resizeLast=0;collapsible=1;marginBottom=0;strokeColor=#d6b656;" parent="1" vertex="1">
          <mxGeometry x="320" y="720" width="180" height="260" as="geometry" />
        </mxCell>
        <mxCell id="58" value="+ id: primary key" style="text;strokeColor=none;fillColor=none;align=left;verticalAlign=top;spacingLeft=4;spacingRight=4;overflow=hidden;rotatable=0;points=[[0,0.5],[1,0.5]];portConstraint=eastwest;" parent="57" vertex="1">
          <mxGeometry y="26" width="180" height="26" as="geometry" />
        </mxCell>
        <mxCell id="59" value="+ station_id: foreign key" style="text;strokeColor=none;fillColor=none;align=left;verticalAlign=top;spacingLeft=4;spacingRight=4;overflow=hidden;rotatable=0;points=[[0,0.5],[1,0.5]];portConstraint=eastwest;" parent="57" vertex="1">
          <mxGeometry y="52" width="180" height="26" as="geometry" />
        </mxCell>
        <mxCell id="60" value="+ device_id: foreign key" style="text;strokeColor=none;fillColor=none;align=left;verticalAlign=top;spacingLeft=4;spacingRight=4;overflow=hidden;rotatable=0;points=[[0,0.5],[1,0.5]];portConstraint=eastwest;" parent="57" vertex="1">
          <mxGeometry y="78" width="180" height="26" as="geometry" />
        </mxCell>
        <mxCell id="61" value="+ tag_name: string" style="text;strokeColor=none;fillColor=none;align=left;verticalAlign=top;spacingLeft=4;spacingRight=4;overflow=hidden;rotatable=0;points=[[0,0.5],[1,0.5]];portConstraint=eastwest;" parent="57" vertex="1">
          <mxGeometry y="104" width="180" height="26" as="geometry" />
        </mxCell>
        <mxCell id="62" value="+ description: string" style="text;strokeColor=none;fillColor=none;align=left;verticalAlign=top;spacingLeft=4;spacingRight=4;overflow=hidden;rotatable=0;points=[[0,0.5],[1,0.5]];portConstraint=eastwest;" parent="57" vertex="1">
          <mxGeometry y="130" width="180" height="26" as="geometry" />
        </mxCell>
        <mxCell id="63" value="+ io_type: string" style="text;strokeColor=none;fillColor=none;align=left;verticalAlign=top;spacingLeft=4;spacingRight=4;overflow=hidden;rotatable=0;points=[[0,0.5],[1,0.5]];portConstraint=eastwest;" parent="57" vertex="1">
          <mxGeometry y="156" width="180" height="26" as="geometry" />
        </mxCell>
        <mxCell id="64" value="+ data_type: string" style="text;strokeColor=none;fillColor=none;align=left;verticalAlign=top;spacingLeft=4;spacingRight=4;overflow=hidden;rotatable=0;points=[[0,0.5],[1,0.5]];portConstraint=eastwest;" parent="57" vertex="1">
          <mxGeometry y="182" width="180" height="26" as="geometry" />
        </mxCell>
        <mxCell id="65" value="+ address: string" style="text;strokeColor=none;fillColor=none;align=left;verticalAlign=top;spacingLeft=4;spacingRight=4;overflow=hidden;rotatable=0;points=[[0,0.5],[1,0.5]];portConstraint=eastwest;" parent="57" vertex="1">
          <mxGeometry y="208" width="180" height="26" as="geometry" />
        </mxCell>
        <mxCell id="66" value="+ properties: json" style="text;strokeColor=none;fillColor=none;align=left;verticalAlign=top;spacingLeft=4;spacingRight=4;overflow=hidden;rotatable=0;points=[[0,0.5],[1,0.5]];portConstraint=eastwest;" parent="57" vertex="1">
          <mxGeometry y="234" width="180" height="26" as="geometry" />
        </mxCell>
        <mxCell id="71" value="" style="edgeStyle=entityRelationEdgeStyle;fontSize=12;html=1;endArrow=ERoneToMany;rounded=0;exitX=1;exitY=0.5;exitDx=0;exitDy=0;entryX=0;entryY=0.5;entryDx=0;entryDy=0;" parent="1" source="14" target="20" edge="1">
          <mxGeometry width="100" height="100" relative="1" as="geometry">
            <mxPoint x="360" y="430" as="sourcePoint" />
            <mxPoint x="460" y="330" as="targetPoint" />
          </mxGeometry>
        </mxCell>
        <mxCell id="72" value="" style="edgeStyle=entityRelationEdgeStyle;fontSize=12;html=1;endArrow=ERoneToMany;rounded=0;exitX=1;exitY=0.5;exitDx=0;exitDy=0;entryX=0;entryY=0.5;entryDx=0;entryDy=0;" parent="1" source="19" target="26" edge="1">
          <mxGeometry width="100" height="100" relative="1" as="geometry">
            <mxPoint x="360" y="430" as="sourcePoint" />
            <mxPoint x="460" y="330" as="targetPoint" />
          </mxGeometry>
        </mxCell>
      </root>
    </mxGraphModel>
  </diagram>
  <diagram id="M1_98QfnWuDdBG-tSDqv" name="插件系统架构">
    <mxGraphModel dx="1422" dy="798" grid="1" gridSize="10" guides="1" tooltips="1" connect="1" arrows="1" fold="1" page="1" pageScale="1" pageWidth="827" pageHeight="1169" math="0" shadow="0">
      <root>
        <mxCell id="0" />
        <mxCell id="1" parent="0" />
        <mxCell id="2" value="插件系统架构" style="text;html=1;strokeColor=none;fillColor=none;align=center;verticalAlign=middle;whiteSpace=wrap;rounded=0;fontSize=24;fontStyle=1" vertex="1" parent="1">
          <mxGeometry x="270" y="40" width="240" height="30" as="geometry" />
        </mxCell>
        <mxCell id="3" value="插件系统核心" style="swimlane;whiteSpace=wrap;html=1;fillColor=#f8cecc;strokeColor=#b85450;" vertex="1" parent="1">
          <mxGeometry x="80" y="100" width="640" height="200" as="geometry" />
        </mxCell>
        <mxCell id="4" value="插件注册表" style="rounded=1;whiteSpace=wrap;html=1;fillColor=#e1d5e7;strokeColor=#9673a6;" vertex="1" parent="3">
          <mxGeometry x="50" y="40" width="540" height="40" as="geometry" />
        </mxCell>
        <mxCell id="5" value="插件接口定义" style="swimlane;whiteSpace=wrap;html=1;fillColor=#dae8fc;strokeColor=#6c8ebf;" vertex="1" parent="3">
          <mxGeometry x="50" y="100" width="540" height="80" as="geometry" />
        </mxCell>
        <mxCell id="6" value="PlcPlugin接口" style="rounded=1;whiteSpace=wrap;html=1;" vertex="1" parent="5">
          <mxGeometry x="20" y="30" width="160" height="30" as="geometry" />
        </mxCell>
        <mxCell id="7" value="HmiPlugin接口" style="rounded=1;whiteSpace=wrap;html=1;" vertex="1" parent="5">
          <mxGeometry x="190" y="30" width="160" height="30" as="geometry" />
        </mxCell>
        <mxCell id="8" value="DataSourcePlugin接口" style="rounded=1;whiteSpace=wrap;html=1;" vertex="1" parent="5">
          <mxGeometry x="360" y="30" width="160" height="30" as="geometry" />
        </mxCell>
        <mxCell id="9" value="PLC插件" style="swimlane;whiteSpace=wrap;html=1;fillColor=#fff2cc;strokeColor=#d6b656;" vertex="1" parent="1">
          <mxGeometry x="80" y="320" width="200" height="250" as="geometry" />
        </mxCell>
        <mxCell id="10" value="和利时PLC插件" style="swimlane;whiteSpace=wrap;html=1;" vertex="1" parent="9">
          <mxGeometry x="20" y="40" width="160" height="90" as="geometry" />
        </mxCell>
        <mxCell id="11" value="标准型" style="rounded=1;whiteSpace=wrap;html=1;" vertex="1" parent="10">
          <mxGeometry x="10" y="30" width="140" height="20" as="geometry" />
        </mxCell>
        <mxCell id="12" value="安全型" style="rounded=1;whiteSpace=wrap;html=1;" vertex="1" parent="10">
          <mxGeometry x="10" y="60" width="140" height="20" as="geometry" />
        </mxCell>
        <mxCell id="13" value="西门子PLC插件" style="swimlane;whiteSpace=wrap;html=1;" vertex="1" parent="9">
          <mxGeometry x="20" y="140" width="160" height="90" as="geometry" />
        </mxCell>
        <mxCell id="14" value="S7-300/400" style="rounded=1;whiteSpace=wrap;html=1;" vertex="1" parent="13">
          <mxGeometry x="10" y="30" width="140" height="20" as="geometry" />
        </mxCell>
        <mxCell id="15" value="S7-1200/1500" style="rounded=1;whiteSpace=wrap;html=1;" vertex="1" parent="13">
          <mxGeometry x="10" y="60" width="140" height="20" as="geometry" />
        </mxCell>
        <mxCell id="16" value="HMI插件" style="swimlane;whiteSpace=wrap;html=1;fillColor=#fff2cc;strokeColor=#d6b656;" vertex="1" parent="1">
          <mxGeometry x="300" y="320" width="200" height="250" as="geometry" />
        </mxCell>
        <mxCell id="17" value="亚控HMI插件" style="swimlane;whiteSpace=wrap;html=1;" vertex="1" parent="16">
          <mxGeometry x="20" y="40" width="160" height="90" as="geometry" />
        </mxCell>
        <mxCell id="18" value="变量表生成" style="rounded=1;whiteSpace=wrap;html=1;" vertex="1" parent="17">
          <mxGeometry x="10" y="30" width="140" height="20" as="geometry" />
        </mxCell>
        <mxCell id="19" value="IO配置生成" style="rounded=1;whiteSpace=wrap;html=1;" vertex="1" parent="17">
          <mxGeometry x="10" y="60" width="140" height="20" as="geometry" />
        </mxCell>
        <mxCell id="20" value="力控HMI插件" style="swimlane;whiteSpace=wrap;html=1;" vertex="1" parent="16">
          <mxGeometry x="20" y="140" width="160" height="90" as="geometry" />
        </mxCell>
        <mxCell id="21" value="变量表生成" style="rounded=1;whiteSpace=wrap;html=1;" vertex="1" parent="20">
          <mxGeometry x="10" y="30" width="140" height="20" as="geometry" />
        </mxCell>
        <mxCell id="22" value="IO配置生成" style="rounded=1;whiteSpace=wrap;html=1;" vertex="1" parent="20">
          <mxGeometry x="10" y="60" width="140" height="20" as="geometry" />
        </mxCell>
        <mxCell id="23" value="数据源插件" style="swimlane;whiteSpace=wrap;html=1;fillColor=#fff2cc;strokeColor=#d6b656;" vertex="1" parent="1">
          <mxGeometry x="520" y="320" width="200" height="250" as="geometry" />
        </mxCell>
        <mxCell id="24" value="简道云数据源插件" style="swimlane;whiteSpace=wrap;html=1;" vertex="1" parent="23">
          <mxGeometry x="20" y="40" width="160" height="90" as="geometry" />
        </mxCell>
        <mxCell id="25" value="API接入" style="rounded=1;whiteSpace=wrap;html=1;" vertex="1" parent="24">
          <mxGeometry x="10" y="30" width="140" height="20" as="geometry" />
        </mxCell>
        <mxCell id="26" value="数据同步" style="rounded=1;whiteSpace=wrap;html=1;" vertex="1" parent="24">
          <mxGeometry x="10" y="60" width="140" height="20" as="geometry" />
        </mxCell>
        <mxCell id="27" value="AI解析器插件" style="swimlane;whiteSpace=wrap;html=1;" vertex="1" parent="23">
          <mxGeometry x="20" y="140" width="160" height="90" as="geometry" />
        </mxCell>
        <mxCell id="28" value="设计文档解析" style="rounded=1;whiteSpace=wrap;html=1;" vertex="1" parent="27">
          <mxGeometry x="10" y="30" width="140" height="20" as="geometry" />
        </mxCell>
        <mxCell id="29" value="IO映射建议" style="rounded=1;whiteSpace=wrap;html=1;" vertex="1" parent="27">
          <mxGeometry x="10" y="60" width="140" height="20" as="geometry" />
        </mxCell>
        <!-- 插件系统工作流程 -->
        <mxCell id="30" value="插件系统工作流程" style="text;html=1;strokeColor=none;fillColor=none;align=center;verticalAlign=middle;whiteSpace=wrap;rounded=0;fontSize=16;fontStyle=1" vertex="1" parent="1">
          <mxGeometry x="320" y="590" width="160" height="30" as="geometry" />
        </mxCell>
        <mxCell id="31" value="" style="edgeStyle=orthogonalEdgeStyle;rounded=0;orthogonalLoop=1;jettySize=auto;html=1;" edge="1" parent="1" source="32" target="34">
          <mxGeometry relative="1" as="geometry" />
        </mxCell>
        <mxCell id="32" value="系统启动" style="rounded=1;whiteSpace=wrap;html=1;fillColor=#dae8fc;strokeColor=#6c8ebf;" vertex="1" parent="1">
          <mxGeometry x="80" y="640" width="120" height="60" as="geometry" />
        </mxCell>
        <mxCell id="33" value="" style="edgeStyle=orthogonalEdgeStyle;rounded=0;orthogonalLoop=1;jettySize=auto;html=1;" edge="1" parent="1" source="34" target="36">
          <mxGeometry relative="1" as="geometry" />
        </mxCell>
        <mxCell id="34" value="插件发现与加载" style="rounded=1;whiteSpace=wrap;html=1;fillColor=#dae8fc;strokeColor=#6c8ebf;" vertex="1" parent="1">
          <mxGeometry x="240" y="640" width="120" height="60" as="geometry" />
        </mxCell>
        <mxCell id="35" value="" style="edgeStyle=orthogonalEdgeStyle;rounded=0;orthogonalLoop=1;jettySize=auto;html=1;" edge="1" parent="1" source="36" target="38">
          <mxGeometry relative="1" as="geometry" />
        </mxCell>
        <mxCell id="36" value="插件注册" style="rounded=1;whiteSpace=wrap;html=1;fillColor=#dae8fc;strokeColor=#6c8ebf;" vertex="1" parent="1">
          <mxGeometry x="400" y="640" width="120" height="60" as="geometry" />
        </mxCell>
        <mxCell id="37" value="" style="edgeStyle=orthogonalEdgeStyle;rounded=0;orthogonalLoop=1;jettySize=auto;html=1;" edge="1" parent="1" source="38" target="40">
          <mxGeometry relative="1" as="geometry" />
        </mxCell>
        <mxCell id="38" value="插件验证" style="rounded=1;whiteSpace=wrap;html=1;fillColor=#dae8fc;strokeColor=#6c8ebf;" vertex="1" parent="1">
          <mxGeometry x="560" y="640" width="120" height="60" as="geometry" />
        </mxCell>
        <mxCell id="39" value="" style="edgeStyle=orthogonalEdgeStyle;rounded=0;orthogonalLoop=1;jettySize=auto;html=1;" edge="1" parent="1" source="40" target="42">
          <mxGeometry relative="1" as="geometry" />
        </mxCell>
        <mxCell id="40" value="用户请求" style="rounded=1;whiteSpace=wrap;html=1;fillColor=#d5e8d4;strokeColor=#82b366;" vertex="1" parent="1">
          <mxGeometry x="560" y="740" width="120" height="60" as="geometry" />
        </mxCell>
        <mxCell id="41" value="" style="edgeStyle=orthogonalEdgeStyle;rounded=0;orthogonalLoop=1;jettySize=auto;html=1;" edge="1" parent="1" source="42" target="44">
          <mxGeometry relative="1" as="geometry" />
        </mxCell>
        <mxCell id="42" value="根据请求类型选择插件" style="rounded=1;whiteSpace=wrap;html=1;fillColor=#d5e8d4;strokeColor=#82b366;" vertex="1" parent="1">
          <mxGeometry x="400" y="740" width="120" height="60" as="geometry" />
        </mxCell>
        <mxCell id="43" value="" style="edgeStyle=orthogonalEdgeStyle;rounded=0;orthogonalLoop=1;jettySize=auto;html=1;" edge="1" parent="1" source="44" target="46">
          <mxGeometry relative="1" as="geometry" />
        </mxCell>
        <mxCell id="44" value="调用插件方法" style="rounded=1;whiteSpace=wrap;html=1;fillColor=#d5e8d4;strokeColor=#82b366;" vertex="1" parent="1">
          <mxGeometry x="240" y="740" width="120" height="60" as="geometry" />
        </mxCell>
        <mxCell id="45" value="" style="edgeStyle=orthogonalEdgeStyle;rounded=0;orthogonalLoop=1;jettySize=auto;html=1;" edge="1" parent="1" source="46" target="48">
          <mxGeometry relative="1" as="geometry" />
        </mxCell>
        <mxCell id="46" value="处理插件结果" style="rounded=1;whiteSpace=wrap;html=1;fillColor=#d5e8d4;strokeColor=#82b366;" vertex="1" parent="1">
          <mxGeometry x="80" y="740" width="120" height="60" as="geometry" />
        </mxCell>
        <mxCell id="47" value="" style="edgeStyle=orthogonalEdgeStyle;rounded=0;orthogonalLoop=1;jettySize=auto;html=1;" edge="1" parent="1" source="48" target="50">
          <mxGeometry relative="1" as="geometry" />
        </mxCell>
        <mxCell id="48" value="格式化响应" style="rounded=1;whiteSpace=wrap;html=1;fillColor=#ffe6cc;strokeColor=#d79b00;" vertex="1" parent="1">
          <mxGeometry x="80" y="840" width="120" height="60" as="geometry" />
        </mxCell>
        <mxCell id="49" value="" style="edgeStyle=orthogonalEdgeStyle;rounded=0;orthogonalLoop=1;jettySize=auto;html=1;" edge="1" parent="1" source="50" target="51">
          <mxGeometry relative="1" as="geometry" />
        </mxCell>
        <mxCell id="50" value="返回结果" style="rounded=1;whiteSpace=wrap;html=1;fillColor=#ffe6cc;strokeColor=#d79b00;" vertex="1" parent="1">
          <mxGeometry x="240" y="840" width="120" height="60" as="geometry" />
        </mxCell>
        <mxCell id="51" value="结束" style="rounded=1;whiteSpace=wrap;html=1;fillColor=#ffe6cc;strokeColor=#d79b00;" vertex="1" parent="1">
          <mxGeometry x="400" y="840" width="120" height="60" as="geometry" />
        </mxCell>
      </root>
    </mxGraphModel>
  </diagram>
  <diagram id="hm4kkZbcPzEvMhpXWZQG" name="文件处理架构">
    <mxGraphModel dx="1426" dy="829" grid="1" gridSize="10" guides="1" tooltips="1" connect="1" arrows="1" fold="1" page="1" pageScale="1" pageWidth="827" pageHeight="1169" math="0" shadow="0">
      <root>
        <mxCell id="0" />
        <mxCell id="1" parent="0" />
        <mxCell id="2" value="文件处理架构" style="text;html=1;strokeColor=none;fillColor=none;align=center;verticalAlign=middle;whiteSpace=wrap;rounded=0;fontSize=24;fontStyle=1" parent="1" vertex="1">
          <mxGeometry x="270" y="40" width="240" height="30" as="geometry" />
        </mxCell>
        <mxCell id="3" value="文件处理策略" style="swimlane;whiteSpace=wrap;html=1;fillColor=#f8cecc;strokeColor=#b85450;" parent="1" vertex="1">
          <mxGeometry x="80" y="100" width="640" height="200" as="geometry" />
        </mxCell>
        <mxCell id="4" value="Rust原生处理" style="rounded=1;whiteSpace=wrap;html=1;fillColor=#dae8fc;strokeColor=#6c8ebf;" parent="3" vertex="1">
          <mxGeometry x="40" y="40" width="160" height="60" as="geometry" />
        </mxCell>
        <mxCell id="5" value="Python桥接处理" style="rounded=1;whiteSpace=wrap;html=1;fillColor=#d5e8d4;strokeColor=#82b366;" parent="3" vertex="1">
          <mxGeometry x="240" y="40" width="160" height="60" as="geometry" />
        </mxCell>
        <mxCell id="6" value="前端JS处理" style="rounded=1;whiteSpace=wrap;html=1;fillColor=#ffe6cc;strokeColor=#d79b00;" parent="3" vertex="1">
          <mxGeometry x="440" y="40" width="160" height="60" as="geometry" />
        </mxCell>
        <mxCell id="7" value="简单Excel文件&#xa;标准格式CSV&#xa;JSON数据" style="text;fontStyle=0;align=center;" parent="3" vertex="1">
          <mxGeometry x="40" y="110" width="160" height="80" as="geometry" />
        </mxCell>
        <mxCell id="8" value="复杂Excel文件&#xa;自定义格式CSV&#xa;XML数据" style="text;fontStyle=0;align=center;" parent="3" vertex="1">
          <mxGeometry x="240" y="110" width="160" height="80" as="geometry" />
        </mxCell>
        <mxCell id="9" value="用户上传文件预处理&#xa;数据验证&#xa;表格交互操作" style="text;fontStyle=0;align=center;" parent="3" vertex="1">
          <mxGeometry x="440" y="110" width="160" height="80" as="geometry" />
        </mxCell>
        <mxCell id="10" value="文件处理流程" style="swimlane;whiteSpace=wrap;html=1;fillColor=#d5e8d4;strokeColor=#82b366;" parent="1" vertex="1">
          <mxGeometry x="80" y="320" width="640" height="240" as="geometry" />
        </mxCell>
        <mxCell id="11" value="文件上传" style="rounded=1;whiteSpace=wrap;html=1;fillColor=#dae8fc;strokeColor=#6c8ebf;" parent="10" vertex="1">
          <mxGeometry x="40" y="40" width="120" height="60" as="geometry" />
        </mxCell>
        <mxCell id="12" value="文件类型识别" style="rounded=1;whiteSpace=wrap;html=1;fillColor=#dae8fc;strokeColor=#6c8ebf;" parent="10" vertex="1">
          <mxGeometry x="200" y="40" width="120" height="60" as="geometry" />
        </mxCell>
        <mxCell id="13" value="处理策略选择" style="rounded=1;whiteSpace=wrap;html=1;fillColor=#dae8fc;strokeColor=#6c8ebf;" parent="10" vertex="1">
          <mxGeometry x="360" y="40" width="120" height="60" as="geometry" />
        </mxCell>
        <mxCell id="14" value="文件解析" style="rounded=1;whiteSpace=wrap;html=1;fillColor=#dae8fc;strokeColor=#6c8ebf;" parent="10" vertex="1">
          <mxGeometry x="520" y="40" width="80" height="60" as="geometry" />
        </mxCell>
        <mxCell id="15" value="数据验证" style="rounded=1;whiteSpace=wrap;html=1;fillColor=#ffe6cc;strokeColor=#d79b00;" parent="10" vertex="1">
          <mxGeometry x="520" y="120" width="80" height="60" as="geometry" />
        </mxCell>
        <mxCell id="16" value="数据转换" style="rounded=1;whiteSpace=wrap;html=1;fillColor=#ffe6cc;strokeColor=#d79b00;" parent="10" vertex="1">
          <mxGeometry x="360" y="120" width="120" height="60" as="geometry" />
        </mxCell>
        <mxCell id="17" value="业务处理" style="rounded=1;whiteSpace=wrap;html=1;fillColor=#ffe6cc;strokeColor=#d79b00;" parent="10" vertex="1">
          <mxGeometry x="200" y="120" width="120" height="60" as="geometry" />
        </mxCell>
        <mxCell id="18" value="结果输出" style="rounded=1;whiteSpace=wrap;html=1;fillColor=#ffe6cc;strokeColor=#d79b00;" parent="10" vertex="1">
          <mxGeometry x="40" y="120" width="120" height="60" as="geometry" />
        </mxCell>
        <mxCell id="19" value="" style="endArrow=classic;html=1;rounded=0;exitX=1;exitY=0.5;exitDx=0;exitDy=0;entryX=0;entryY=0.5;entryDx=0;entryDy=0;" parent="10" source="11" target="12" edge="1">
          <mxGeometry width="50" height="50" relative="1" as="geometry">
            <mxPoint x="300" y="180" as="sourcePoint" />
            <mxPoint x="350" y="130" as="targetPoint" />
          </mxGeometry>
        </mxCell>
        <mxCell id="20" value="" style="endArrow=classic;html=1;rounded=0;exitX=1;exitY=0.5;exitDx=0;exitDy=0;entryX=0;entryY=0.5;entryDx=0;entryDy=0;" parent="10" source="12" target="13" edge="1">
          <mxGeometry width="50" height="50" relative="1" as="geometry">
            <mxPoint x="300" y="180" as="sourcePoint" />
            <mxPoint x="350" y="130" as="targetPoint" />
          </mxGeometry>
        </mxCell>
        <mxCell id="21" value="" style="endArrow=classic;html=1;rounded=0;exitX=1;exitY=0.5;exitDx=0;exitDy=0;entryX=0;entryY=0.5;entryDx=0;entryDy=0;" parent="10" source="13" target="14" edge="1">
          <mxGeometry width="50" height="50" relative="1" as="geometry">
            <mxPoint x="300" y="180" as="sourcePoint" />
            <mxPoint x="350" y="130" as="targetPoint" />
          </mxGeometry>
        </mxCell>
        <mxCell id="22" value="" style="endArrow=classic;html=1;rounded=0;exitX=0.5;exitY=1;exitDx=0;exitDy=0;entryX=0.5;entryY=0;entryDx=0;entryDy=0;" parent="10" source="14" target="15" edge="1">
          <mxGeometry width="50" height="50" relative="1" as="geometry">
            <mxPoint x="300" y="180" as="sourcePoint" />
            <mxPoint x="350" y="130" as="targetPoint" />
          </mxGeometry>
        </mxCell>
        <mxCell id="23" value="" style="endArrow=classic;html=1;rounded=0;exitX=0;exitY=0.5;exitDx=0;exitDy=0;entryX=1;entryY=0.5;entryDx=0;entryDy=0;" parent="10" source="15" target="16" edge="1">
          <mxGeometry width="50" height="50" relative="1" as="geometry">
            <mxPoint x="300" y="180" as="sourcePoint" />
            <mxPoint x="350" y="130" as="targetPoint" />
          </mxGeometry>
        </mxCell>
        <mxCell id="24" value="" style="endArrow=classic;html=1;rounded=0;exitX=0;exitY=0.5;exitDx=0;exitDy=0;entryX=1;entryY=0.5;entryDx=0;entryDy=0;" parent="10" source="16" target="17" edge="1">
          <mxGeometry width="50" height="50" relative="1" as="geometry">
            <mxPoint x="300" y="180" as="sourcePoint" />
            <mxPoint x="350" y="130" as="targetPoint" />
          </mxGeometry>
        </mxCell>
        <mxCell id="25" value="" style="endArrow=classic;html=1;rounded=0;exitX=0;exitY=0.5;exitDx=0;exitDy=0;entryX=1;entryY=0.5;entryDx=0;entryDy=0;" parent="10" source="17" target="18" edge="1">
          <mxGeometry width="50" height="50" relative="1" as="geometry">
            <mxPoint x="300" y="180" as="sourcePoint" />
            <mxPoint x="350" y="130" as="targetPoint" />
          </mxGeometry>
        </mxCell>
        <mxCell id="26" value="支持的文件格式" style="swimlane;whiteSpace=wrap;html=1;fillColor=#e1d5e7;strokeColor=#9673a6;" parent="1" vertex="1">
          <mxGeometry x="160" y="580" width="480" height="200" as="geometry" />
        </mxCell>
        <mxCell id="27" value="Excel文件" style="swimlane;fontStyle=0;childLayout=stackLayout;horizontal=1;startSize=26;fillColor=#dae8fc;horizontalStack=0;resizeParent=1;resizeParentMax=0;resizeLast=0;collapsible=1;marginBottom=0;strokeColor=#6c8ebf;" parent="26" vertex="1">
          <mxGeometry x="40" y="40" width="140" height="104" as="geometry" />
        </mxCell>
        <mxCell id="28" value="+ .xls (Excel 97-2003)" style="text;strokeColor=none;fillColor=none;align=left;verticalAlign=top;spacingLeft=4;spacingRight=4;overflow=hidden;rotatable=0;points=[[0,0.5],[1,0.5]];portConstraint=eastwest;" parent="27" vertex="1">
          <mxGeometry y="26" width="140" height="26" as="geometry" />
        </mxCell>
        <mxCell id="29" value="+ .xlsx (Excel 2007+)" style="text;strokeColor=none;fillColor=none;align=left;verticalAlign=top;spacingLeft=4;spacingRight=4;overflow=hidden;rotatable=0;points=[[0,0.5],[1,0.5]];portConstraint=eastwest;" parent="27" vertex="1">
          <mxGeometry y="52" width="140" height="26" as="geometry" />
        </mxCell>
        <mxCell id="30" value="+ .xlsm (宏启用)" style="text;strokeColor=none;fillColor=none;align=left;verticalAlign=top;spacingLeft=4;spacingRight=4;overflow=hidden;rotatable=0;points=[[0,0.5],[1,0.5]];portConstraint=eastwest;" parent="27" vertex="1">
          <mxGeometry y="78" width="140" height="26" as="geometry" />
        </mxCell>
        <mxCell id="31" value="文本文件" style="swimlane;fontStyle=0;childLayout=stackLayout;horizontal=1;startSize=26;fillColor=#ffe6cc;horizontalStack=0;resizeParent=1;resizeParentMax=0;resizeLast=0;collapsible=1;marginBottom=0;strokeColor=#d79b00;" parent="26" vertex="1">
          <mxGeometry x="200" y="40" width="140" height="104" as="geometry" />
        </mxCell>
        <mxCell id="32" value="+ .csv (逗号分隔值)" style="text;strokeColor=none;fillColor=none;align=left;verticalAlign=top;spacingLeft=4;spacingRight=4;overflow=hidden;rotatable=0;points=[[0,0.5],[1,0.5]];portConstraint=eastwest;" parent="31" vertex="1">
          <mxGeometry y="26" width="140" height="26" as="geometry" />
        </mxCell>
        <mxCell id="33" value="+ .txt (文本文件)" style="text;strokeColor=none;fillColor=none;align=left;verticalAlign=top;spacingLeft=4;spacingRight=4;overflow=hidden;rotatable=0;points=[[0,0.5],[1,0.5]];portConstraint=eastwest;" parent="31" vertex="1">
          <mxGeometry y="52" width="140" height="26" as="geometry" />
        </mxCell>
        <mxCell id="34" value="+ .tsv (制表符分隔值)" style="text;strokeColor=none;fillColor=none;align=left;verticalAlign=top;spacingLeft=4;spacingRight=4;overflow=hidden;rotatable=0;points=[[0,0.5],[1,0.5]];portConstraint=eastwest;" parent="31" vertex="1">
          <mxGeometry y="78" width="140" height="26" as="geometry" />
        </mxCell>
        <mxCell id="35" value="数据交换文件" style="swimlane;fontStyle=0;childLayout=stackLayout;horizontal=1;startSize=26;fillColor=#d5e8d4;horizontalStack=0;resizeParent=1;resizeParentMax=0;resizeLast=0;collapsible=1;marginBottom=0;strokeColor=#82b366;" parent="26" vertex="1">
          <mxGeometry x="360" y="40" width="80" height="104" as="geometry" />
        </mxCell>
        <mxCell id="36" value="+ .json" style="text;strokeColor=none;fillColor=none;align=left;verticalAlign=top;spacingLeft=4;spacingRight=4;overflow=hidden;rotatable=0;points=[[0,0.5],[1,0.5]];portConstraint=eastwest;" parent="35" vertex="1">
          <mxGeometry y="26" width="80" height="26" as="geometry" />
        </mxCell>
        <mxCell id="37" value="+ .xml" style="text;strokeColor=none;fillColor=none;align=left;verticalAlign=top;spacingLeft=4;spacingRight=4;overflow=hidden;rotatable=0;points=[[0,0.5],[1,0.5]];portConstraint=eastwest;" parent="35" vertex="1">
          <mxGeometry y="52" width="80" height="26" as="geometry" />
        </mxCell>
        <mxCell id="38" value="+ .yaml" style="text;strokeColor=none;fillColor=none;align=left;verticalAlign=top;spacingLeft=4;spacingRight=4;overflow=hidden;rotatable=0;points=[[0,0.5],[1,0.5]];portConstraint=eastwest;" parent="35" vertex="1">
          <mxGeometry y="78" width="80" height="26" as="geometry" />
        </mxCell>
      </root>
    </mxGraphModel>
  </diagram>
</mxfile>
